<svg width="1363" height="426" viewBox="0 0 1363 426" fill="none" xmlns="http://www.w3.org/2000/svg">
<mask id="mask0_29_78" style="mask-type:luminance" maskUnits="userSpaceOnUse" x="-13" y="-17" width="1412" height="505">
<path d="M1398.84 -16.4111H-12.1016V487.958H1398.84V-16.4111Z" fill="white"/>
</mask>
<g mask="url(#mask0_29_78)">
<path d="M152.399 393.505L64.2155 233.335L30.0711 252.138L8.78125 213.457L121.498 151.402L142.788 190.084L108.946 208.719L197.13 368.888L152.399 393.505Z" fill="#FF0000"/>
<path d="M233.536 348.182L151.367 136.578L198.954 118.111L231.049 200.75L277.375 182.753L245.281 100.114L292.868 81.6475L375.037 293.252L327.449 311.719L293.103 223.283L246.777 241.279L281.123 329.715L233.536 348.182Z" fill="#FF0000"/>
<path d="M385.712 291.427L331.555 70.9842L438.76 44.6533L449.296 87.5355L391.66 101.684L404.011 151.943L449.245 140.836L457.311 173.669L412.076 184.776L424.746 236.363L484.717 221.643L495.253 264.525L385.712 291.427Z" fill="#FF0000"/>
<path d="M554.135 255.771L534.609 29.6152L585.456 25.2295L601.184 207.395L651.712 203.042L655.509 247.034L554.135 255.771Z" fill="#FF0000"/>
<path d="M664.796 247.795L664.023 20.7989L715.089 20.6309L715.862 247.627L664.796 247.795Z" fill="#FF0000"/>
<path d="M729.859 245.526L753.67 19.79L823.656 27.1667L850.827 173.994L851.18 174.028L861.06 31.1155L907.706 36.0389L883.896 261.775L827.285 255.793L790.099 82.2481L789.746 82.2145L776.522 250.45L729.859 245.526Z" fill="#FF0000"/>
<path d="M894.086 265.153L947.134 44.4414L1054.47 70.2345L1044.16 113.167L986.454 99.2875L974.356 149.614L1019.64 160.502L1011.74 193.369L966.458 182.481L954.04 234.134L1014.08 248.568L1003.76 291.501L894.086 265.153Z" fill="#FF0000"/>
<path d="M1072.3 319.31C1050.78 311.211 1036.73 298.919 1030.16 282.444C1023.58 265.968 1024.75 245.892 1033.65 222.221L1087.36 79.5098L1135.13 97.4893L1081.43 240.2C1073.99 259.994 1077.48 272.605 1091.91 278.024C1105.69 283.213 1116.3 275.907 1123.74 256.113L1177.44 113.402L1218.76 128.945L1165.06 271.656C1156.15 295.324 1143.84 311.211 1128.14 319.31C1112.45 327.41 1093.83 327.41 1072.3 319.31Z" fill="#FF0000"/>
<path d="M1147.38 345.59L1255.26 145.865L1313.23 177.187C1334.67 188.773 1347.31 203.114 1351.14 220.22C1354.98 237.326 1350.18 258.322 1336.74 283.199C1323.62 307.488 1309.32 322.964 1293.82 329.627C1278.33 336.281 1260.67 334.256 1240.84 323.544L1222.63 313.697L1192.3 369.854L1147.38 345.59ZM1240 281.535L1255.19 289.735C1261.67 293.231 1267.92 292.89 1273.96 288.71C1280.01 284.522 1286.37 276.255 1293.05 263.909C1299.83 251.365 1303.2 241.233 1303.18 233.511C1303.17 225.795 1299.63 220.027 1292.55 216.204L1279.19 208.979L1240 281.535Z" fill="#FF0000"/>
</g>
</svg>
