<svg width="256" height="256" viewBox="0 0 256 256" fill="none" xmlns="http://www.w3.org/2000/svg">
<g clip-path="url(#clip0_26_3849)">
<rect width="256" height="256" fill="#FF0000"/>
<mask id="mask0_26_3849" style="mask-type:luminance" maskUnits="userSpaceOnUse" x="68" y="22" width="135" height="248">
<path d="M68.9297 22H202.93V269.962H68.9297V22Z" fill="white"/>
</mask>
<g mask="url(#mask0_26_3849)">
<mask id="mask1_26_3849" style="mask-type:luminance" maskUnits="userSpaceOnUse" x="68" y="22" width="135" height="248">
<path d="M202.934 22H68.6406V269.962H202.934V22Z" fill="white"/>
</mask>
<g mask="url(#mask1_26_3849)">
<path d="M142.001 208.375C129.349 209.822 119.36 208.631 112.037 204.802C104.713 200.969 99.2845 195.023 95.7521 186.962C92.2232 178.898 89.8169 169.243 88.5332 157.994L119.235 154.492C120.499 165.583 122.531 172.987 125.329 176.7C128.126 180.415 132.65 181.913 138.9 181.197C143.899 180.63 147.369 178.811 149.313 175.74C151.256 172.671 151.951 168.713 151.397 163.866C150.934 159.809 150.074 156.783 148.819 154.793C147.562 152.802 145.919 151.208 143.885 150.009C140.992 148.281 133.925 146.004 122.687 143.177C117.316 141.887 112.474 140.382 108.163 138.658C103.852 136.935 100.314 135.046 97.5496 132.993C93.7773 130.415 90.4418 126.483 87.5449 121.198C84.6427 115.912 82.7538 109.442 81.8801 101.783C80.2956 87.8803 83.2032 76.2732 90.6029 66.9632C98.008 57.6495 109.13 52.1441 123.969 50.4486C135.531 49.1309 144.854 50.0458 151.935 53.1915C159.019 56.339 164.446 61.9322 168.213 69.971C171.983 78.0063 174.637 88.7415 176.169 102.177L145.933 105.628C145.006 97.5036 143.829 91.3465 142.402 87.1588C140.974 82.9728 139.076 80.2228 136.709 78.9086C134.346 77.5909 131.368 77.1379 127.779 77.5479C123.711 78.0117 120.621 79.7501 118.512 82.7616C116.406 85.7748 115.629 89.7011 116.184 94.5423C116.7 99.0738 117.598 102.454 118.884 104.683C120.168 106.909 121.672 108.634 123.396 109.861C125.276 111.075 128.104 112.294 131.882 113.52C135.663 114.749 140.082 116.023 145.138 117.345C150.839 118.754 155.587 120.152 159.383 121.541C163.178 122.927 166.712 124.777 169.989 127.092C178.898 133.036 184.163 143.117 185.787 157.335C187.357 171.082 184.473 182.565 177.136 191.789C169.803 201.01 158.09 206.538 142.001 208.375Z" fill="white"/>
</g>
</g>
<mask id="mask2_26_3849" style="mask-type:luminance" maskUnits="userSpaceOnUse" x="40" y="66" width="35" height="34">
<path d="M40.9297 84.1777L57.2164 66.5488L74.0317 82.0839L57.745 99.7128L40.9297 84.1777Z" fill="white"/>
</mask>
<g mask="url(#mask2_26_3849)">
<mask id="mask3_26_3849" style="mask-type:luminance" maskUnits="userSpaceOnUse" x="31" y="27" width="67" height="64">
<path d="M31.0749 42.3763L84.3057 27.7132L97.6936 76.3156L44.4637 90.9776L31.0749 42.3763Z" fill="white"/>
</mask>
<g mask="url(#mask3_26_3849)">
<mask id="mask4_26_3849" style="mask-type:luminance" maskUnits="userSpaceOnUse" x="31" y="27" width="67" height="64">
<path d="M31.0749 42.3763L84.3057 27.7132L97.6936 76.3156L44.4637 90.9776L31.0749 42.3763Z" fill="white"/>
</mask>
<g mask="url(#mask4_26_3849)">
<path d="M44.4235 85.5423C44.4374 85.3764 44.4256 85.2595 44.2118 85.2465C43.9898 85.2339 43.9475 85.1202 44.0595 84.9076C44.1079 84.8148 44.1481 84.7203 44.2006 84.6294C44.2504 84.5458 44.3106 84.4679 44.3869 84.3598C44.2165 84.1807 43.9762 84.0923 43.716 84.0423C43.6862 84.0364 43.6485 84.0644 43.6216 84.0553C43.3142 83.948 42.9963 83.8585 42.703 83.7191C42.4481 83.5975 42.4285 83.387 42.5843 83.144C42.6352 83.0654 42.6508 82.9678 42.6957 82.8385C42.7229 82.9068 42.7339 82.9523 42.7598 82.988C42.7813 83.0158 42.8233 83.0468 42.8528 83.0425C42.8822 83.0383 42.9224 82.9969 42.9273 82.9661C42.9871 82.6718 42.984 82.6709 43.1423 82.4911C43.0893 82.4932 43.0336 82.5046 42.9811 82.4934C42.8968 82.4784 42.8161 82.451 42.7335 82.4277C42.7885 82.3724 42.8339 82.2829 42.8995 82.2629C43.5077 82.0786 44.1172 81.9014 44.7301 81.7352C45.1725 81.6157 45.6185 81.5113 46.0647 81.413C46.1517 81.3932 46.2527 81.4178 46.3407 81.448C46.5208 81.5123 46.5688 81.6155 46.3616 81.7717C46.451 81.8111 46.5143 81.8381 46.6141 81.8832C46.6158 81.6943 46.6174 81.5544 46.6187 81.4063C46.8489 81.3421 47.133 81.2492 47.4257 81.1917C47.526 81.1724 47.6444 81.2484 47.7548 81.2797C47.763 81.3049 47.7721 81.3291 47.7812 81.3532C47.8602 81.2613 47.9372 81.1674 48.0214 81.0783C48.0469 81.0508 48.0918 81.0255 48.1246 81.0283C48.3461 81.0542 48.5584 81.0305 48.7688 80.9558C48.8886 80.9133 49.0275 80.865 49.1428 80.889C49.4721 80.9576 49.7579 80.7759 50.0707 80.7625C50.5405 80.7428 51.0096 80.7069 51.479 80.6792C51.6388 80.6677 51.7985 80.6522 51.9586 80.649C52.4288 80.6416 52.9003 80.6392 53.3715 80.6308C53.6429 80.6262 53.916 80.6154 54.1874 80.6128C54.266 80.6128 54.3446 80.6403 54.4233 80.6423C54.5695 80.6477 54.7163 80.6439 54.8611 80.6402C54.9264 80.6397 54.991 80.6208 55.0545 80.6265C55.5008 80.6578 55.9444 80.7005 56.3914 80.7246C56.6614 80.7384 56.9333 80.7226 57.2041 80.7312C57.7704 80.7517 58.3341 80.7835 58.8993 80.803C59.6189 80.8296 60.3392 80.847 61.0599 80.8747C61.4187 80.888 61.7775 80.9269 62.1372 80.9372C62.4049 80.9449 62.6738 80.9047 62.9398 80.9207C63.2559 80.9398 63.5695 80.9958 63.9183 81.0412C63.9898 81.0169 64.1083 80.9418 64.2298 80.9421C64.7226 80.9379 65.2169 80.9704 65.7107 80.9652C66.3065 80.9579 66.9053 80.873 67.4951 80.9191C68.2374 80.9764 68.9735 80.8003 69.7106 80.9079C69.8369 80.9264 69.9628 80.9367 70.0735 80.9487C70.1062 81.026 70.1277 81.1578 70.1668 81.1645C70.2952 81.1849 70.5072 81.2041 70.5475 81.1392C70.7354 80.8317 70.9451 80.9979 71.16 81.0629C71.2685 81.0964 71.3824 81.1133 71.4936 81.1375C71.787 81.2004 72.0815 81.2642 72.3767 81.323C72.635 81.375 72.9186 81.3209 73.1475 81.5068C73.2709 81.6071 73.4167 81.6809 73.5282 81.7898C73.5833 81.8407 73.6197 81.9628 73.5948 82.0281C73.5726 82.0861 73.4534 82.1449 73.3818 82.1396C73.1749 82.1212 73.1112 82.1901 73.1226 82.3989C73.1328 82.5791 72.9171 82.7275 72.7151 82.7018C72.4853 82.6742 72.326 82.7744 72.1636 82.9268C72.2109 82.9606 72.2216 82.9745 72.237 82.9769C72.3183 82.9931 72.3995 83.0073 72.4797 83.0224C72.4176 83.079 72.3658 83.1607 72.2924 83.1891C72.1447 83.249 71.9867 83.2798 71.7807 83.3369C71.9262 83.0158 71.7525 82.8808 71.5397 82.7412C71.4505 82.9356 71.3196 82.9561 71.1178 82.911C70.8923 82.8617 70.6477 82.8969 70.4111 82.9022C70.3785 82.9035 70.3452 82.9395 70.2814 82.9768C70.5893 83.0452 70.8348 82.9559 71.0094 83.1643C71.0265 83.1841 71.141 83.1622 71.1682 83.1284C71.3151 82.944 71.4643 83.1035 71.6098 83.1181C71.6139 83.118 71.6309 83.2398 71.6034 83.2654C71.4508 83.4092 71.2838 83.5219 71.1477 83.4099C70.9083 83.446 70.7344 83.462 70.5653 83.4983C70.4429 83.5246 70.3281 83.5914 70.2045 83.6147C69.393 83.7662 68.5791 83.9117 67.7654 84.0613C67.4452 84.1209 67.1264 84.1897 66.8053 84.2504C66.2135 84.3595 65.6241 84.4767 65.0307 84.5706C64.6036 84.6376 64.1723 84.673 63.7424 84.7217C63.4802 84.7504 63.2149 84.7783 62.9527 84.807C62.4111 84.8682 61.872 84.9416 61.3299 84.9906C60.8133 85.0376 60.2946 85.0592 59.7775 85.0939C59.411 85.1186 59.047 85.1535 58.6803 85.1721C58.5315 85.18 58.3806 85.1584 58.2303 85.1511C58.1996 85.1482 58.161 85.1283 58.137 85.1395C57.7453 85.3275 57.3257 85.2481 56.9153 85.2715C56.4275 85.3 55.9391 85.3377 55.4489 85.3581C54.8722 85.383 54.295 85.3956 53.7188 85.4072C53.6168 85.4092 53.5116 85.3572 53.4141 85.3692C53.2556 85.3878 53.1025 85.4642 52.9456 85.4725C52.7011 85.4842 52.4526 85.4471 52.206 85.4568C51.9195 85.4651 51.6311 85.501 51.3442 85.5246C51.0156 85.5529 50.6856 85.5701 50.3586 85.6116C49.7168 85.6962 49.0768 85.7981 48.4352 85.8868C48.3256 85.9013 48.2136 85.8843 48.1038 85.8948C47.9472 85.9091 47.7922 85.9387 47.6368 85.9582C47.4155 85.9873 47.1932 86.0196 46.9705 86.0397C46.6806 86.0664 46.3887 86.0933 46.0961 86.1018C45.879 86.1073 45.6597 86.0874 45.4409 86.0777C45.4328 86.078 45.4223 86.0703 45.4183 86.0725C45.1412 86.2937 44.8261 86.1715 44.5224 86.1835C44.2727 86.1923 44.0277 86.2939 43.7774 86.314C43.6257 86.3251 43.4594 86.2756 43.3133 86.2211C43.1787 86.1713 43.225 86.0766 43.3075 85.9958C43.4147 85.8925 43.5154 85.7814 43.6226 85.6802C43.6552 85.6513 43.7053 85.6289 43.749 85.6221C43.9692 85.5919 44.1919 85.5699 44.4235 85.5423ZM51.103 84.8207C51.2094 84.8267 51.304 84.8454 51.3966 84.8387C51.6653 84.8179 51.9346 84.7878 52.203 84.7609C52.266 84.7543 52.3312 84.7517 52.3918 84.735C52.5877 84.6823 52.7782 84.5697 52.9703 84.755C53.001 84.7834 53.0961 84.7612 53.1556 84.7436C53.3038 84.6959 53.3754 84.6481 53.2289 84.4794C53.0824 84.3106 52.9274 84.3402 52.7617 84.358C52.3509 84.3988 51.9406 84.4497 51.53 84.4945C51.5077 84.4975 51.4817 84.4852 51.459 84.48C51.1258 84.4177 51.1209 84.423 51.105 84.8206L51.103 84.8207ZM53.404 84.649C53.6154 84.6774 53.7931 84.7061 53.9722 84.7184C54.0029 84.7192 54.0625 84.6526 54.0671 84.6136C54.0816 84.4916 53.8181 84.2795 53.6497 84.2555C53.4352 84.2242 53.4801 84.3796 53.4623 84.4967C53.4566 84.5347 53.4356 84.5702 53.4051 84.65L53.404 84.649ZM50.8526 84.8643C50.8781 84.8643 50.9047 84.8653 50.9282 84.8654C50.9493 84.7809 51.0018 84.6879 50.9806 84.6173C50.9665 84.5689 50.841 84.5198 50.7741 84.5306C50.6127 84.5543 50.4558 84.6116 50.2407 84.6701C50.3501 84.7535 50.4314 84.8463 50.5315 84.876C50.5791 84.8904 50.6615 84.782 50.7377 84.7209C50.7657 84.7565 50.8097 84.8109 50.8506 84.8644L50.8526 84.8643ZM71.2651 82.405C71.2662 82.4315 71.2694 82.46 71.2704 82.4865C71.4967 82.4775 71.7229 82.4686 71.9766 82.4575C71.7834 82.2437 71.5085 82.2351 71.2651 82.405ZM44.6087 85.6034C44.7628 85.5789 44.8727 85.5684 44.9798 85.5417C45.0233 85.5308 45.0603 85.4865 45.1 85.4584C45.0634 85.4108 45.0232 85.3226 44.9896 85.325C44.8369 85.3351 44.6861 85.3686 44.5169 85.3988C44.5582 85.49 44.5896 85.5602 44.6087 85.6034ZM69.9438 82.985C69.7695 83.0674 69.6383 83.1308 69.5 83.1955C69.7622 83.3984 69.878 83.3581 69.9438 82.985ZM48.2727 81.7288C48.3143 81.6965 48.3579 81.6641 48.3995 81.6319C48.3441 81.5473 48.2877 81.4618 48.2322 81.3752C48.1726 81.4163 48.1129 81.4554 48.0522 81.4956C48.1257 81.5733 48.2002 81.65 48.2727 81.7288ZM51.3795 83.5798C51.2099 83.3446 51.0586 83.3384 50.7896 83.5807C51.0141 83.58 51.1753 83.5797 51.3795 83.5798ZM53.355 83.3332C53.2343 83.3023 53.133 83.2696 53.0283 83.2533C52.9912 83.2466 52.9433 83.273 52.9085 83.2958C52.8976 83.3034 52.9049 83.3592 52.921 83.38C53.0039 83.488 53.2711 83.458 53.356 83.3322L53.355 83.3332ZM48.9092 83.6266C48.9085 83.6592 48.9098 83.6919 48.911 83.7245C49.0494 83.8149 49.188 83.9136 49.3451 83.6032C49.1659 83.6123 49.0375 83.6194 48.9092 83.6266ZM54.3208 84.5005C54.3084 84.5479 54.2949 84.5944 54.2815 84.6408C54.3614 84.6499 54.4505 84.6831 54.5169 84.6581C54.5682 84.6387 54.6145 84.544 54.612 84.4828C54.6127 84.4481 54.5124 84.3888 54.4583 84.3899C54.4124 84.3907 54.3662 84.4619 54.3208 84.5005ZM49.8029 84.6466C49.9328 84.7313 50.0449 84.8054 50.157 84.8775L50.2124 84.7814C50.0986 84.7176 49.9859 84.6547 49.8732 84.5918C49.8701 84.5909 49.8623 84.6014 49.8029 84.6466ZM52.2247 83.5811C52.1227 83.3259 51.9827 83.2691 51.7777 83.3763C51.9222 83.443 52.0594 83.505 52.2247 83.5811ZM72.7658 82.3599C72.5803 82.3928 72.4192 82.4226 72.2186 82.4592C72.4764 82.6286 72.6317 82.5561 72.7658 82.3599Z" fill="white"/>
</g>
</g>
</g>
<mask id="mask5_26_3849" style="mask-type:luminance" maskUnits="userSpaceOnUse" x="49" y="44" width="30" height="29">
<path d="M49.2969 51.1875L55.3104 44.6784L78.3636 65.9764L72.3501 72.4855L49.2969 51.1875Z" fill="white"/>
</mask>
<g mask="url(#mask5_26_3849)">
<mask id="mask6_26_3849" style="mask-type:luminance" maskUnits="userSpaceOnUse" x="31" y="27" width="67" height="64">
<path d="M31.0749 42.3743L84.3057 27.7112L97.6936 76.3136L44.4637 90.9757L31.0749 42.3743Z" fill="white"/>
</mask>
<g mask="url(#mask6_26_3849)">
<mask id="mask7_26_3849" style="mask-type:luminance" maskUnits="userSpaceOnUse" x="31" y="27" width="67" height="64">
<path d="M31.0749 42.3743L84.3057 27.7112L97.6936 76.3136L44.4637 90.9757L31.0749 42.3743Z" fill="white"/>
</mask>
<g mask="url(#mask7_26_3849)">
<path d="M69.0885 63.5037C68.9197 63.8543 68.7573 63.6709 68.5744 63.5648C68.1033 63.2905 67.6158 63.0444 67.1495 62.7649C66.8139 62.5628 66.4974 62.3273 66.175 62.1002C65.7718 61.816 65.3988 61.495 64.9432 61.2803C64.7187 61.1769 64.5273 60.9844 64.3478 60.8068C64.2332 60.695 64.13 60.5388 64.2794 60.341C64.3167 60.3814 64.3416 60.4181 64.3742 60.4424C64.4152 60.4724 64.4611 60.4971 64.5087 60.5136C64.518 60.5163 64.5648 60.4614 64.5592 60.4483C64.5379 60.4012 64.5103 60.3482 64.4713 60.316C64.3406 60.213 64.2051 60.1153 64.0686 60.0186C64.0392 59.9973 63.9821 59.9741 63.9643 59.987C63.9325 60.0107 63.9049 60.0598 63.9024 60.1007C63.8956 60.1867 63.9062 60.2731 63.9087 60.3618C64.1093 60.3763 64.1428 60.4485 64.0215 60.6605C63.7871 60.5656 63.7648 60.3624 63.7574 60.1514C63.7538 60.0597 63.7522 59.9679 63.7496 59.8771C63.6447 59.8823 63.5388 59.8885 63.4227 59.8952C63.5013 60.0503 63.5623 60.1714 63.6453 60.3365C63.437 60.307 63.2717 60.3349 63.1928 60.1462C63.1826 60.1211 63.1512 60.1019 63.1252 60.0896C62.9362 60.0073 62.7462 59.926 62.5592 59.8436C62.3182 59.7368 62.059 59.6603 61.846 59.5146C61.634 59.3678 61.3206 59.3139 61.2702 58.9688C61.2576 58.8826 61.1034 58.7539 61.0147 58.7544C60.6952 58.7538 60.4539 58.6153 60.1923 58.4542C59.9809 58.3217 59.7206 58.2697 59.5629 58.0494C59.0556 58.0225 58.7163 57.6266 58.2709 57.4605C58.0544 57.3803 57.8412 57.2816 57.6377 57.1682C57.5188 57.1035 57.3098 57.0342 57.5329 56.8416C57.5517 56.8256 57.5298 56.7642 57.5272 56.7224C57.4879 56.7372 57.4248 56.7397 57.4135 56.7647C57.304 57.015 57.1472 56.9487 56.9855 56.8347C56.6589 56.6016 56.3419 56.3559 56.0076 56.1354C55.6922 55.9285 55.3565 55.7519 55.0363 55.5523C54.9307 55.4881 54.8444 55.3965 54.7484 55.3177C54.7125 55.2885 54.684 55.2386 54.6448 55.2279C54.2653 55.1306 53.931 54.9611 53.6798 54.6506C53.6583 54.6228 53.6103 54.5962 53.5788 54.6005C53.3787 54.6237 53.2829 54.5509 53.3389 54.314C53.2047 54.3019 53.0882 54.2984 52.9731 54.2784C52.9165 54.2674 52.861 54.2318 52.8146 54.1949C52.8041 54.1871 52.8273 54.1025 52.8495 54.0955C52.9049 54.078 52.9684 54.0837 53.059 54.077C53.111 53.9994 53.1842 53.8883 53.2872 53.7301C53.0653 53.7471 52.9077 53.7605 52.7397 53.7722C52.7364 53.8183 52.7421 53.8589 52.7291 53.892C52.7105 53.9377 52.6774 53.9778 52.6505 54.0197C52.62 53.9719 52.5547 53.9214 52.5592 53.8784C52.6126 53.3975 52.3046 53.0933 52.0384 52.765C51.988 52.7027 51.9425 52.6351 51.8979 52.5664C51.7827 52.3893 51.6585 52.2176 51.5563 52.0328C51.442 51.8271 51.3929 51.5677 51.2366 51.4096C51.0463 51.216 51.0211 50.967 50.8885 50.764C50.8113 50.6435 50.6593 50.5679 50.5952 50.4439C50.5412 50.3429 50.5172 50.1754 50.5666 50.0816C50.6357 49.9452 50.7203 49.7622 50.9695 49.8707C51.1233 49.9381 51.2548 49.985 51.3747 50.1272C51.4988 50.2713 51.7098 50.3406 51.8862 50.4387C51.9102 50.4531 51.9611 50.449 51.9798 50.433C52.2721 50.157 52.5442 50.4045 52.8288 50.4514C53.0384 50.486 53.2731 50.5104 53.4708 50.4515C53.8309 50.3444 54.3084 50.6225 54.3334 50.9971C54.3373 51.0439 54.3727 51.0864 54.3963 51.1416C54.6431 50.8787 54.6889 50.8739 54.9746 51.0534C55.0081 51.0746 55.0455 51.117 55.0771 51.1147C55.5234 51.0695 55.5718 51.4932 55.7878 51.7163C55.8133 51.7419 55.8101 51.79 55.8742 51.8354C55.8987 51.7324 55.9232 51.6293 55.9563 51.4851C55.994 51.5867 56.0168 51.6491 56.0284 51.6833C56.1964 51.6736 56.3471 51.6636 56.4927 51.6548C56.4865 51.8336 56.4818 51.9471 56.4771 52.0606C56.5049 52.0666 56.5327 52.0727 56.5616 52.0797C56.6124 51.9971 56.6632 51.9124 56.7408 51.7858C56.8416 51.8553 56.9389 51.9413 57.0514 52.0001C57.2421 52.0977 57.4442 52.1765 57.6389 52.2718C57.8585 52.3805 58.0732 52.467 58.1443 52.7663C58.2104 53.0433 58.3141 52.7248 58.394 52.7829C58.5931 52.8628 58.8057 52.9218 58.9906 53.0278C59.1149 53.0994 59.2021 53.2388 59.3093 53.3438C59.3528 53.386 59.4231 53.4608 59.4513 53.4494C59.7831 53.322 59.948 53.5962 60.1698 53.7323C60.2148 53.7601 60.2657 53.7816 60.3154 53.8001C60.5859 53.9026 60.8553 54.0063 61.1267 54.1058C61.2583 54.1547 61.4052 54.1805 61.5283 54.2471C61.9385 54.4748 62.3613 54.6867 62.7355 54.9618C63.0131 55.1672 63.3204 55.2979 63.6186 55.4576C63.6843 55.4928 63.7263 55.5728 63.7913 55.6171C64.0428 55.7807 64.2706 56.0442 64.516 56.1315C64.7551 56.2169 64.9976 56.3094 65.2217 56.4261C65.5446 56.5909 65.8488 56.7973 66.1566 56.9913C66.4267 57.1623 66.6949 57.3374 66.9564 57.522C67.0929 57.6187 67.2111 57.7437 67.3428 57.8477C67.4281 57.9147 67.5242 57.9681 67.6163 58.0257C67.6498 58.0468 67.7091 58.0506 67.7214 58.0776C67.855 58.3582 68.1382 58.4745 68.3568 58.6588C68.4857 58.768 68.6467 58.8382 68.7852 58.9348C69.0937 59.1471 69.3935 59.3731 69.705 59.5822C70.33 60.0046 70.9687 60.41 71.5879 60.8408C72.1295 61.2174 72.6576 61.615 73.1818 62.0148C73.3186 62.1196 73.4205 62.2687 73.5428 62.3935C73.5726 62.4249 73.6163 62.4457 73.6558 62.4645C73.7139 62.4887 73.7825 62.4932 73.8338 62.5269C74.1245 62.7267 74.4073 62.9349 74.6979 63.1347C74.7755 63.1867 74.8706 63.2156 74.9482 63.2677C75.1369 63.395 75.3209 63.5295 75.5069 63.6641C75.5237 63.6777 75.5324 63.7172 75.5478 63.7196C76.0097 63.785 76.3033 64.1368 76.6264 64.4077C76.9506 64.6817 77.2169 65.0397 77.4645 65.3902C77.629 65.6266 77.5118 65.8129 77.2213 65.8744C76.8114 65.9611 76.733 66.0969 76.8711 66.4895C76.8975 66.565 76.9382 66.6379 76.9585 66.7136C76.9789 66.7894 77.0006 66.8742 76.9841 66.9474C76.9335 67.1913 76.4245 67.4829 76.1923 67.3921C75.4676 67.1074 74.7505 66.8102 74.0275 66.5173C73.7661 66.4113 73.4981 66.3188 73.2442 66.1961C73.0693 66.1112 72.9132 65.9847 72.6849 65.8365C72.4143 65.887 71.7042 65.5058 71.6624 65.2493C71.5451 65.2274 71.4281 65.2371 71.3445 65.1873C71.0006 64.9815 70.674 64.7505 70.3291 64.5457C70.0771 64.3954 69.7965 64.2932 69.5542 64.1303C69.4044 64.0311 69.2978 63.8659 69.1809 63.7225C69.1434 63.6781 69.1316 63.6122 69.0897 63.5087L69.0885 63.5037ZM65.9823 57.6433C65.7631 57.9337 65.7658 57.9754 66.0516 58.1294C66.1277 58.1703 66.2304 58.1611 66.3162 58.1894C66.3783 58.2094 66.4389 58.2458 66.4876 58.2888C66.6832 58.4617 66.8568 58.6692 67.0747 58.8096C67.2516 58.922 67.4158 59.0206 67.5273 59.2081C67.6673 59.4434 67.8458 59.4925 68.0841 59.3769C68.1562 59.4945 68.2097 59.6343 68.3053 59.7305C68.4446 59.871 68.6096 59.99 68.7761 60.0967C68.8127 60.1208 68.9042 60.06 68.9707 60.0369C68.9408 59.9779 68.9267 59.9039 68.8822 59.8649C68.6982 59.7027 68.5095 59.5499 68.3176 59.3963C68.247 59.3409 68.1488 59.309 68.0961 59.2407C67.9586 59.0665 67.8651 58.8467 67.5744 58.9021C67.5359 58.9097 67.4717 58.8347 67.431 58.7873C67.3603 58.7023 67.2964 58.6099 67.2296 58.5207C67.0969 58.3392 66.9479 58.2113 66.7703 58.3398C66.6707 58.1968 66.5809 58.0666 66.4857 57.9316C66.0902 58.2045 66.1522 57.759 65.9843 57.6432L65.9823 57.6433ZM65.7988 58.8601C65.8036 59.112 66.3989 59.6324 66.6109 59.5751C66.4008 59.269 66.1516 59.0329 65.7988 58.8601ZM68.1343 60.5661C68.0837 60.5017 68.0703 60.4717 68.045 60.4522C67.8903 60.3349 67.7367 60.2185 67.5772 60.1084C67.5531 60.092 67.4829 60.0979 67.4714 60.1167C67.4493 60.1512 67.4329 60.2284 67.453 60.245C67.6127 60.3867 67.7774 60.5251 67.9518 60.6488C67.977 60.6662 68.0622 60.6016 68.1343 60.5661ZM54.8691 54.7321C54.8085 54.8509 54.7087 54.961 54.733 55.007C54.7925 55.1189 54.9022 55.2064 55.0044 55.2892C55.0308 55.3116 55.1147 55.2909 55.1545 55.2628C55.1763 55.2477 55.1816 55.174 55.1679 55.1378C55.1294 55.0433 55.082 54.9523 55.0275 54.8667C54.9982 54.8219 54.944 54.7935 54.8691 54.7321ZM59.8572 57.6713C59.9158 57.8374 59.9578 57.9705 60.0118 58.0969C60.0264 58.1301 60.0911 58.1663 60.1214 58.1569C60.1547 58.1485 60.1913 58.0919 60.1938 58.053C60.2039 57.9209 60.1996 57.7874 60.1999 57.6384C60.0971 57.6475 60.0209 57.6556 59.8572 57.6713ZM63.1846 59.9128C63.1403 59.7481 63.099 59.5824 63.0457 59.4212C63.0332 59.39 62.9686 59.3558 62.9341 59.3613C62.9017 59.3666 62.8649 59.4171 62.849 59.4555C62.7407 59.7364 62.9813 59.8055 63.1846 59.9128ZM65.5977 58.8864C65.5523 58.5126 65.4252 58.4737 65.0523 58.3864C65.1849 58.5659 65.3017 58.7327 65.4315 58.8899C65.4528 58.9136 65.5295 58.8901 65.5988 58.8874L65.5977 58.8864ZM58.2002 57.2225C58.2994 57.0981 58.3682 57.0066 58.4713 56.8759C58.3187 56.8646 58.2419 56.8585 58.1867 56.8545C58.1469 56.753 58.1151 56.6706 58.0843 56.5891C58.0521 56.6006 58.0219 56.612 57.9897 56.6235C58.0486 56.7957 58.1095 56.9678 58.1992 57.2235L58.2002 57.2225ZM66.8856 59.6795C66.7968 59.9372 67.063 59.9593 67.1387 60.0921C67.1586 60.1301 67.2743 60.1133 67.346 60.1206C67.3474 60.1042 67.3477 60.0869 67.3481 60.0695C67.2002 59.9447 67.0535 59.8209 66.8856 59.6795ZM62.4687 59.4144C62.5077 59.419 62.5457 59.4246 62.5847 59.4292C62.5927 59.3483 62.6129 59.2648 62.6037 59.1876C62.5981 59.151 62.5357 59.1209 62.4997 59.0876C62.4898 59.1982 62.4787 59.3058 62.4688 59.4164L62.4687 59.4144ZM61.8448 58.9675C61.8223 58.9409 61.8008 58.9152 61.7783 58.8885C61.7038 58.8608 61.6302 58.8321 61.5539 58.8147C61.5478 58.815 61.4991 58.9251 61.5107 58.9338C61.5699 58.9866 61.6403 59.0358 61.7155 59.0543C61.7485 59.0632 61.8001 58.9989 61.8448 58.9675ZM74.801 63.7012C74.7005 63.6888 74.6277 63.6805 74.4902 63.6635C74.6012 63.8112 74.6756 63.9113 74.7768 64.0441C74.7867 63.9079 74.7934 63.8178 74.801 63.7012Z" fill="white"/>
</g>
</g>
</g>
<mask id="mask8_26_3849" style="mask-type:luminance" maskUnits="userSpaceOnUse" x="68" y="28" width="33" height="32">
<path d="M68.375 38.1484L76.8942 28.9272L100.219 50.4758L91.6994 59.697L68.375 38.1484Z" fill="white"/>
</mask>
<g mask="url(#mask8_26_3849)">
<mask id="mask9_26_3849" style="mask-type:luminance" maskUnits="userSpaceOnUse" x="31" y="27" width="67" height="64">
<path d="M31.0749 42.3822L84.3057 27.719L97.6936 76.3214L44.4637 90.9835L31.0749 42.3822Z" fill="white"/>
</mask>
<g mask="url(#mask9_26_3849)">
<mask id="mask10_26_3849" style="mask-type:luminance" maskUnits="userSpaceOnUse" x="31" y="27" width="67" height="64">
<path d="M31.0749 42.3861L84.3057 27.7229L97.6936 76.3253L44.4637 90.9874L31.0749 42.3861Z" fill="white"/>
</mask>
<g mask="url(#mask10_26_3849)">
<path d="M86.1048 52.6636C85.9484 52.3738 85.802 52.0795 85.6317 51.7984C85.4602 51.5143 85.2658 51.2464 85.0706 50.9561C84.9773 51.0231 84.9228 51.063 84.8473 51.117C84.7448 50.9751 84.6096 50.8621 84.7331 50.654C84.7991 50.5422 84.6082 50.1282 84.4567 50.0158C84.4446 50.0439 84.4334 50.0708 84.419 50.0949C84.3902 50.1409 84.3605 50.1901 84.3233 50.2303C84.3165 50.2378 84.2449 50.2089 84.2445 50.1988C84.2463 50.1395 84.2519 50.076 84.2732 50.021C84.3009 49.9465 84.3961 49.8498 84.3741 49.8119C84.3092 49.693 84.2187 49.5721 84.1067 49.502C83.8806 49.3599 83.6789 49.2147 83.6037 48.9391C83.5833 48.8613 83.5222 48.7892 83.4666 48.7261C83.3491 48.5919 83.1996 48.4774 83.109 48.3289C83.0708 48.2661 83.1462 48.1335 83.1688 48.0346C83.1433 47.958 83.099 47.87 83.0872 47.7786C83.0552 47.5369 82.8956 47.3738 82.6521 47.3589C82.4925 47.3489 82.2544 47.0838 82.2251 46.8583C82.3073 46.899 82.3724 46.9454 82.4445 46.9609C82.4867 46.9705 82.5393 46.9326 82.5886 46.9154C82.5655 46.8724 82.5451 46.7946 82.5195 46.7926C82.4129 46.7825 82.3317 46.6132 82.1949 46.7421C82.1821 46.7539 82.0133 46.6411 81.9631 46.5574C81.7457 46.1975 81.5493 45.8256 81.336 45.4635C81.2298 45.283 81.2391 45.156 81.3972 44.9742C81.3179 44.7497 81.2397 44.5283 81.1606 44.3079C81.0688 44.0523 80.9994 43.9999 80.6511 43.9432C80.8509 43.7567 80.7712 43.5731 80.6532 43.3777C80.4629 43.4434 80.4198 43.3328 80.4108 43.1576C80.3929 42.7307 80.2158 42.357 79.9944 41.9993C79.8647 41.7911 79.7589 41.5677 79.6243 41.3648C79.5396 41.2354 79.4209 41.1258 79.2927 40.9798C79.4439 40.391 79.1681 39.9202 78.6474 39.5294C79.0471 39.3136 78.6889 39.0828 78.6458 38.8701C78.6004 38.6515 78.4697 38.4443 78.3477 38.2511C78.3195 38.2073 78.1766 38.2344 78.0641 38.2287C78.065 38.2256 78.0763 38.1496 78.1185 38.1081C78.2375 37.9922 78.2049 37.9445 78.0621 37.8929C77.9689 37.8599 77.8904 37.7854 77.774 37.7074C77.8785 37.6665 77.9479 37.6402 77.9831 37.6256C77.8152 37.4077 77.6435 37.194 77.4816 36.9738C77.4482 36.9272 77.4194 36.8456 77.4359 36.798C77.4962 36.6456 77.436 36.5428 77.3428 36.4312C77.1563 36.2059 77.1341 35.9046 77.0202 35.656C76.8928 35.3773 76.9065 35.0011 76.573 34.8265C76.5198 34.799 76.4582 34.7382 76.4489 34.6844C76.3966 34.3925 76.2165 34.1751 76.0571 33.9395C75.9444 33.7725 75.8872 33.5665 75.8164 33.3754C75.7628 33.2336 75.7785 33.0636 75.5458 33.0391C75.4741 33.0317 75.4223 32.8327 75.3628 32.7207C75.2648 32.5399 75.1608 32.3633 75.0689 32.1802C74.9826 32.0121 74.8584 31.8404 75.0927 31.6464C74.9618 31.5904 74.8652 31.5482 74.7677 31.5072C74.764 31.492 74.7634 31.4778 74.7598 31.4626C74.8219 31.4591 74.8843 31.4618 74.944 31.4482C75.0804 31.4152 75.3126 31.4785 75.2186 31.1913C75.2126 31.1701 75.2801 31.095 75.2996 31.0993C75.5898 31.1827 75.6284 30.922 75.7565 30.7791C75.7946 30.7357 75.8695 30.695 75.9238 30.7C76.1306 30.7163 76.3425 30.7314 76.5408 30.7889C76.6523 30.8212 76.7385 30.9362 76.8365 31.013C77.0132 30.7069 76.9712 30.6014 76.6596 30.4116C76.4221 30.2669 76.52 30.0568 76.6062 29.8381C76.6676 29.8928 76.7173 29.9368 76.766 29.9797C76.7691 29.9551 76.7713 29.9336 76.7744 29.909C76.9943 29.9217 77.2141 29.9304 77.4363 29.9471C77.4731 29.9497 77.5344 29.9749 77.5394 29.9992C77.5992 30.2979 77.9346 30.3387 78.0695 30.5753C78.1967 30.7989 78.4047 30.9734 78.539 31.1936C78.7651 31.5674 78.9532 31.9632 79.1693 32.3435C79.335 32.634 79.5274 32.906 79.6921 33.1975C79.8676 33.507 80.0231 33.8254 80.1867 34.1415C80.2275 34.2185 80.2682 34.2934 80.31 34.3693C80.4077 34.5421 80.5123 34.7094 80.601 34.8876C80.7649 35.2118 80.9299 35.537 81.0737 35.8702C81.203 36.1723 81.2912 36.4913 81.4225 36.7913C81.5032 36.9739 81.6372 37.135 81.739 37.3096C81.785 37.3894 81.8336 37.4814 81.8381 37.57C81.8505 37.8073 81.8823 38.0174 82.0663 38.203C82.1694 38.3081 82.191 38.493 82.2705 38.6961C82.302 38.7428 82.3954 38.835 82.4233 38.9452C82.5067 39.2736 82.6426 39.5622 82.8317 39.8507C83.0469 40.1831 83.1526 40.5852 83.3111 40.9535C83.373 41.099 83.4429 41.2402 83.5189 41.3791C83.6814 41.6686 83.831 41.9679 84.0193 42.2381C84.2217 42.5291 84.3543 42.8362 84.4626 43.1739C84.5337 43.3987 84.773 43.5648 84.9119 43.7736C85.0378 43.9626 85.133 44.1742 85.2389 44.3761C85.2831 44.4601 85.3162 44.5497 85.3664 44.6314C85.5899 44.991 85.8174 45.3484 86.0438 45.7049C86.0525 45.7188 86.0684 45.7335 86.0678 45.7448C85.9896 46.297 86.5439 46.5557 86.6626 47.0267C86.7182 47.245 86.9131 47.4251 87.0375 47.6284C87.127 47.7759 87.2076 47.9289 87.2902 48.0817C87.3023 48.1027 87.3024 48.1323 87.3153 48.1481C87.6605 48.5397 87.7397 49.0724 88.029 49.4948C88.0506 49.5266 88.0738 49.5716 88.1049 49.5826C88.3211 49.6547 88.3146 49.8509 88.3724 50.0221C88.4474 50.2427 88.5538 50.4549 88.674 50.6543C88.8989 51.0251 89.1538 51.3783 89.3717 51.7525C89.4539 51.8952 89.4634 52.0571 89.6078 52.1984C89.7617 52.3464 89.8017 52.6092 89.9137 52.8089C89.9969 52.9526 90.117 53.0734 90.2164 53.2103C90.3449 53.3879 90.4825 53.5641 90.5921 53.7558C90.8017 54.1262 90.9894 54.5097 91.199 54.88C91.2627 54.9939 91.3664 55.0857 91.459 55.1811C91.8166 55.5527 91.9452 56.0427 92.1489 56.496C92.1938 56.5983 92.2537 56.6929 92.3036 56.794C92.3304 56.8501 92.3812 56.9226 92.3657 56.9692C92.2479 57.3198 92.3548 57.6228 92.4992 57.9448C92.5898 58.1443 92.5731 58.392 92.5943 58.6198C92.5975 58.6482 92.5287 58.7163 92.507 58.71C92.436 58.6934 92.3255 58.6621 92.3113 58.6136C92.2663 58.4562 92.1834 58.3717 92.0265 58.3289C91.9729 58.3147 91.9366 58.2243 91.8996 58.1645C91.8418 58.0718 91.788 57.977 91.7268 57.8733C91.6556 57.9312 91.5954 58.0091 91.5674 57.999C91.3302 57.9114 91.1978 58.0483 91.0454 58.1942C90.9097 58.3241 90.7608 58.3279 90.5978 58.1813C90.4962 58.0894 90.3368 58.0599 90.2047 57.9968C90.159 57.9761 90.116 57.9482 90.0781 57.9171C90.0411 57.8869 90.0188 57.8388 89.9821 57.8127C89.7027 57.6135 89.4019 57.4417 89.146 57.217C88.8827 56.9855 88.6563 56.7056 88.4203 56.4425C88.2388 56.2414 88.0672 56.0318 87.8906 55.8255C87.7429 55.6517 87.5902 55.4812 87.4493 55.2999C87.3202 55.1336 87.193 54.963 87.0909 54.7803C87.0579 54.7204 87.1015 54.6115 87.1197 54.5281C87.1363 54.459 87.1684 54.3924 87.1933 54.3251C87.1144 54.317 87.0285 54.2867 86.9548 54.307C86.7407 54.3665 86.7172 54.1602 86.6198 54.0702C86.5488 54.0046 86.5219 53.8913 86.4753 53.7972C86.7362 53.5807 86.7233 53.5904 86.4862 53.3242C86.359 53.1813 86.2929 52.9807 86.1952 52.808C86.1656 52.7551 86.126 52.7087 86.0904 52.6601L86.0946 52.664L86.1048 52.6636Z" fill="white"/>
</g>
</g>
</g>
</g>
<defs>
<clipPath id="clip0_26_3849">
<rect width="256" height="256" fill="white"/>
</clipPath>
</defs>
</svg>
