<svg xmlns="http://www.w3.org/2000/svg" xmlns:xlink="http://www.w3.org/1999/xlink" width="400" zoomAndPan="magnify" viewBox="0 0 300 299.999988" height="400" preserveAspectRatio="xMidYMid meet" version="1.0"><defs><clipPath id="e3425a2a6d"><path d="M 51 24.363281 L 250 24.363281 L 250 274 L 51 274 Z M 51 24.363281 " clip-rule="nonzero"/></clipPath></defs><path fill="#ff0000" d="M 217.464844 77.992188 C 211.664062 59.414062 200.382812 40.691406 180.941406 32.113281 C 171.988281 28.164062 162.308594 25.691406 152.554688 26.007812 C 142.300781 25.691406 132.117188 28.164062 122.6875 32.113281 C 102.222656 40.691406 90.371094 59.414062 84.261719 77.992188 C 74.097656 108.910156 50.523438 225.660156 52.5 239.023438 C 54.484375 252.386719 59.964844 259.425781 64.34375 263.070312 C 70.425781 268.128906 77.269531 271.242188 85.492188 272.238281 C 102.699219 274.332031 121.953125 264.632812 125.902344 248.351562 C 129.011719 235.554688 132.199219 222.75 135.261719 209.917969 C 136.957031 202.804688 143.898438 197.742188 151.9375 197.75 C 152.0625 197.75 152.1875 197.75 152.3125 197.75 C 160.414062 197.75 167.390625 202.894531 169.027344 210.082031 C 171.925781 222.859375 174.945312 235.621094 177.878906 248.363281 C 181.632812 264.644531 199.933594 274.339844 216.289062 272.25 C 224.101562 271.253906 230.601562 268.136719 236.386719 263.082031 C 240.550781 259.433594 245.761719 252.394531 247.644531 239.03125 C 249.53125 225.652344 227.117188 108.910156 217.464844 77.992188 Z M 149.027344 140.835938 C 141.484375 140.835938 135.359375 129.484375 135.359375 115.492188 C 135.359375 101.503906 141.484375 90.152344 149.027344 90.152344 C 156.570312 90.152344 162.695312 101.503906 162.695312 115.492188 C 162.695312 129.484375 156.578125 140.835938 149.027344 140.835938 Z M 149.027344 140.835938 " fill-opacity="1" fill-rule="nonzero"/><g clip-path="url(#e3425a2a6d)"><path fill="#ffffff" d="M 218.75 77.589844 C 213.746094 61.578125 203.222656 40.464844 181.480469 30.882812 C 171.460938 26.457031 161.699219 24.363281 152.59375 24.660156 C 142.9375 24.363281 132.703125 26.457031 122.160156 30.875 C 99.3125 40.445312 88.242188 61.558594 82.96875 77.570312 C 72.859375 108.371094 49.078125 225.128906 51.164062 239.21875 C 53.210938 253.023438 58.992188 260.378906 63.472656 264.105469 C 69.941406 269.484375 77.089844 272.574219 85.324219 273.578125 C 102.0625 275.609375 122.832031 266.671875 127.207031 248.667969 C 128.363281 243.898438 129.53125 239.121094 130.707031 234.351562 C 132.648438 226.449219 134.648438 218.277344 136.570312 210.234375 C 138.117188 203.777344 144.5625 199.097656 151.917969 199.097656 C 151.929688 199.097656 151.9375 199.097656 151.9375 199.097656 L 152.3125 199.097656 C 159.75 199.097656 166.222656 203.839844 167.714844 210.375 C 169.492188 218.199219 171.34375 226.136719 173.128906 233.824219 C 174.277344 238.769531 175.4375 243.71875 176.570312 248.667969 C 180.332031 264.992188 196.945312 273.875 211.898438 273.875 C 213.441406 273.875 214.96875 273.777344 216.457031 273.585938 C 224.308594 272.582031 231.113281 269.484375 237.273438 264.09375 C 241.539062 260.359375 247.035156 253.015625 248.984375 239.21875 C 250.960938 225.167969 228.367188 108.40625 218.75 77.589844 Z M 246.308594 238.84375 C 244.476562 251.820312 239.421875 258.636719 235.496094 262.066406 C 229.75 267.085938 223.410156 269.976562 216.117188 270.910156 C 201.265625 272.816406 182.890625 264.078125 179.191406 248.058594 C 178.050781 243.109375 176.902344 238.160156 175.742188 233.203125 C 173.957031 225.527344 172.105469 217.585938 170.335938 209.773438 C 168.578125 202.023438 160.988281 196.394531 152.3125 196.394531 L 151.9375 196.394531 C 151.929688 196.394531 151.917969 196.394531 151.910156 196.394531 C 143.324219 196.394531 135.773438 201.945312 133.949219 209.59375 C 132.027344 217.640625 130.027344 225.804688 128.09375 233.699219 C 126.925781 238.476562 125.75 243.242188 124.59375 248.019531 C 120.703125 264.058594 101.316406 272.789062 85.65625 270.882812 C 77.949219 269.949219 71.261719 267.050781 65.207031 262.019531 C 61.085938 258.589844 55.761719 251.773438 53.828125 238.808594 C 51.996094 226.449219 74.816406 111.019531 85.539062 78.414062 C 90.628906 62.925781 101.296875 42.539062 123.199219 33.363281 C 133.382812 29.097656 143.253906 27.074219 152.59375 27.363281 C 161.402344 27.074219 170.742188 29.097656 180.394531 33.351562 C 201.210938 42.53125 211.339844 62.914062 216.171875 78.398438 C 225.457031 108.128906 248.203125 225.445312 246.308594 238.84375 Z M 149.027344 88.804688 C 140.605469 88.804688 134.011719 100.523438 134.011719 115.492188 C 134.011719 130.464844 140.605469 142.183594 149.027344 142.183594 C 157.449219 142.183594 164.042969 130.464844 164.042969 115.492188 C 164.042969 100.53125 157.441406 88.804688 149.027344 88.804688 Z M 149.027344 139.488281 C 142.347656 139.488281 136.707031 128.496094 136.707031 115.492188 C 136.707031 102.492188 142.347656 91.5 149.027344 91.5 C 155.707031 91.5 161.347656 102.492188 161.347656 115.492188 C 161.347656 128.496094 155.699219 139.488281 149.027344 139.488281 Z M 149.027344 139.488281 " fill-opacity="1" fill-rule="nonzero"/></g><path fill="#f2eded" d="M 192.410156 80.398438 C 189.589844 71.160156 184.363281 63.328125 177.136719 56.953125 C 170.617188 51.207031 180.179688 41.714844 186.664062 47.425781 C 195.589844 55.292969 201.9375 65.457031 205.402344 76.816406 C 207.9375 85.140625 194.925781 88.671875 192.410156 80.398438 Z M 207.945312 104.589844 C 208.78125 104.320312 209.5 103.855469 210.109375 103.199219 C 210.765625 102.589844 211.230469 101.871094 211.5 101.035156 C 211.921875 100.234375 212.113281 99.367188 212.085938 98.441406 C 212.003906 97.847656 211.921875 97.246094 211.84375 96.652344 C 211.519531 95.511719 210.945312 94.523438 210.109375 93.679688 C 209.652344 93.332031 209.203125 92.980469 208.746094 92.628906 C 207.695312 92.019531 206.5625 91.714844 205.339844 91.714844 L 204.8125 91.714844 C 203.886719 91.679688 203.015625 91.875 202.214844 92.296875 C 201.382812 92.566406 200.664062 93.035156 200.050781 93.691406 C 199.394531 94.300781 198.929688 95.019531 198.660156 95.855469 C 198.238281 96.652344 198.050781 97.523438 198.078125 98.449219 L 198.320312 100.234375 C 198.640625 101.375 199.214844 102.363281 200.050781 103.207031 C 200.511719 103.558594 200.957031 103.910156 201.417969 104.257812 C 202.46875 104.871094 203.597656 105.175781 204.820312 105.175781 L 205.351562 105.175781 C 206.273438 105.203125 207.144531 105.015625 207.945312 104.589844 Z M 136.210938 150.855469 C 133.625 148.953125 131.410156 145.53125 130.457031 142.398438 C 129.398438 138.921875 125.75 136.714844 122.167969 137.691406 C 118.730469 138.636719 116.394531 142.488281 117.460938 145.980469 C 119.554688 152.839844 123.667969 158.273438 129.414062 162.484375 C 132.351562 164.640625 136.929688 162.980469 138.628906 160.070312 C 140.632812 156.65625 139.148438 153.019531 136.210938 150.855469 Z M 234.671875 204.152344 C 232.667969 195.722656 219.671875 199.296875 221.683594 207.738281 C 224.308594 218.789062 224.039062 230.015625 221.003906 240.953125 C 218.683594 249.324219 231.679688 252.886719 233.988281 244.535156 C 237.660156 231.273438 237.847656 217.535156 234.671875 204.152344 Z M 205 253.488281 L 205 253.820312 C 205 262.488281 218.46875 262.503906 218.46875 253.820312 L 218.46875 253.488281 C 218.46875 244.824219 205 244.816406 205 253.488281 Z M 205 253.488281 " fill-opacity="1" fill-rule="nonzero"/></svg>