<svg width="491" height="179" viewBox="0 0 491 179" fill="none" xmlns="http://www.w3.org/2000/svg">
<g clip-path="url(#clip0_26_3848)">
<mask id="mask0_26_3848" style="mask-type:luminance" maskUnits="userSpaceOnUse" x="-8" y="-19" width="504" height="241">
<path d="M495.707 -18.5547H-7.57031V221.822H495.707V-18.5547Z" fill="white"/>
</mask>
<g mask="url(#mask0_26_3848)">
<mask id="mask1_26_3848" style="mask-type:luminance" maskUnits="userSpaceOnUse" x="180" y="-10" width="123" height="203">
<path d="M302.594 -9.32422H180.375V192.282H302.594V-9.32422Z" fill="white"/>
</mask>
<g mask="url(#mask1_26_3848)">
<path d="M261.131 138.769L254.462 115.08L229.93 118.022L228.874 142.646L200.391 146.067L213.776 18.546L250.752 14.1035L294.334 134.782L261.131 138.769ZM230.668 98.6081L249.159 96.3869L233.628 41.9929L232.872 42.0852L230.668 98.6081Z" fill="white"/>
</g>
<mask id="mask2_26_3848" style="mask-type:luminance" maskUnits="userSpaceOnUse" x="283" y="25" width="109" height="197">
<path d="M283.391 25.3848H391.209V221.512H283.391V25.3848Z" fill="white"/>
</mask>
<g mask="url(#mask2_26_3848)">
<mask id="mask3_26_3848" style="mask-type:luminance" maskUnits="userSpaceOnUse" x="283" y="25" width="109" height="197">
<path d="M391.209 25.3848H283.391V221.822H391.209V25.3848Z" fill="white"/>
</mask>
<g mask="url(#mask3_26_3848)">
<path d="M288.445 170.035L318.637 107.033L296.799 45.2891L331.699 47.2564L341.282 90.0424L355.607 48.6007L385.198 50.2623L356.755 109.37L379.504 175.159L344.789 173.208L334.906 128.882L320.321 171.83L288.445 170.035Z" fill="white"/>
</g>
</g>
<mask id="mask4_26_3848" style="mask-type:luminance" maskUnits="userSpaceOnUse" x="-8" y="-1" width="109" height="201">
<path d="M-7.33594 -0.0917969H100.616V199.668H-7.33594V-0.0917969Z" fill="white"/>
</mask>
<g mask="url(#mask4_26_3848)">
<mask id="mask5_26_3848" style="mask-type:luminance" maskUnits="userSpaceOnUse" x="-8" y="-1" width="109" height="201">
<path d="M100.618 -0.0917969H-7.57031V199.668H100.618V-0.0917969Z" fill="white"/>
</mask>
<g mask="url(#mask5_26_3848)">
<path d="M51.5297 150.054C41.3366 151.22 33.2897 150.261 27.3905 147.176C21.4898 144.087 17.1166 139.297 14.2709 132.804C11.428 126.308 9.48945 118.529 8.45529 109.467L33.1888 106.645C34.2071 115.581 35.8441 121.545 38.0985 124.536C40.3515 127.529 43.9963 128.736 49.0316 128.16C53.0586 127.702 55.8539 126.237 57.4203 123.763C58.9852 121.291 59.5449 118.102 59.0992 114.198C58.7256 110.929 58.0333 108.492 57.0222 106.888C56.0097 105.284 54.6856 104 53.0471 103.034C50.7162 101.642 45.0233 99.8072 35.9696 97.5297C31.6426 96.4912 27.7424 95.2782 24.2692 93.8892C20.7961 92.5017 17.946 90.98 15.719 89.3256C12.6799 87.2486 9.99283 84.0812 7.65911 79.8234C5.32105 75.5656 3.79937 70.3529 3.0955 64.1825C1.81902 52.9827 4.1614 43.6319 10.1226 36.1316C16.0882 28.6285 25.0481 24.1933 37.0023 22.8274C46.3171 21.7658 53.8274 22.5028 59.5319 25.0371C65.2393 27.5727 69.611 32.0786 72.6458 38.5548C75.6834 45.0281 77.8209 53.6764 79.0556 64.4998L54.6971 67.2807C53.95 60.7353 53.0024 55.775 51.8528 52.4014C50.7018 49.0292 49.1729 46.8137 47.2661 45.755C45.3622 44.6934 42.9636 44.3285 40.0717 44.6588C36.7946 45.0324 34.3051 46.4329 32.606 48.859C30.9098 51.2864 30.2839 54.4495 30.731 58.3496C31.1464 62.0002 31.8704 64.7234 32.9061 66.5191C33.9402 68.312 35.1518 69.7024 36.5408 70.6904C38.0553 71.6683 40.3342 72.6506 43.3775 73.6386C46.4238 74.628 49.9835 75.655 54.0567 76.7194C58.6492 77.8546 62.4743 78.9811 65.5321 80.1003C68.5899 81.2167 71.4371 82.7067 74.0766 84.5716C81.2537 89.3602 85.4957 97.4821 86.8039 108.936C88.0688 120.01 85.7452 129.261 79.8344 136.692C73.9266 144.121 64.4907 148.575 51.5297 150.054Z" fill="white"/>
</g>
</g>
<mask id="mask6_26_3848" style="mask-type:luminance" maskUnits="userSpaceOnUse" x="262" y="17" width="25" height="24">
<path d="M262.711 17.2617H286.712V40.1547H262.711V17.2617Z" fill="white"/>
</mask>
<g mask="url(#mask6_26_3848)">
<mask id="mask7_26_3848" style="mask-type:luminance" maskUnits="userSpaceOnUse" x="260" y="-19" width="74" height="73">
<path d="M286.73 -18.3477L333.622 10.8009L307.008 53.6157L260.117 24.4671L286.73 -18.3477Z" fill="white"/>
</mask>
<g mask="url(#mask7_26_3848)">
<mask id="mask8_26_3848" style="mask-type:luminance" maskUnits="userSpaceOnUse" x="260" y="-19" width="74" height="73">
<path d="M286.73 -18.3477L333.622 10.8009L307.008 53.6157L260.117 24.4671L286.73 -18.3477Z" fill="white"/>
</mask>
<g mask="url(#mask8_26_3848)">
<path d="M264.088 20.7492C264.219 20.6468 264.297 20.5588 264.161 20.393C264.02 20.2213 264.075 20.1131 264.307 20.0511C264.408 20.0237 264.504 19.9891 264.607 19.966C264.702 19.9458 264.8 19.9372 264.931 19.9199C264.947 19.6732 264.849 19.4367 264.709 19.2117C264.693 19.1857 264.647 19.177 264.636 19.1511C264.506 18.8525 264.356 18.5583 264.259 18.2482C264.176 17.9785 264.317 17.8212 264.601 17.7708C264.693 17.7549 264.776 17.7001 264.901 17.6453C264.869 17.7116 264.843 17.7506 264.835 17.7938C264.829 17.8284 264.835 17.8804 264.858 17.8991C264.881 17.9179 264.939 17.9193 264.965 17.902C265.221 17.7462 265.22 17.7434 265.459 17.7376C265.422 17.7001 265.376 17.6669 265.348 17.6208C265.302 17.5486 265.267 17.4707 265.229 17.3943C265.306 17.3972 265.403 17.3698 265.462 17.4044C266.01 17.726 266.554 18.0535 267.092 18.391C267.48 18.6347 267.859 18.8915 268.234 19.1525C268.308 19.203 268.358 19.2939 268.396 19.379C268.471 19.5549 268.428 19.6602 268.172 19.6141C268.204 19.7064 268.227 19.7713 268.262 19.8751C268.402 19.7482 268.506 19.6545 268.615 19.5549C268.819 19.6804 269.08 19.8261 269.32 20.0021C269.403 20.0627 269.427 20.2011 269.479 20.3035C269.466 20.3266 269.455 20.3497 269.443 20.3728C269.564 20.3684 269.685 20.3612 269.808 20.3627C269.845 20.3627 269.895 20.3785 269.915 20.4045C270.046 20.5848 270.208 20.7247 270.405 20.8285C270.518 20.8877 270.647 20.9569 270.708 21.0579C270.881 21.3463 271.209 21.4329 271.431 21.6536C271.764 21.9853 272.109 22.3055 272.447 22.6315C272.564 22.7411 272.684 22.8478 272.795 22.9632C273.12 23.3036 273.441 23.6483 273.767 23.9887C273.955 24.1849 274.148 24.3782 274.334 24.5758C274.387 24.6335 274.421 24.7099 274.473 24.7691C274.568 24.8801 274.67 24.9854 274.771 25.0893C274.816 25.1369 274.874 25.1715 274.912 25.222C275.192 25.571 275.462 25.9258 275.748 26.2705C275.921 26.4782 276.117 26.6672 276.294 26.872C276.663 27.3018 277.023 27.7374 277.392 28.1658C277.861 28.7124 278.337 29.2533 278.805 29.8014C279.039 30.074 279.254 30.3639 279.491 30.6351C279.666 30.837 279.878 31.0072 280.047 31.2135C280.248 31.4587 280.419 31.727 280.623 32.014C280.689 32.05 280.825 32.0861 280.907 32.1755C281.244 32.5347 281.556 32.9198 281.895 33.2789C282.305 33.7116 282.773 34.0939 283.14 34.5583C283.601 35.1425 284.23 35.5636 284.651 36.1781C284.723 36.2834 284.801 36.3829 284.868 36.4723C284.833 36.5487 284.751 36.654 284.772 36.6872C284.845 36.7954 284.974 36.9641 285.049 36.9497C285.403 36.879 285.423 37.1459 285.521 37.3478C285.57 37.4502 285.635 37.5454 285.693 37.6435C285.846 37.9017 285.998 38.1613 286.156 38.418C286.293 38.643 286.525 38.8147 286.544 39.1089C286.554 39.2676 286.598 39.4248 286.594 39.5806C286.594 39.6556 286.529 39.7652 286.464 39.7912C286.407 39.8142 286.283 39.7666 286.238 39.7104C286.111 39.546 286.017 39.546 285.871 39.696C285.746 39.8258 285.491 39.7681 285.372 39.6022C285.237 39.4147 285.055 39.3657 284.833 39.3498C284.84 39.4075 284.837 39.4248 284.846 39.4378C284.889 39.5085 284.934 39.5777 284.977 39.6469C284.894 39.6397 284.798 39.657 284.728 39.6224C284.583 39.5546 284.454 39.4594 284.272 39.3469C284.607 39.2359 284.588 39.0166 284.546 38.7656C284.343 38.832 284.239 38.7498 284.135 38.5709C284.018 38.3719 283.826 38.2161 283.662 38.0459C283.639 38.0228 283.59 38.0228 283.519 38.0012C283.678 38.2738 283.91 38.3935 283.875 38.6632C283.872 38.6892 283.966 38.7584 284.009 38.7555C284.244 38.7382 284.229 38.956 284.317 39.0729C284.32 39.0758 284.242 39.1709 284.204 39.1681C283.995 39.1536 283.799 39.1075 283.789 38.9315C283.6 38.7801 283.47 38.6632 283.329 38.5637C283.226 38.4916 283.099 38.4527 282.998 38.3777C282.336 37.8844 281.677 37.3853 281.015 36.8891C280.754 36.6944 280.487 36.5069 280.225 36.3122C279.743 35.9516 279.257 35.5982 278.785 35.2261C278.446 34.9578 278.127 34.665 277.8 34.3823C277.601 34.2093 277.401 34.0333 277.201 33.8602C276.789 33.5039 276.369 33.1578 275.965 32.7929C275.58 32.4453 275.212 32.0789 274.836 31.7226C274.569 31.4702 274.297 31.2265 274.034 30.9697C273.927 30.8659 273.841 30.7404 273.744 30.625C273.725 30.6005 273.714 30.5587 273.689 30.5486C273.286 30.3885 273.059 30.0264 272.763 29.7408C272.411 29.4019 272.052 29.0687 271.705 28.7225C271.295 28.3158 270.894 27.9004 270.495 27.485C270.424 27.4114 270.391 27.2989 270.316 27.2355C270.195 27.1316 270.034 27.071 269.922 26.9614C269.747 26.7898 269.606 26.5821 269.432 26.4076C269.231 26.2028 269.009 26.0152 268.797 25.8205C268.553 25.5984 268.317 25.3676 268.064 25.1556C267.567 24.7416 267.057 24.3407 266.557 23.9296C266.472 23.8589 266.408 23.7652 266.326 23.6916C266.209 23.5863 266.082 23.4926 265.963 23.3916C265.791 23.2488 265.617 23.1075 265.451 22.9575C265.234 22.7627 265.016 22.5666 264.812 22.3574C264.66 22.2017 264.526 22.0271 264.385 21.8598C264.379 21.8541 264.378 21.8411 264.373 21.8396C264.023 21.7863 263.899 21.4718 263.684 21.2569C263.508 21.0795 263.267 20.9685 263.082 20.7983C262.971 20.6944 262.895 20.5386 262.836 20.3944C262.781 20.2617 262.882 20.2314 262.997 20.2372C263.146 20.2458 263.296 20.2444 263.443 20.2545C263.486 20.2588 263.537 20.2804 263.571 20.3079C263.743 20.4492 263.91 20.5978 264.088 20.7492ZM269.15 25.1657C269.218 25.2479 269.269 25.3301 269.336 25.3936C269.534 25.5768 269.739 25.7542 269.941 25.933C269.988 25.9749 270.034 26.021 270.088 26.0542C270.259 26.1624 270.471 26.2258 270.466 26.4927C270.466 26.5345 270.546 26.5893 270.6 26.621C270.735 26.6975 270.819 26.7177 270.844 26.4955C270.868 26.2734 270.741 26.1797 270.616 26.0701C270.307 25.796 269.991 25.5292 269.68 25.258C269.662 25.2436 269.654 25.2162 269.642 25.196C269.462 24.909 269.455 24.909 269.152 25.1671L269.15 25.1657ZM270.838 26.7393C270.96 26.9138 271.06 27.0638 271.172 27.2037C271.193 27.2268 271.282 27.2254 271.314 27.2023C271.413 27.1302 271.39 26.7927 271.294 26.6528C271.171 26.4739 271.087 26.6124 270.989 26.6787C270.958 26.7004 270.917 26.709 270.838 26.7407V26.7393ZM268.948 25.0114C268.966 25.0301 268.983 25.0503 268.999 25.0676C269.075 25.0258 269.179 25.0013 269.217 24.9378C269.243 24.8945 269.194 24.7691 269.14 24.7272C269.013 24.6248 268.865 24.5484 268.676 24.4301C268.689 24.5671 268.676 24.6897 268.722 24.7835C268.744 24.8282 268.879 24.8152 268.976 24.8296C268.969 24.8743 268.958 24.9436 268.947 25.0099L268.948 25.0114ZM284.607 38.3358C284.588 38.3546 284.569 38.3762 284.55 38.395C284.71 38.5551 284.87 38.7152 285.051 38.894C285.077 38.607 284.896 38.3993 284.607 38.3358ZM264.168 20.9266C264.291 21.0233 264.373 21.0968 264.466 21.1574C264.503 21.1819 264.561 21.179 264.608 21.1891C264.618 21.13 264.656 21.0406 264.631 21.0175C264.52 20.9122 264.393 20.8242 264.256 20.7204C264.217 20.8127 264.187 20.8834 264.168 20.9266ZM283.284 37.7589C283.105 37.6868 282.969 37.6334 282.828 37.5757C282.857 37.906 282.965 37.9637 283.284 37.7589ZM269.501 20.9886C269.553 20.9973 269.606 21.0074 269.658 21.016C269.683 20.918 269.707 20.8184 269.733 20.7189C269.662 20.7031 269.593 20.6858 269.522 20.6684C269.515 20.7752 269.509 20.8819 269.501 20.9886ZM270.249 24.5267C270.307 24.2426 270.209 24.1272 269.848 24.094C270.001 24.2585 270.111 24.3767 270.249 24.5267ZM271.771 25.8104C271.712 25.7008 271.667 25.6042 271.608 25.5162C271.588 25.4845 271.536 25.4672 271.496 25.4571C271.483 25.4542 271.447 25.4974 271.442 25.5234C271.419 25.6575 271.622 25.8335 271.772 25.8104H271.771ZM268.539 22.744C268.514 22.7656 268.491 22.7887 268.468 22.8118C268.495 22.9748 268.517 23.1435 268.852 23.0483C268.723 22.9228 268.631 22.8334 268.539 22.744ZM271.569 27.3119C271.526 27.335 271.483 27.3566 271.439 27.3783C271.487 27.4432 271.523 27.5312 271.586 27.5629C271.635 27.5874 271.736 27.5571 271.78 27.5138C271.806 27.4908 271.781 27.3768 271.744 27.3379C271.712 27.3047 271.628 27.3191 271.569 27.3119ZM268.396 24.0926C268.422 24.2455 268.444 24.3782 268.467 24.5094L268.575 24.4849C268.544 24.358 268.514 24.2325 268.484 24.107C268.482 24.1041 268.469 24.1056 268.396 24.0926ZM270.822 25.1484C270.94 24.9003 270.887 24.759 270.669 24.6811C270.718 24.8325 270.766 24.9753 270.822 25.1484ZM285.658 39.4075C285.508 39.2935 285.377 39.1955 285.214 39.0729C285.264 39.3772 285.423 39.4421 285.658 39.4075Z" fill="white"/>
</g>
</g>
</g>
<mask id="mask9_26_3848" style="mask-type:luminance" maskUnits="userSpaceOnUse" x="292" y="1" width="10" height="32">
<path d="M292.625 1.01562H301.487V32.4012H292.625V1.01562Z" fill="white"/>
</mask>
<g mask="url(#mask9_26_3848)">
<mask id="mask10_26_3848" style="mask-type:luminance" maskUnits="userSpaceOnUse" x="260" y="-19" width="74" height="73">
<path d="M286.73 -18.3477L333.622 10.8009L307.008 53.6157L260.117 24.4671L286.73 -18.3477Z" fill="white"/>
</mask>
<g mask="url(#mask10_26_3848)">
<mask id="mask11_26_3848" style="mask-type:luminance" maskUnits="userSpaceOnUse" x="260" y="-19" width="74" height="73">
<path d="M286.73 -18.3477L333.622 10.8009L307.008 53.6157L260.117 24.4671L286.73 -18.3477Z" fill="white"/>
</mask>
<g mask="url(#mask11_26_3848)">
<path d="M297.003 23.9092C296.631 24.0232 296.655 23.7794 296.609 23.5732C296.491 23.0409 296.341 22.5159 296.23 21.9837C296.15 21.6 296.109 21.2077 296.057 20.8168C295.992 20.3279 295.974 19.836 295.823 19.3557C295.747 19.1206 295.758 18.8494 295.767 18.597C295.771 18.4369 295.816 18.2552 296.062 18.2307C296.058 18.2855 296.048 18.3288 296.052 18.3691C296.058 18.4196 296.071 18.4701 296.091 18.5163C296.096 18.5249 296.168 18.522 296.173 18.509C296.194 18.4615 296.214 18.4052 296.211 18.3547C296.198 18.1888 296.178 18.023 296.156 17.8571C296.152 17.821 296.13 17.7634 296.109 17.759C296.07 17.7518 296.015 17.7648 295.983 17.7908C295.915 17.8441 295.859 17.9105 295.796 17.9725C295.921 18.1297 295.891 18.2033 295.653 18.2581C295.563 18.0215 295.697 17.8672 295.847 17.7186C295.912 17.6537 295.979 17.5903 296.044 17.5268C295.969 17.4532 295.892 17.3797 295.809 17.2989C295.748 17.4619 295.7 17.5888 295.635 17.7619C295.516 17.5888 295.383 17.4864 295.468 17.3004C295.48 17.2758 295.472 17.2398 295.464 17.2124C295.396 17.0177 295.327 16.8229 295.26 16.6297C295.175 16.3801 295.056 16.1378 295.018 15.8825C294.982 15.6272 294.809 15.3604 295.028 15.0892C295.083 15.0214 295.073 14.821 295.012 14.756C294.796 14.5209 294.734 14.2498 294.675 13.9483C294.629 13.7031 294.49 13.4767 294.545 13.2113C294.22 12.8204 294.281 12.3026 294.101 11.8627C294.013 11.6492 293.941 11.4257 293.886 11.1992C293.853 11.068 293.762 10.8675 294.055 10.9006C294.079 10.9035 294.109 10.8458 294.138 10.8155C294.101 10.7968 294.056 10.7521 294.03 10.7607C293.772 10.8502 293.714 10.6901 293.688 10.4939C293.638 10.0958 293.603 9.69627 293.538 9.30107C293.476 8.92894 293.378 8.56258 293.307 8.1919C293.283 8.07074 293.292 7.94526 293.284 7.82121C293.282 7.77506 293.299 7.72025 293.28 7.68419C293.094 7.33947 292.992 6.97888 293.049 6.58368C293.055 6.54906 293.042 6.49569 293.018 6.4755C292.865 6.34424 292.853 6.22453 293.065 6.10481C292.983 5.99808 292.907 5.9101 292.843 5.81202C292.813 5.76298 292.801 5.69807 292.797 5.63893C292.795 5.62595 292.873 5.58557 292.894 5.59711C292.944 5.62595 292.983 5.67643 293.049 5.73846C293.142 5.72403 293.273 5.7024 293.459 5.67067C293.296 5.51922 293.179 5.41248 293.057 5.2971C293.02 5.32594 292.994 5.35768 292.961 5.37066C292.915 5.38796 292.863 5.39085 292.814 5.3995C292.829 5.34469 292.821 5.26248 292.856 5.23652C293.245 4.94949 293.26 4.51678 293.32 4.0985C293.332 4.01917 293.351 3.93984 293.371 3.86051C293.423 3.6557 293.465 3.448 293.531 3.24751C293.605 3.02395 293.762 2.81192 293.772 2.5898C293.785 2.31864 293.951 2.13113 294.01 1.89603C294.046 1.75756 293.998 1.59458 294.046 1.46332C294.083 1.35515 294.19 1.22389 294.293 1.19649C294.44 1.15466 294.632 1.09264 294.721 1.34938C294.776 1.50804 294.831 1.6364 294.808 1.82103C294.786 2.00997 294.878 2.2119 294.926 2.40806C294.932 2.43547 294.969 2.47008 294.994 2.47297C295.395 2.50037 295.397 2.86817 295.556 3.10905C295.673 3.28646 295.814 3.4754 295.992 3.5807C296.315 3.77253 296.435 4.31197 296.176 4.58457C296.145 4.61919 296.137 4.674 296.113 4.72881C296.473 4.73169 296.508 4.76198 296.57 5.09372C296.577 5.13267 296.572 5.18892 296.595 5.21056C296.931 5.50768 296.652 5.83077 296.635 6.14087C296.634 6.17693 296.596 6.20722 296.606 6.28511C296.698 6.23318 296.791 6.18126 296.919 6.1077C296.87 6.20434 296.84 6.26347 296.823 6.2952C296.944 6.41204 297.053 6.51588 297.159 6.61685C297.023 6.73368 296.936 6.80724 296.85 6.8808C296.864 6.90532 296.879 6.92984 296.893 6.9558C296.988 6.93705 297.085 6.91686 297.231 6.88801C297.248 7.00917 297.251 7.13898 297.284 7.26158C297.342 7.46784 297.421 7.66977 297.483 7.87747C297.552 8.11257 297.635 8.32892 297.463 8.58422C297.304 8.82076 297.609 8.68086 297.62 8.77894C297.697 8.97942 297.798 9.17558 297.845 9.38328C297.877 9.52319 297.834 9.68185 297.829 9.83185C297.828 9.89243 297.821 9.99484 297.848 10.0078C298.167 10.165 298.077 10.4723 298.128 10.7276C298.138 10.7795 298.157 10.8314 298.177 10.8804C298.285 11.1487 298.392 11.417 298.503 11.6838C298.556 11.8136 298.637 11.9391 298.672 12.0747C298.783 12.5305 298.914 12.9848 298.966 13.4464C299.003 13.7897 299.116 14.1041 299.201 14.4315C299.22 14.5036 299.189 14.5887 299.201 14.6666C299.251 14.9623 299.212 15.3085 299.315 15.5479C299.414 15.7816 299.511 16.0224 299.577 16.2662C299.675 16.6152 299.73 16.9787 299.797 17.3364C299.854 17.6508 299.908 17.9667 299.95 18.284C299.971 18.4499 299.96 18.6216 299.973 18.7889C299.981 18.897 300.007 19.0038 300.027 19.1105C300.035 19.1495 300.072 19.1956 300.061 19.223C299.945 19.5115 300.052 19.7985 300.065 20.0841C300.072 20.2529 300.13 20.4187 300.153 20.586C300.206 20.9567 300.244 21.3303 300.301 21.701C300.415 22.4467 300.551 23.1909 300.655 23.9381C300.746 24.5915 300.812 25.2492 300.874 25.9054C300.89 26.0771 300.85 26.253 300.841 26.4276C300.838 26.4708 300.852 26.517 300.865 26.5588C300.887 26.618 300.93 26.6713 300.94 26.7319C300.991 27.081 301.03 27.43 301.08 27.7791C301.095 27.8714 301.138 27.9608 301.152 28.0531C301.187 28.2781 301.213 28.5046 301.24 28.7324C301.242 28.7541 301.219 28.7873 301.227 28.8002C301.493 29.1839 301.434 29.6382 301.454 30.0594C301.473 30.4835 301.39 30.9219 301.301 31.3417C301.239 31.6229 301.023 31.6633 300.78 31.4917C300.438 31.2494 300.286 31.284 300.091 31.6518C300.053 31.7224 300.027 31.8018 299.986 31.8681C299.944 31.9345 299.896 32.008 299.831 32.0455C299.618 32.1739 299.058 31.9979 298.967 31.7657C298.685 31.0402 298.416 30.3118 298.141 29.582C298.041 29.318 297.927 29.0584 297.845 28.7887C297.789 28.6026 297.776 28.4021 297.73 28.1339C297.509 27.9694 297.307 27.1891 297.467 26.9843C297.404 26.8834 297.317 26.804 297.297 26.7088C297.215 26.3165 297.163 25.9199 297.079 25.5275C297.019 25.2405 296.903 24.965 296.859 24.6765C296.83 24.4991 296.879 24.3088 296.905 24.1256C296.912 24.0679 296.952 24.0145 297 23.9135L297.003 23.9092ZM299.199 17.6508C298.837 17.6869 298.809 17.7172 298.889 18.0316C298.911 18.1153 298.987 18.1845 299.025 18.2667C299.052 18.3259 299.067 18.3951 299.068 18.46C299.074 18.7211 299.039 18.9894 299.084 19.2446C299.122 19.4509 299.161 19.6384 299.099 19.8476C299.021 20.1101 299.106 20.2745 299.352 20.3711C299.315 20.5038 299.249 20.638 299.243 20.7735C299.234 20.9711 299.259 21.1731 299.293 21.3678C299.3 21.4111 299.407 21.437 299.469 21.4702C299.492 21.4082 299.537 21.3476 299.536 21.2885C299.53 21.0433 299.514 20.8009 299.497 20.5557C299.489 20.4663 299.446 20.3726 299.461 20.2875C299.495 20.0682 299.593 19.8504 299.355 19.6745C299.324 19.6514 299.335 19.5533 299.342 19.4913C299.357 19.3817 299.381 19.2721 299.401 19.1624C299.445 18.9418 299.437 18.7456 299.223 18.7023C299.26 18.5321 299.295 18.3778 299.329 18.2163C298.861 18.111 299.23 17.8542 299.201 17.6523L299.199 17.6508ZM298.181 18.3417C297.999 18.5163 298.021 19.3067 298.207 19.4235C298.289 19.0615 298.294 18.7182 298.181 18.3417ZM298.513 21.2149C298.526 21.1341 298.539 21.1038 298.536 21.0721C298.517 20.8788 298.499 20.687 298.471 20.4952C298.467 20.4663 298.415 20.4187 298.393 20.4231C298.353 20.4303 298.285 20.4706 298.286 20.4966C298.291 20.7101 298.301 20.925 298.328 21.137C298.333 21.1673 298.438 21.1861 298.513 21.2149ZM293.796 7.51255C293.668 7.54861 293.52 7.55005 293.502 7.59909C293.46 7.71881 293.47 7.85872 293.479 7.98997C293.481 8.02459 293.553 8.07218 293.6 8.08228C293.626 8.08805 293.684 8.04189 293.701 8.00728C293.745 7.91497 293.779 7.81833 293.805 7.72025C293.818 7.66832 293.802 7.60919 293.796 7.51255ZM295.022 13.1709C294.94 13.3267 294.871 13.4478 294.815 13.5733C294.8 13.6065 294.818 13.6786 294.845 13.6945C294.874 13.7132 294.94 13.7017 294.971 13.6772C295.074 13.595 295.17 13.5012 295.279 13.4002C295.203 13.331 295.145 13.2805 295.022 13.1709ZM295.634 17.1359C295.725 16.9917 295.819 16.8489 295.901 16.7003C295.915 16.67 295.897 16.5994 295.869 16.5777C295.843 16.5575 295.781 16.5648 295.742 16.5792C295.462 16.6902 295.575 16.9138 295.634 17.1359ZM298.025 18.2119C298.269 17.9249 298.211 17.8052 298.023 17.472C297.981 17.6912 297.937 17.8903 297.91 18.0922C297.907 18.1239 297.976 18.1643 298.025 18.2134V18.2119ZM294.228 11.6492C294.386 11.6377 294.5 11.6261 294.666 11.6132C294.571 11.4934 294.523 11.4329 294.489 11.3896C294.536 11.2915 294.575 11.2122 294.614 11.1343C294.584 11.1184 294.555 11.104 294.525 11.0881C294.438 11.2482 294.353 11.4098 294.226 11.6492H294.228ZM298.317 19.6961C298.067 19.8057 298.232 20.0163 298.186 20.162C298.171 20.2024 298.262 20.2759 298.305 20.3336C298.318 20.3235 298.331 20.312 298.344 20.3005C298.336 20.1072 298.327 19.9153 298.317 19.6961ZM295.514 16.272C295.537 16.3037 295.559 16.3354 295.582 16.3672C295.647 16.3181 295.722 16.2763 295.772 16.2172C295.796 16.1883 295.775 16.122 295.775 16.0729C295.687 16.1407 295.601 16.2056 295.513 16.2734L295.514 16.272ZM295.419 15.5104C295.423 15.4758 295.428 15.4426 295.432 15.408C295.402 15.3344 295.373 15.2609 295.334 15.1931C295.33 15.1888 295.216 15.2277 295.217 15.2421C295.219 15.3214 295.23 15.4065 295.268 15.4743C295.284 15.5046 295.366 15.4989 295.419 15.5104ZM300.734 28.2392C300.675 28.1569 300.632 28.0978 300.551 27.9853C300.518 28.167 300.495 28.2896 300.466 28.4541C300.573 28.369 300.643 28.3127 300.734 28.2392Z" fill="white"/>
</g>
</g>
</g>
<mask id="mask12_26_3848" style="mask-type:luminance" maskUnits="userSpaceOnUse" x="315" y="6" width="13" height="32">
<path d="M315.141 6.18359H327.695V37.9384H315.141V6.18359Z" fill="white"/>
</mask>
<g mask="url(#mask12_26_3848)">
<mask id="mask13_26_3848" style="mask-type:luminance" maskUnits="userSpaceOnUse" x="260" y="-19" width="74" height="73">
<path d="M286.73 -18.3477L333.622 10.8009L307.008 53.6157L260.117 24.4671L286.73 -18.3477Z" fill="white"/>
</mask>
<g mask="url(#mask13_26_3848)">
<mask id="mask14_26_3848" style="mask-type:luminance" maskUnits="userSpaceOnUse" x="260" y="-19" width="74" height="73">
<path d="M286.73 -18.3477L333.622 10.8009L307.008 53.6157L260.117 24.4671L286.73 -18.3477Z" fill="white"/>
</mask>
<g mask="url(#mask14_26_3848)">
<path d="M316.524 29.052C316.631 28.7404 316.748 28.4332 316.838 28.1173C316.931 27.7986 316.996 27.474 317.076 27.1336C316.964 27.1106 316.898 27.0976 316.807 27.0788C316.841 26.9072 316.833 26.7312 317.069 26.6807C317.196 26.6533 317.371 26.2322 317.35 26.0447C317.322 26.0548 317.294 26.0649 317.267 26.0706C317.213 26.0807 317.157 26.0923 317.102 26.0923C317.092 26.0923 317.065 26.0201 317.072 26.0129C317.117 25.974 317.167 25.935 317.222 25.9134C317.296 25.8831 317.431 25.8875 317.444 25.8456C317.487 25.7173 317.515 25.5687 317.49 25.4389C317.441 25.1764 317.411 24.9297 317.562 24.6874C317.606 24.6196 317.617 24.5259 317.626 24.4422C317.645 24.2648 317.627 24.0773 317.675 23.91C317.695 23.8393 317.844 23.8047 317.932 23.7542C317.971 23.6835 318.005 23.5912 318.064 23.5205C318.22 23.333 318.232 23.1052 318.077 22.9162C317.976 22.7922 318.01 22.4373 318.155 22.2628C318.181 22.3508 318.191 22.4301 318.229 22.4936C318.25 22.5311 318.314 22.5441 318.36 22.5686C318.376 22.5224 318.419 22.4547 318.403 22.4345C318.338 22.3494 318.408 22.1748 318.22 22.1619C318.203 22.1604 318.171 21.9599 318.199 21.8662C318.315 21.4623 318.455 21.0657 318.576 20.6632C318.637 20.4628 318.737 20.3834 318.977 20.3762C319.088 20.1656 319.198 19.9579 319.306 19.7502C319.432 19.5094 319.423 19.4228 319.228 19.1286C319.501 19.1488 319.582 18.9656 319.645 18.7464C319.468 18.6512 319.52 18.5444 319.642 18.4189C319.944 18.1161 320.098 17.7324 320.211 17.3271C320.276 17.0905 320.368 16.8612 320.426 16.6247C320.463 16.4747 320.463 16.3131 320.483 16.1198C321.018 15.8314 321.177 15.3092 321.111 14.6616C321.54 14.8087 321.467 14.389 321.594 14.213C321.724 14.0313 321.787 13.7948 321.846 13.5741C321.859 13.5236 321.742 13.4371 321.67 13.3505C321.673 13.3491 321.737 13.3058 321.796 13.3087C321.962 13.3173 321.975 13.2611 321.915 13.1212C321.877 13.0303 321.878 12.9221 321.856 12.7837C321.957 12.8327 322.024 12.8659 322.058 12.8818C322.104 12.6106 322.145 12.3394 322.197 12.0712C322.208 12.0149 322.249 11.9385 322.295 11.9183C322.448 11.8591 322.482 11.7452 322.501 11.6009C322.54 11.311 322.746 11.0904 322.852 10.8379C322.97 10.5552 323.255 10.31 323.157 9.94657C323.141 9.88887 323.144 9.80233 323.178 9.75906C323.356 9.52252 323.394 9.2427 323.459 8.96577C323.505 8.76961 323.617 8.58787 323.71 8.40613C323.778 8.27055 323.913 8.1667 323.773 7.9792C323.73 7.9215 323.841 7.74842 323.883 7.62871C323.949 7.43399 324.008 7.23783 324.08 7.046C324.145 6.86859 324.187 6.66089 324.489 6.70127C324.441 6.56713 324.406 6.46761 324.37 6.36809C324.379 6.35511 324.389 6.34501 324.398 6.33203C324.442 6.3753 324.483 6.4229 324.533 6.45752C324.65 6.5354 324.761 6.74887 324.908 6.48492C324.92 6.46617 325.021 6.46473 325.031 6.48204C325.167 6.75176 325.384 6.60319 325.576 6.60031C325.634 6.59887 325.715 6.62627 325.748 6.66954C325.876 6.83253 326.009 6.9984 326.101 7.18302C326.153 7.28687 326.127 7.42822 326.137 7.55226C326.482 7.47437 326.531 7.37197 326.459 7.01426C326.404 6.74166 326.625 6.67098 326.844 6.58589C326.845 6.6681 326.847 6.73445 326.848 6.79935C326.869 6.78493 326.886 6.77195 326.906 6.75753C327.046 6.92772 327.189 7.09504 327.327 7.26956C327.35 7.29841 327.373 7.36043 327.359 7.38062C327.18 7.62726 327.378 7.90131 327.295 8.16093C327.218 8.40613 327.231 8.6773 327.16 8.92538C327.039 9.34511 326.876 9.75185 326.743 10.1687C326.642 10.4875 326.573 10.8134 326.47 11.1322C326.362 11.4711 326.234 11.8014 326.113 12.1361C326.084 12.2183 326.056 12.299 326.029 12.3813C325.968 12.5702 325.917 12.7606 325.846 12.9467C325.719 13.2871 325.592 13.6289 325.445 13.9606C325.311 14.2606 325.136 14.5419 325.005 14.8419C324.926 15.0251 324.898 15.2328 324.839 15.4261C324.812 15.514 324.777 15.6121 324.715 15.6756C324.549 15.8458 324.417 16.0117 324.405 16.2727C324.398 16.4198 324.277 16.5612 324.181 16.7574C324.168 16.8122 324.164 16.9434 324.102 17.0386C323.917 17.3228 323.798 17.6184 323.714 17.9531C323.616 18.3367 323.392 18.6872 323.229 19.0536C323.165 19.1978 323.108 19.3449 323.058 19.4949C322.955 19.8108 322.837 20.1238 322.766 20.4455C322.69 20.7916 322.554 21.0974 322.38 21.4061C322.263 21.6109 322.303 21.8993 322.244 22.1431C322.191 22.3638 322.1 22.5773 322.024 22.7922C321.992 22.8816 321.949 22.9667 321.923 23.059C321.81 23.4672 321.702 23.8768 321.594 24.285C321.589 24.3009 321.589 24.3225 321.581 24.3297C321.122 24.647 321.308 25.2297 321.043 25.6365C320.92 25.8254 320.92 26.0908 320.855 26.3202C320.808 26.486 320.75 26.649 320.694 26.8134C320.687 26.8365 320.665 26.8567 320.662 26.8769C320.609 27.3962 320.271 27.8159 320.157 28.3149C320.149 28.3524 320.131 28.4 320.144 28.4303C320.238 28.638 320.089 28.7664 320.003 28.925C319.892 29.1299 319.808 29.352 319.743 29.5755C319.624 29.9924 319.537 30.4193 319.41 30.8333C319.361 30.9905 319.249 31.1073 319.243 31.3093C319.238 31.5227 319.073 31.7304 319.002 31.9482C318.953 32.1069 318.946 32.2771 318.912 32.4429C318.869 32.6579 318.833 32.8785 318.767 33.0891C318.637 33.4944 318.483 33.8925 318.353 34.2978C318.312 34.4219 318.315 34.5603 318.308 34.693C318.278 35.2079 318.005 35.6349 317.811 36.0921C317.766 36.1945 317.737 36.3027 317.697 36.408C317.674 36.4657 317.655 36.5522 317.61 36.5724C317.273 36.7238 317.123 37.008 316.984 37.3325C316.899 37.5345 316.706 37.6902 316.553 37.8604C316.534 37.8821 316.437 37.8777 316.427 37.8575C316.391 37.7941 316.339 37.6917 316.365 37.6484C316.45 37.5085 316.456 37.3902 316.381 37.246C316.355 37.1969 316.397 37.109 316.416 37.0412C316.445 36.9359 316.478 36.832 316.512 36.7166C316.422 36.7037 316.323 36.7123 316.312 36.6849C316.215 36.4512 316.025 36.4469 315.814 36.4339C315.627 36.4224 315.523 36.3157 315.52 36.0964C315.519 35.9594 315.432 35.8224 315.389 35.6825C315.373 35.6349 315.364 35.5844 315.361 35.5354C315.359 35.4878 315.379 35.4387 315.373 35.394C315.33 35.0536 315.252 34.7161 315.243 34.3757C315.234 34.0252 315.286 33.6689 315.32 33.317C315.344 33.0473 315.382 32.779 315.413 32.5093C315.441 32.2828 315.462 32.055 315.5 31.8285C315.535 31.6208 315.573 31.4117 315.638 31.2126C315.66 31.1477 315.77 31.1059 315.843 31.0626C315.905 31.028 315.976 31.0064 316.042 30.979C315.995 30.9155 315.959 30.8318 315.894 30.7915C315.705 30.6746 315.84 30.5174 315.84 30.3847C315.84 30.2881 315.905 30.1914 315.943 30.0934C316.279 30.1381 316.263 30.1352 316.298 29.7804C316.316 29.59 316.419 29.4053 316.479 29.2164C316.498 29.1587 316.505 29.0981 316.517 29.039V29.0448L316.524 29.052Z" fill="white"/>
</g>
</g>
</g>
<mask id="mask15_26_3848" style="mask-type:luminance" maskUnits="userSpaceOnUse" x="292" y="3" width="2" height="2">
<path d="M292.625 3.96875H293.363V4.70723H292.625V3.96875Z" fill="white"/>
</mask>
<g mask="url(#mask15_26_3848)">
<mask id="mask16_26_3848" style="mask-type:luminance" maskUnits="userSpaceOnUse" x="260" y="-19" width="74" height="73">
<path d="M286.73 -18.3477L333.622 10.8009L307.008 53.6157L260.117 24.4671L286.73 -18.3477Z" fill="white"/>
</mask>
<g mask="url(#mask16_26_3848)">
<mask id="mask17_26_3848" style="mask-type:luminance" maskUnits="userSpaceOnUse" x="260" y="-19" width="74" height="73">
<path d="M286.73 -18.3477L333.622 10.8009L307.008 53.6157L260.117 24.4671L286.73 -18.3477Z" fill="white"/>
</mask>
<g mask="url(#mask17_26_3848)">
<path d="M292.831 3.9707C292.835 4.05003 292.841 4.12792 292.845 4.22311C292.937 4.20004 292.991 4.18561 293.044 4.17119C293.056 4.18561 293.066 4.20004 293.077 4.21302C292.962 4.34283 292.846 4.47264 292.732 4.6039L292.672 4.56207C292.701 4.36591 292.73 4.16975 292.758 3.97359C292.781 3.97215 292.806 3.97215 292.829 3.9707H292.831Z" fill="white"/>
</g>
</g>
</g>
<mask id="mask18_26_3848" style="mask-type:luminance" maskUnits="userSpaceOnUse" x="316" y="27" width="1" height="2">
<path d="M316.25 27.5996H316.988V28.3381H316.25V27.5996Z" fill="white"/>
</mask>
<g mask="url(#mask18_26_3848)">
<mask id="mask19_26_3848" style="mask-type:luminance" maskUnits="userSpaceOnUse" x="260" y="-19" width="74" height="73">
<path d="M286.73 -18.3477L333.622 10.8009L307.008 53.6157L260.117 24.4671L286.73 -18.3477Z" fill="white"/>
</mask>
<g mask="url(#mask19_26_3848)">
<mask id="mask20_26_3848" style="mask-type:luminance" maskUnits="userSpaceOnUse" x="260" y="-19" width="74" height="73">
<path d="M286.73 -18.3477L333.622 10.8009L307.008 53.6157L260.117 24.4671L286.73 -18.3477Z" fill="white"/>
</mask>
<g mask="url(#mask20_26_3848)">
<path d="M316.508 28.035C316.532 27.9196 316.557 27.8042 316.581 27.6889C316.609 27.686 316.636 27.6845 316.664 27.6816C316.698 27.7595 316.772 27.8446 316.759 27.9153C316.747 27.9817 316.646 28.0321 316.584 28.0898C316.558 28.0725 316.534 28.0538 316.509 28.0365L316.508 28.035Z" fill="white"/>
</g>
</g>
</g>
<mask id="mask21_26_3848" style="mask-type:luminance" maskUnits="userSpaceOnUse" x="315" y="28" width="2" height="2">
<path d="M315.883 28.709H316.621V29.4475H315.883V28.709Z" fill="white"/>
</mask>
<g mask="url(#mask21_26_3848)">
<mask id="mask22_26_3848" style="mask-type:luminance" maskUnits="userSpaceOnUse" x="260" y="-19" width="74" height="73">
<path d="M286.73 -18.3477L333.622 10.8009L307.008 53.6157L260.117 24.4671L286.73 -18.3477Z" fill="white"/>
</mask>
<g mask="url(#mask22_26_3848)">
<mask id="mask23_26_3848" style="mask-type:luminance" maskUnits="userSpaceOnUse" x="260" y="-19" width="74" height="73">
<path d="M286.73 -18.3477L333.622 10.8009L307.008 53.6157L260.117 24.4671L286.73 -18.3477Z" fill="white"/>
</mask>
<g mask="url(#mask23_26_3848)">
<path d="M316.523 29.0443C316.426 29.0717 316.328 29.0991 316.156 29.1467C316.214 29.0097 316.253 28.913 316.292 28.8164C316.37 28.8943 316.446 28.9707 316.523 29.0486V29.0443Z" fill="white"/>
</g>
</g>
</g>
<mask id="mask24_26_3848" style="mask-type:luminance" maskUnits="userSpaceOnUse" x="383" y="9" width="113" height="199">
<path d="M383.086 9.50781H495.572V207.791H383.086V9.50781Z" fill="white"/>
</mask>
<g mask="url(#mask24_26_3848)">
<mask id="mask25_26_3848" style="mask-type:luminance" maskUnits="userSpaceOnUse" x="383" y="9" width="113" height="199">
<path d="M495.705 9.50781H383.086V207.791H495.705V9.50781Z" fill="white"/>
</mask>
<g mask="url(#mask25_26_3848)">
<path d="M397.344 161.378L418.46 94.7816L388.234 36.6836L423.07 33.77L438.521 74.7963L446.927 31.768L476.46 29.293L456.527 91.7815L488.224 153.762L453.579 156.664L437.621 114.149L429.151 158.712L397.344 161.378Z" fill="white"/>
</g>
</g>
<mask id="mask26_26_3848" style="mask-type:luminance" maskUnits="userSpaceOnUse" x="77" y="10" width="123" height="203">
<path d="M199.938 10.2461H77.7188V212.222H199.938V10.2461Z" fill="white"/>
</mask>
<g mask="url(#mask26_26_3848)">
<path d="M89.9922 154.33L106.043 30.3516L144.484 35.3306L157.535 116.523L157.725 116.547L165.023 37.9903L190.645 41.3077L174.595 165.287L143.509 161.26L125.284 65.2161L125.099 65.1873L115.62 157.648L89.9922 154.33Z" fill="white"/>
</g>
</g>
</g>
<defs>
<clipPath id="clip0_26_3848">
<rect width="491" height="178.067" fill="white"/>
</clipPath>
</defs>
</svg>
