<svg width="4024" height="1460" viewBox="0 0 4024 1460" fill="none" xmlns="http://www.w3.org/2000/svg">
<g clip-path="url(#clip0_49_145)">
<mask id="mask0_49_145" style="mask-type:luminance" maskUnits="userSpaceOnUse" x="-63" y="-153" width="4126" height="1971">
<path d="M4062.58 -152.066H-62.0391V1817.95H4062.58V-152.066Z" fill="white"/>
</mask>
<g mask="url(#mask0_49_145)">
<mask id="mask1_49_145" style="mask-type:luminance" maskUnits="userSpaceOnUse" x="1478" y="-77" width="1002" height="1653">
<path d="M2479.92 -76.418H1478.27V1575.85H2479.92V-76.418Z" fill="white"/>
</mask>
<g mask="url(#mask1_49_145)">
<path d="M2140.1 1137.28L2085.44 943.139L1884.4 967.253L1875.74 1169.06L1642.3 1197.1L1752 151.994L2055.04 115.586L2412.22 1104.61L2140.1 1137.28ZM1890.45 808.145L2041.99 789.941L1914.7 344.154L1908.51 344.91L1890.45 808.145Z" fill="white"/>
</g>
<mask id="mask2_49_145" style="mask-type:luminance" maskUnits="userSpaceOnUse" x="2322" y="208" width="885" height="1608">
<path d="M2322.53 208.041H3206.16V1815.4H2322.53V208.041Z" fill="white"/>
</mask>
<g mask="url(#mask2_49_145)">
<mask id="mask3_49_145" style="mask-type:luminance" maskUnits="userSpaceOnUse" x="2322" y="208" width="885" height="1610">
<path d="M3206.16 208.041H2322.53V1817.94H3206.16V208.041Z" fill="white"/>
</mask>
<g mask="url(#mask3_49_145)">
<path d="M2363.96 1393.53L2611.39 877.194L2432.43 371.168L2718.44 387.292L2796.98 737.945L2914.39 398.309L3156.9 411.926L2923.8 896.344L3110.23 1435.52L2825.73 1419.53L2744.73 1056.26L2625.2 1408.23L2363.96 1393.53Z" fill="white"/>
</g>
</g>
<mask id="mask4_49_145" style="mask-type:luminance" maskUnits="userSpaceOnUse" x="-61" y="-1" width="886" height="1638">
<path d="M-60.125 -0.751953H824.593V1636.39H-60.125V-0.751953Z" fill="white"/>
</mask>
<g mask="url(#mask4_49_145)">
<mask id="mask5_49_145" style="mask-type:luminance" maskUnits="userSpaceOnUse" x="-63" y="-1" width="888" height="1638">
<path d="M824.618 -0.751953H-62.0391V1636.39H824.618V-0.751953Z" fill="white"/>
</mask>
<g mask="url(#mask5_49_145)">
<path d="M422.313 1229.77C338.775 1239.33 272.826 1231.46 224.479 1206.18C176.12 1180.87 140.279 1141.61 116.957 1088.4C93.6581 1035.16 77.7709 971.406 69.2953 897.136L271.999 874.014C280.344 947.244 293.761 996.123 312.237 1020.64C330.701 1045.17 360.572 1055.06 401.839 1050.33C434.843 1046.59 457.751 1034.58 470.589 1014.3C483.415 994.043 488.001 967.907 484.348 935.908C481.287 909.122 475.613 889.145 467.326 876C459.028 862.855 448.177 852.335 434.748 844.415C415.646 833.008 368.989 817.972 294.79 799.307C259.327 790.796 227.363 780.854 198.899 769.471C170.434 758.099 147.076 745.628 128.825 732.07C103.919 715.048 81.8963 689.089 62.7702 654.194C43.6087 619.299 31.1377 576.578 25.3691 526.009C14.9077 434.22 34.1047 357.586 82.9602 296.117C131.851 234.625 205.282 198.276 303.253 187.082C379.592 178.382 441.143 184.422 487.895 205.192C534.67 225.973 570.499 262.901 595.37 315.976C620.264 369.028 637.783 439.906 647.901 528.609L448.271 551.4C442.148 497.757 434.382 457.105 424.96 429.456C415.527 401.819 402.997 383.662 387.37 374.986C371.767 366.286 352.109 363.295 328.408 366.002C301.551 369.064 281.148 380.542 267.223 400.424C253.322 420.319 248.192 446.242 251.856 478.205C255.261 508.124 261.195 530.442 269.682 545.159C278.158 559.852 288.087 571.247 299.471 579.344C311.882 587.359 330.559 595.409 355.501 603.506C380.467 611.615 409.641 620.032 443.023 628.756C480.66 638.059 512.009 647.291 537.069 656.464C562.129 665.613 585.464 677.824 607.096 693.108C665.916 732.353 700.681 798.916 711.403 892.786C721.77 983.546 702.726 1059.36 654.285 1120.27C605.866 1181.14 528.535 1217.65 422.313 1229.77Z" fill="white"/>
</g>
</g>
<mask id="mask6_49_145" style="mask-type:luminance" maskUnits="userSpaceOnUse" x="2153" y="141" width="197" height="189">
<path d="M2153.05 141.469H2349.75V329.089H2153.05V141.469Z" fill="white"/>
</mask>
<g mask="url(#mask6_49_145)">
<mask id="mask7_49_145" style="mask-type:luminance" maskUnits="userSpaceOnUse" x="2131" y="-151" width="604" height="591">
<path d="M2349.9 -150.369L2734.21 88.518L2516.09 439.408L2131.8 200.52L2349.9 -150.369Z" fill="white"/>
</mask>
<g mask="url(#mask7_49_145)">
<mask id="mask8_49_145" style="mask-type:luminance" maskUnits="userSpaceOnUse" x="2131" y="-151" width="604" height="591">
<path d="M2349.9 -150.369L2734.21 88.518L2516.09 439.408L2131.8 200.52L2349.9 -150.369Z" fill="white"/>
</mask>
<g mask="url(#mask8_49_145)">
<path d="M2164.33 170.05C2165.41 169.21 2166.05 168.489 2164.93 167.13C2163.78 165.723 2164.23 164.837 2166.13 164.328C2166.96 164.104 2167.75 163.82 2168.59 163.631C2169.37 163.465 2170.17 163.394 2171.25 163.253C2171.38 161.231 2170.57 159.293 2169.43 157.449C2169.3 157.236 2168.92 157.165 2168.82 156.952C2167.76 154.505 2166.53 152.094 2165.74 149.552C2165.05 147.342 2166.21 146.053 2168.54 145.64C2169.3 145.51 2169.97 145.06 2171 144.611C2170.74 145.155 2170.53 145.474 2170.45 145.829C2170.41 146.112 2170.45 146.538 2170.64 146.692C2170.83 146.845 2171.31 146.857 2171.52 146.715C2173.62 145.439 2173.61 145.415 2175.57 145.368C2175.27 145.06 2174.89 144.788 2174.66 144.41C2174.28 143.819 2174 143.181 2173.68 142.554C2174.32 142.578 2175.11 142.353 2175.6 142.637C2180.09 145.273 2184.55 147.956 2188.95 150.723C2192.13 152.72 2195.24 154.824 2198.32 156.964C2198.92 157.378 2199.33 158.122 2199.64 158.82C2200.26 160.262 2199.9 161.125 2197.81 160.747C2198.07 161.503 2198.26 162.035 2198.54 162.886C2199.69 161.846 2200.54 161.078 2201.44 160.262C2203.1 161.29 2205.24 162.484 2207.22 163.926C2207.89 164.423 2208.09 165.558 2208.52 166.397C2208.41 166.586 2208.32 166.775 2208.22 166.964C2209.22 166.929 2210.21 166.87 2211.21 166.882C2211.52 166.882 2211.92 167.012 2212.09 167.224C2213.16 168.702 2214.49 169.849 2216.11 170.7C2217.03 171.184 2218.09 171.752 2218.59 172.579C2220.01 174.943 2222.69 175.653 2224.51 177.461C2227.24 180.18 2230.07 182.804 2232.85 185.476C2233.8 186.374 2234.78 187.249 2235.69 188.195C2238.35 190.984 2240.99 193.809 2243.66 196.599C2245.2 198.207 2246.78 199.791 2248.31 201.41C2248.74 201.883 2249.02 202.51 2249.44 202.994C2250.22 203.904 2251.06 204.767 2251.89 205.618C2252.25 206.009 2252.73 206.292 2253.05 206.706C2255.34 209.567 2257.55 212.475 2259.89 215.3C2261.31 217.002 2262.92 218.55 2264.37 220.229C2267.4 223.752 2270.34 227.322 2273.37 230.832C2277.21 235.312 2281.11 239.745 2284.95 244.237C2286.87 246.471 2288.63 248.847 2290.57 251.07C2292.01 252.724 2293.75 254.119 2295.13 255.81C2296.77 257.819 2298.18 260.018 2299.85 262.37C2300.39 262.666 2301.5 262.961 2302.17 263.694C2304.94 266.638 2307.49 269.794 2310.27 272.737C2313.63 276.283 2317.47 279.416 2320.47 283.222C2324.26 288.01 2329.41 291.461 2332.86 296.497C2333.45 297.36 2334.09 298.176 2334.63 298.908C2334.35 299.535 2333.68 300.398 2333.85 300.67C2334.45 301.556 2335.51 302.939 2336.12 302.821C2339.02 302.242 2339.19 304.429 2339.99 306.084C2340.39 306.923 2340.92 307.703 2341.4 308.507C2342.65 310.623 2343.9 312.751 2345.19 314.855C2346.31 316.699 2348.22 318.106 2348.37 320.517C2348.45 321.817 2348.82 323.106 2348.78 324.382C2348.78 324.997 2348.25 325.895 2347.72 326.108C2347.25 326.297 2346.23 325.907 2345.86 325.446C2344.82 324.099 2344.06 324.099 2342.86 325.328C2341.83 326.392 2339.74 325.919 2338.77 324.56C2337.66 323.023 2336.17 322.621 2334.35 322.491C2334.41 322.964 2334.39 323.106 2334.46 323.212C2334.81 323.791 2335.18 324.359 2335.53 324.926C2334.85 324.867 2334.07 325.009 2333.49 324.725C2332.31 324.17 2331.24 323.389 2329.75 322.467C2332.49 321.557 2332.34 319.76 2332 317.704C2330.33 318.247 2329.48 317.574 2328.63 316.108C2327.67 314.477 2326.1 313.2 2324.75 311.805C2324.56 311.616 2324.16 311.616 2323.58 311.439C2324.88 313.673 2326.79 314.654 2326.5 316.864C2326.48 317.077 2327.25 317.644 2327.6 317.621C2329.53 317.479 2329.4 319.264 2330.12 320.221C2330.14 320.245 2329.5 321.025 2329.2 321.002C2327.48 320.883 2325.88 320.505 2325.79 319.063C2324.24 317.822 2323.18 316.864 2322.02 316.049C2321.18 315.458 2320.14 315.138 2319.31 314.524C2313.89 310.481 2308.49 306.391 2303.06 302.325C2300.92 300.729 2298.73 299.192 2296.58 297.596C2292.63 294.641 2288.65 291.745 2284.79 288.695C2282.01 286.497 2279.4 284.097 2276.71 281.78C2275.08 280.362 2273.44 278.919 2271.81 277.501C2268.43 274.581 2264.99 271.744 2261.68 268.754C2258.52 265.905 2255.51 262.902 2252.42 259.982C2250.23 257.914 2248 255.916 2245.85 253.812C2244.97 252.961 2244.26 251.932 2243.47 250.987C2243.32 250.786 2243.22 250.443 2243.02 250.36C2239.71 249.048 2237.86 246.081 2235.43 243.741C2232.55 240.963 2229.61 238.232 2226.76 235.395C2223.4 232.062 2220.11 228.657 2216.84 225.253C2216.26 224.65 2215.99 223.728 2215.37 223.208C2214.38 222.357 2213.07 221.86 2212.15 220.962C2210.72 219.555 2209.56 217.853 2208.13 216.423C2206.48 214.744 2204.66 213.207 2202.93 211.612C2200.93 209.791 2198.99 207.9 2196.92 206.162C2192.84 202.77 2188.67 199.483 2184.57 196.115C2183.87 195.535 2183.35 194.767 2182.68 194.164C2181.72 193.301 2180.68 192.533 2179.7 191.705C2178.29 190.535 2176.86 189.377 2175.5 188.147C2173.73 186.551 2171.94 184.944 2170.27 183.23C2169.02 181.953 2167.93 180.523 2166.77 179.152C2166.72 179.104 2166.71 178.998 2166.67 178.986C2163.8 178.549 2162.78 175.972 2161.02 174.211C2159.58 172.757 2157.61 171.846 2156.09 170.451C2155.18 169.6 2154.56 168.324 2154.07 167.142C2153.62 166.054 2154.45 165.806 2155.39 165.853C2156.61 165.924 2157.84 165.912 2159.05 165.995C2159.4 166.031 2159.82 166.208 2160.1 166.432C2161.51 167.591 2162.88 168.808 2164.33 170.05ZM2205.82 206.245C2206.38 206.919 2206.79 207.593 2207.35 208.113C2208.97 209.614 2210.65 211.068 2212.3 212.534C2212.69 212.876 2213.07 213.255 2213.51 213.527C2214.91 214.413 2216.65 214.933 2216.6 217.12C2216.6 217.463 2217.27 217.912 2217.7 218.172C2218.81 218.799 2219.5 218.964 2219.7 217.144C2219.9 215.323 2218.86 214.555 2217.83 213.657C2215.3 211.411 2212.71 209.224 2210.16 207.002C2210.02 206.883 2209.95 206.659 2209.85 206.493C2208.38 204.141 2208.32 204.141 2205.83 206.257L2205.82 206.245ZM2219.65 219.141C2220.66 220.572 2221.47 221.801 2222.4 222.948C2222.56 223.137 2223.29 223.125 2223.55 222.936C2224.37 222.345 2224.18 219.579 2223.39 218.432C2222.38 216.966 2221.7 218.101 2220.89 218.645C2220.63 218.822 2220.3 218.893 2219.65 219.153V219.141ZM2204.17 204.98C2204.31 205.134 2204.45 205.299 2204.58 205.441C2205.21 205.098 2206.06 204.897 2206.37 204.377C2206.58 204.023 2206.18 202.994 2205.74 202.651C2204.7 201.812 2203.48 201.186 2201.93 200.216C2202.04 201.339 2201.93 202.344 2202.31 203.112C2202.49 203.479 2203.6 203.373 2204.39 203.491C2204.33 203.857 2204.25 204.425 2204.16 204.968L2204.17 204.98ZM2332.49 314.181C2332.34 314.335 2332.19 314.512 2332.03 314.666C2333.35 315.978 2334.66 317.29 2336.14 318.756C2336.35 316.403 2334.87 314.701 2332.49 314.181ZM2164.99 171.504C2166 172.296 2166.67 172.898 2167.43 173.395C2167.74 173.596 2168.21 173.572 2168.6 173.655C2168.68 173.17 2168.99 172.437 2168.79 172.248C2167.88 171.385 2166.84 170.664 2165.71 169.813C2165.4 170.57 2165.15 171.149 2164.99 171.504ZM2321.65 309.453C2320.19 308.862 2319.08 308.424 2317.92 307.951C2318.16 310.658 2319.04 311.131 2321.65 309.453ZM2208.7 172.012C2209.12 172.083 2209.56 172.166 2209.98 172.236C2210.18 171.433 2210.39 170.617 2210.6 169.801C2210.02 169.671 2209.45 169.529 2208.87 169.388C2208.81 170.262 2208.77 171.137 2208.7 172.012ZM2214.83 201.008C2215.3 198.68 2214.5 197.734 2211.54 197.462C2212.8 198.81 2213.7 199.779 2214.83 201.008ZM2227.3 211.529C2226.82 210.631 2226.45 209.839 2225.97 209.117C2225.8 208.857 2225.37 208.716 2225.04 208.633C2224.94 208.609 2224.64 208.964 2224.61 209.177C2224.42 210.276 2226.08 211.718 2227.31 211.529H2227.3ZM2200.81 186.398C2200.61 186.575 2200.42 186.764 2200.23 186.953C2200.46 188.289 2200.63 189.672 2203.38 188.892C2202.32 187.864 2201.57 187.131 2200.81 186.398ZM2225.65 223.834C2225.29 224.024 2224.94 224.201 2224.58 224.378C2224.97 224.91 2225.27 225.631 2225.79 225.891C2226.19 226.092 2227.02 225.844 2227.37 225.489C2227.58 225.3 2227.38 224.366 2227.08 224.047C2226.82 223.775 2226.13 223.893 2225.65 223.834ZM2199.64 197.45C2199.85 198.703 2200.03 199.791 2200.22 200.866L2201.11 200.666C2200.86 199.625 2200.61 198.597 2200.36 197.568C2200.35 197.545 2200.24 197.557 2199.64 197.45ZM2219.52 206.103C2220.49 204.07 2220.05 202.911 2218.27 202.273C2218.67 203.514 2219.06 204.685 2219.52 206.103ZM2341.11 322.964C2339.88 322.03 2338.81 321.226 2337.47 320.221C2337.88 322.716 2339.19 323.248 2341.11 322.964Z" fill="white"/>
</g>
</g>
</g>
<mask id="mask9_49_145" style="mask-type:luminance" maskUnits="userSpaceOnUse" x="2398" y="8" width="73" height="258">
<path d="M2398.21 8.32422H2470.84V265.546H2398.21V8.32422Z" fill="white"/>
</mask>
<g mask="url(#mask9_49_145)">
<mask id="mask10_49_145" style="mask-type:luminance" maskUnits="userSpaceOnUse" x="2131" y="-151" width="604" height="591">
<path d="M2349.9 -150.369L2734.21 88.518L2516.09 439.408L2131.8 200.52L2349.9 -150.369Z" fill="white"/>
</mask>
<g mask="url(#mask10_49_145)">
<mask id="mask11_49_145" style="mask-type:luminance" maskUnits="userSpaceOnUse" x="2131" y="-151" width="604" height="591">
<path d="M2349.9 -150.369L2734.21 88.518L2516.09 439.408L2131.8 200.52L2349.9 -150.369Z" fill="white"/>
</mask>
<g mask="url(#mask11_49_145)">
<path d="M2434.09 195.949C2431.04 196.882 2431.25 194.885 2430.87 193.194C2429.9 188.832 2428.67 184.53 2427.76 180.168C2427.11 177.023 2426.77 173.808 2426.34 170.605C2425.81 166.597 2425.67 162.567 2424.43 158.63C2423.8 156.703 2423.89 154.481 2423.96 152.412C2424 151.1 2424.37 149.611 2426.39 149.41C2426.35 149.859 2426.27 150.214 2426.3 150.545C2426.35 150.958 2426.46 151.372 2426.62 151.75C2426.66 151.821 2427.25 151.798 2427.3 151.691C2427.46 151.301 2427.63 150.84 2427.61 150.427C2427.5 149.067 2427.33 147.708 2427.16 146.348C2427.12 146.053 2426.94 145.58 2426.77 145.545C2426.45 145.485 2426 145.592 2425.74 145.805C2425.18 146.242 2424.72 146.786 2424.2 147.294C2425.23 148.582 2424.98 149.185 2423.03 149.635C2422.3 147.696 2423.4 146.431 2424.63 145.214C2425.16 144.682 2425.7 144.162 2426.23 143.641C2425.62 143.039 2424.99 142.436 2424.31 141.774C2423.81 143.109 2423.42 144.15 2422.89 145.568C2421.91 144.15 2420.82 143.31 2421.52 141.786C2421.61 141.585 2421.55 141.289 2421.48 141.064C2420.93 139.469 2420.36 137.873 2419.82 136.289C2419.12 134.244 2418.14 132.258 2417.83 130.166C2417.53 128.073 2416.12 125.886 2417.91 123.664C2418.36 123.109 2418.28 121.466 2417.78 120.934C2416.01 119.007 2415.5 116.784 2415.02 114.314C2414.64 112.304 2413.5 110.448 2413.95 108.273C2411.29 105.07 2411.79 100.826 2410.31 97.221C2409.59 95.4715 2409 93.6393 2408.55 91.7834C2408.28 90.7077 2407.53 89.0646 2409.93 89.3365C2410.13 89.3601 2410.38 88.8873 2410.62 88.6391C2410.31 88.4854 2409.94 88.119 2409.73 88.1899C2407.62 88.9228 2407.14 87.6107 2406.93 86.003C2406.52 82.7405 2406.23 79.4661 2405.7 76.2272C2405.19 73.1774 2404.39 70.1749 2403.81 67.137C2403.61 66.144 2403.68 65.1156 2403.62 64.099C2403.6 63.7208 2403.74 63.2716 2403.59 62.976C2402.06 60.1509 2401.22 57.1957 2401.69 53.9567C2401.74 53.673 2401.63 53.2357 2401.43 53.0702C2400.18 51.9945 2400.09 51.0134 2401.82 50.0322C2401.15 49.1575 2400.52 48.4364 2400 47.6326C2399.76 47.2307 2399.66 46.6988 2399.63 46.2141C2399.61 46.1077 2400.25 45.7767 2400.42 45.8713C2400.83 46.1077 2401.15 46.5214 2401.69 47.0297C2402.45 46.9115 2403.53 46.7342 2405.05 46.4742C2403.72 45.233 2402.76 44.3582 2401.75 43.4126C2401.46 43.649 2401.24 43.909 2400.97 44.0154C2400.59 44.1573 2400.17 44.1809 2399.77 44.2518C2399.89 43.8027 2399.83 43.1289 2400.11 42.9161C2403.3 40.5637 2403.42 37.0175 2403.92 33.5895C2404.01 32.9393 2404.16 32.2892 2404.33 31.639C2404.76 29.9605 2405.1 28.2583 2405.64 26.6152C2406.24 24.7829 2407.53 23.0453 2407.62 21.2249C2407.72 19.0025 2409.08 17.4658 2409.57 15.539C2409.86 14.4042 2409.47 13.0685 2409.86 11.9928C2410.17 11.1062 2411.04 10.0305 2411.88 9.80594C2413.09 9.46313 2414.66 8.95484 2415.39 11.0589C2415.84 12.3592 2416.29 13.4113 2416.1 14.9244C2415.93 16.4729 2416.68 18.1278 2417.07 19.7354C2417.12 19.96 2417.43 20.2437 2417.63 20.2674C2420.91 20.492 2420.94 23.5063 2422.24 25.4804C2423.2 26.9343 2424.35 28.4829 2425.81 29.3458C2428.46 30.9179 2429.44 35.3389 2427.32 37.5731C2427.06 37.8568 2427 38.306 2426.8 38.7552C2429.76 38.7788 2430.04 39.027 2430.55 41.7458C2430.61 42.065 2430.56 42.526 2430.75 42.7033C2433.5 45.1384 2431.22 47.7863 2431.08 50.3278C2431.07 50.6233 2430.76 50.8715 2430.84 51.5098C2431.6 51.0843 2432.36 50.6587 2433.41 50.0559C2433.01 50.8479 2432.76 51.3325 2432.62 51.5926C2433.61 52.5501 2434.51 53.4012 2435.37 54.2286C2434.26 55.1861 2433.55 55.789 2432.84 56.3918C2432.96 56.5928 2433.08 56.7937 2433.2 57.0065C2433.98 56.8528 2434.77 56.6874 2435.96 56.4509C2436.1 57.4439 2436.13 58.5078 2436.4 59.5125C2436.87 61.2029 2437.52 62.8578 2438.03 64.56C2438.6 66.4868 2439.27 68.26 2437.87 70.3522C2436.57 72.2909 2439.06 71.1442 2439.15 71.9481C2439.78 73.5911 2440.61 75.1988 2441 76.901C2441.26 78.0476 2440.9 79.3479 2440.87 80.5773C2440.86 81.0737 2440.8 81.913 2441.02 82.0194C2443.63 83.3079 2442.9 85.8257 2443.31 87.918C2443.4 88.3435 2443.55 88.7691 2443.72 89.171C2444.6 91.3697 2445.48 93.5684 2446.39 95.7552C2446.83 96.8191 2447.49 97.8475 2447.77 98.9587C2448.68 102.694 2449.76 106.418 2450.18 110.2C2450.49 113.014 2451.41 115.591 2452.11 118.274C2452.26 118.865 2452.02 119.562 2452.11 120.201C2452.52 122.624 2452.2 125.461 2453.04 127.423C2453.86 129.338 2454.65 131.312 2455.19 133.31C2456 136.171 2456.45 139.149 2456.99 142.081C2457.46 144.658 2457.9 147.247 2458.24 149.847C2458.42 151.207 2458.33 152.613 2458.43 153.985C2458.5 154.871 2458.72 155.746 2458.88 156.621C2458.94 156.94 2459.25 157.318 2459.15 157.543C2458.21 159.907 2459.08 162.259 2459.19 164.6C2459.25 165.983 2459.72 167.342 2459.91 168.713C2460.35 171.751 2460.66 174.813 2461.13 177.851C2462.06 183.962 2463.17 190.062 2464.03 196.185C2464.77 201.54 2465.31 206.93 2465.82 212.309C2465.95 213.715 2465.62 215.157 2465.55 216.588C2465.53 216.942 2465.64 217.321 2465.75 217.663C2465.93 218.148 2466.28 218.585 2466.37 219.082C2466.78 221.943 2467.1 224.803 2467.51 227.664C2467.63 228.42 2467.99 229.153 2468.1 229.91C2468.39 231.754 2468.6 233.61 2468.82 235.477C2468.84 235.655 2468.65 235.927 2468.72 236.033C2470.89 239.177 2470.41 242.901 2470.57 246.353C2470.73 249.828 2470.05 253.421 2469.32 256.861C2468.81 259.166 2467.04 259.497 2465.05 258.091C2462.25 256.105 2461 256.388 2459.4 259.403C2459.1 259.982 2458.88 260.632 2458.54 261.176C2458.2 261.72 2457.81 262.323 2457.28 262.63C2455.53 263.682 2450.94 262.24 2450.19 260.337C2447.88 254.391 2445.68 248.421 2443.42 242.44C2442.61 240.277 2441.67 238.149 2441 235.938C2440.54 234.414 2440.43 232.77 2440.05 230.572C2438.24 229.224 2436.59 222.829 2437.9 221.151C2437.38 220.323 2436.67 219.673 2436.51 218.893C2435.83 215.678 2435.41 212.427 2434.72 209.212C2434.22 206.859 2433.28 204.601 2432.91 202.237C2432.68 200.783 2433.08 199.223 2433.29 197.722C2433.35 197.249 2433.68 196.811 2434.07 195.984L2434.09 195.949ZM2452.1 144.658C2449.13 144.953 2448.89 145.202 2449.56 147.779C2449.73 148.464 2450.36 149.032 2450.67 149.705C2450.89 150.19 2451.01 150.758 2451.02 151.289C2451.07 153.429 2450.79 155.628 2451.15 157.72C2451.46 159.41 2451.78 160.947 2451.27 162.661C2450.63 164.812 2451.33 166.16 2453.35 166.952C2453.04 168.04 2452.5 169.139 2452.45 170.25C2452.38 171.87 2452.58 173.524 2452.87 175.12C2452.93 175.475 2453.8 175.688 2454.31 175.96C2454.5 175.451 2454.86 174.955 2454.85 174.47C2454.8 172.461 2454.67 170.475 2454.53 168.465C2454.47 167.732 2454.12 166.964 2454.24 166.266C2454.52 164.47 2455.32 162.685 2453.37 161.243C2453.11 161.053 2453.21 160.25 2453.27 159.741C2453.39 158.843 2453.59 157.945 2453.75 157.046C2454.11 155.238 2454.05 153.63 2452.29 153.275C2452.59 151.881 2452.88 150.616 2453.16 149.292C2449.32 148.429 2452.35 146.325 2452.11 144.67L2452.1 144.658ZM2443.75 150.32C2442.26 151.75 2442.44 158.228 2443.97 159.186C2444.64 156.219 2444.67 153.405 2443.75 150.32ZM2446.47 173.867C2446.58 173.205 2446.68 172.957 2446.66 172.697C2446.51 171.113 2446.35 169.541 2446.13 167.969C2446.09 167.732 2445.67 167.342 2445.49 167.378C2445.16 167.437 2444.6 167.768 2444.62 167.98C2444.65 169.73 2444.73 171.491 2444.96 173.229C2444.99 173.477 2445.86 173.631 2446.47 173.867ZM2407.82 61.5694C2406.76 61.8649 2405.55 61.8767 2405.41 62.2786C2405.06 63.2597 2405.15 64.4064 2405.22 65.4821C2405.23 65.7658 2405.82 66.1558 2406.21 66.2386C2406.42 66.2859 2406.89 65.9076 2407.04 65.6239C2407.39 64.8674 2407.68 64.0754 2407.89 63.2716C2407.99 62.846 2407.86 62.3614 2407.82 61.5694ZM2417.86 107.942C2417.19 109.219 2416.62 110.212 2416.16 111.24C2416.04 111.512 2416.19 112.103 2416.41 112.233C2416.65 112.387 2417.19 112.293 2417.44 112.092C2418.29 111.418 2419.07 110.649 2419.97 109.822C2419.34 109.255 2418.87 108.841 2417.86 107.942ZM2422.88 140.438C2423.62 139.256 2424.39 138.086 2425.06 136.868C2425.18 136.62 2425.03 136.041 2424.8 135.863C2424.59 135.698 2424.08 135.757 2423.76 135.875C2421.47 136.785 2422.39 138.618 2422.88 140.438ZM2442.48 149.256C2444.47 146.904 2444 145.923 2442.45 143.192C2442.11 144.989 2441.75 146.62 2441.53 148.275C2441.51 148.535 2442.07 148.866 2442.48 149.268V149.256ZM2411.35 95.4715C2412.65 95.3769 2413.59 95.2824 2414.94 95.176C2414.16 94.1949 2413.77 93.6984 2413.49 93.3438C2413.88 92.5399 2414.2 91.8898 2414.52 91.2515C2414.27 91.1214 2414.03 91.0032 2413.79 90.8732C2413.08 92.1853 2412.38 93.5092 2411.34 95.4715H2411.35ZM2444.86 161.42C2442.82 162.318 2444.17 164.044 2443.79 165.238C2443.67 165.569 2444.41 166.172 2444.77 166.645C2444.88 166.562 2444.98 166.467 2445.09 166.373C2445.02 164.789 2444.95 163.217 2444.86 161.42ZM2421.9 133.357C2422.08 133.617 2422.26 133.877 2422.45 134.137C2422.98 133.736 2423.6 133.393 2424.01 132.908C2424.2 132.672 2424.04 132.128 2424.04 131.726C2423.31 132.282 2422.6 132.814 2421.88 133.369L2421.9 133.357ZM2421.12 127.116C2421.15 126.832 2421.19 126.56 2421.22 126.277C2420.97 125.674 2420.74 125.071 2420.42 124.515C2420.38 124.48 2419.45 124.799 2419.46 124.917C2419.47 125.567 2419.57 126.265 2419.87 126.82C2420 127.069 2420.68 127.021 2421.12 127.116ZM2464.68 231.435C2464.19 230.761 2463.84 230.276 2463.17 229.354C2462.9 230.844 2462.71 231.848 2462.48 233.196C2463.35 232.499 2463.93 232.038 2464.68 231.435Z" fill="white"/>
</g>
</g>
</g>
<mask id="mask12_49_145" style="mask-type:luminance" maskUnits="userSpaceOnUse" x="2582" y="50" width="104" height="261">
<path d="M2582.74 50.6777H2685.63V310.925H2582.74V50.6777Z" fill="white"/>
</mask>
<g mask="url(#mask12_49_145)">
<mask id="mask13_49_145" style="mask-type:luminance" maskUnits="userSpaceOnUse" x="2131" y="-151" width="604" height="591">
<path d="M2349.9 -150.369L2734.21 88.518L2516.09 439.408L2131.8 200.52L2349.9 -150.369Z" fill="white"/>
</mask>
<g mask="url(#mask13_49_145)">
<mask id="mask14_49_145" style="mask-type:luminance" maskUnits="userSpaceOnUse" x="2131" y="-151" width="604" height="591">
<path d="M2349.9 -150.369L2734.21 88.518L2516.09 439.408L2131.8 200.52L2349.9 -150.369Z" fill="white"/>
</mask>
<g mask="url(#mask14_49_145)">
<path d="M2594.08 238.096C2594.95 235.543 2595.91 233.025 2596.65 230.436C2597.41 227.824 2597.94 225.164 2598.6 222.375C2597.68 222.185 2597.14 222.079 2596.39 221.925C2596.68 220.519 2596.6 219.077 2598.54 218.663C2599.58 218.438 2601.01 214.987 2600.85 213.45C2600.61 213.533 2600.39 213.615 2600.16 213.663C2599.73 213.745 2599.26 213.84 2598.82 213.84C2598.73 213.84 2598.51 213.249 2598.57 213.19C2598.93 212.871 2599.35 212.551 2599.8 212.374C2600.4 212.126 2601.51 212.161 2601.62 211.819C2601.97 210.766 2602.2 209.549 2602 208.485C2601.59 206.334 2601.34 204.312 2602.59 202.326C2602.94 201.771 2603.04 201.002 2603.11 200.317C2603.26 198.863 2603.12 197.326 2603.51 195.955C2603.67 195.376 2604.89 195.092 2605.61 194.678C2605.93 194.099 2606.22 193.343 2606.7 192.763C2607.98 191.227 2608.07 189.359 2606.81 187.81C2605.98 186.794 2606.25 183.886 2607.44 182.456C2607.66 183.177 2607.74 183.827 2608.05 184.347C2608.22 184.654 2608.74 184.761 2609.12 184.962C2609.25 184.583 2609.61 184.028 2609.48 183.862C2608.95 183.165 2609.51 181.735 2607.98 181.628C2607.83 181.616 2607.57 179.973 2607.8 179.205C2608.76 175.895 2609.9 172.644 2610.9 169.346C2611.39 167.703 2612.21 167.053 2614.18 166.994C2615.09 165.268 2615.99 163.566 2616.88 161.864C2617.91 159.89 2617.83 159.18 2616.24 156.769C2618.47 156.934 2619.14 155.433 2619.66 153.636C2618.2 152.856 2618.63 151.982 2619.63 150.953C2622.1 148.471 2623.37 145.326 2624.29 142.005C2624.82 140.066 2625.58 138.187 2626.05 136.248C2626.36 135.019 2626.36 133.695 2626.52 132.111C2630.91 129.747 2632.21 125.467 2631.67 120.16C2635.19 121.366 2634.59 117.926 2635.63 116.484C2636.69 114.994 2637.21 113.056 2637.69 111.247C2637.8 110.833 2636.84 110.124 2636.25 109.415C2636.28 109.403 2636.8 109.048 2637.28 109.072C2638.64 109.143 2638.75 108.682 2638.26 107.535C2637.94 106.79 2637.95 105.904 2637.78 104.769C2638.6 105.171 2639.15 105.443 2639.43 105.573C2639.81 103.351 2640.14 101.128 2640.57 98.9296C2640.66 98.4686 2640.99 97.8421 2641.37 97.6766C2642.62 97.192 2642.91 96.2581 2643.06 95.076C2643.38 92.7 2645.07 90.8915 2645.93 88.8228C2646.9 86.5059 2649.24 84.4964 2648.44 81.5175C2648.31 81.0447 2648.33 80.3354 2648.6 79.9808C2650.07 78.0422 2650.38 75.749 2650.91 73.4794C2651.29 71.8717 2652.21 70.3823 2652.97 68.8929C2653.52 67.7817 2654.63 66.9306 2653.49 65.3939C2653.13 64.9211 2654.04 63.5026 2654.38 62.5215C2654.93 60.9256 2655.41 59.318 2656 57.7458C2656.54 56.2919 2656.88 54.5897 2659.35 54.9207C2658.96 53.8213 2658.68 53.0057 2658.38 52.1901C2658.45 52.0837 2658.53 52.0009 2658.6 51.8945C2658.97 52.2492 2659.3 52.6392 2659.72 52.9229C2660.67 53.5613 2661.58 55.3108 2662.79 53.1475C2662.88 52.9939 2663.71 52.982 2663.79 53.1239C2664.91 55.3344 2666.69 54.1168 2668.26 54.0932C2668.74 54.0814 2669.4 54.306 2669.67 54.6606C2670.72 55.9964 2671.81 57.3558 2672.57 58.8688C2672.99 59.7199 2672.78 60.8784 2672.86 61.895C2675.69 61.2566 2676.09 60.4173 2675.5 57.4858C2675.05 55.2516 2676.86 54.6724 2678.65 53.975C2678.66 54.6488 2678.68 55.1925 2678.69 55.7245C2678.85 55.6063 2679 55.4999 2679.16 55.3817C2680.31 56.7765 2681.48 58.1478 2682.61 59.5781C2682.8 59.8145 2682.99 60.3228 2682.87 60.4883C2681.41 62.5096 2683.03 64.7556 2682.35 66.8833C2681.71 68.8929 2681.82 71.1152 2681.24 73.1484C2680.25 76.5882 2678.91 79.9217 2677.83 83.3379C2677 85.9503 2676.43 88.6218 2675.59 91.2343C2674.7 94.0121 2673.65 96.7191 2672.66 99.4616C2672.42 100.135 2672.2 100.797 2671.97 101.471C2671.48 103.02 2671.05 104.58 2670.47 106.105C2669.43 108.895 2668.39 111.696 2667.19 114.415C2666.09 116.874 2664.66 119.179 2663.58 121.637C2662.93 123.139 2662.71 124.841 2662.22 126.425C2662 127.146 2661.71 127.95 2661.21 128.47C2659.85 129.865 2658.76 131.224 2658.66 133.364C2658.6 134.569 2657.61 135.728 2656.83 137.335C2656.73 137.785 2656.69 138.86 2656.18 139.641C2654.67 141.969 2653.69 144.393 2653 147.135C2652.2 150.279 2650.37 153.152 2649.03 156.154C2648.5 157.336 2648.04 158.542 2647.62 159.771C2646.78 162.36 2645.81 164.925 2645.24 167.561C2644.61 170.398 2643.5 172.904 2642.07 175.434C2641.11 177.113 2641.44 179.477 2640.96 181.474C2640.52 183.283 2639.77 185.033 2639.15 186.794C2638.89 187.527 2638.53 188.224 2638.32 188.981C2637.4 192.326 2636.51 195.683 2635.63 199.028C2635.59 199.158 2635.59 199.336 2635.52 199.395C2631.76 201.995 2633.28 206.771 2631.11 210.105C2630.1 211.653 2630.1 213.828 2629.57 215.708C2629.18 217.067 2628.71 218.403 2628.25 219.75C2628.19 219.939 2628.01 220.105 2627.99 220.27C2627.55 224.526 2624.79 227.966 2623.85 232.056C2623.78 232.363 2623.64 232.753 2623.75 233.001C2624.51 234.704 2623.3 235.756 2622.59 237.056C2621.68 238.735 2620.99 240.555 2620.46 242.387C2619.48 245.803 2618.77 249.302 2617.73 252.695C2617.33 253.983 2616.4 254.941 2616.36 256.596C2616.32 258.345 2614.96 260.048 2614.38 261.832C2613.98 263.133 2613.92 264.528 2613.65 265.887C2613.3 267.648 2613 269.457 2612.46 271.183C2611.39 274.504 2610.13 277.767 2609.06 281.089C2608.73 282.105 2608.76 283.24 2608.7 284.328C2608.45 288.548 2606.22 292.047 2604.62 295.794C2604.25 296.633 2604.02 297.52 2603.69 298.382C2603.5 298.855 2603.34 299.565 2602.98 299.73C2600.21 300.971 2598.98 303.3 2597.85 305.96C2597.15 307.615 2595.56 308.891 2594.31 310.286C2594.16 310.463 2593.37 310.428 2593.28 310.262C2592.99 309.742 2592.56 308.903 2592.77 308.548C2593.47 307.402 2593.52 306.432 2592.9 305.25C2592.69 304.848 2593.03 304.127 2593.19 303.572C2593.42 302.709 2593.7 301.858 2593.98 300.912C2593.24 300.806 2592.43 300.877 2592.34 300.652C2591.55 298.737 2589.99 298.702 2588.26 298.595C2586.72 298.501 2585.87 297.626 2585.85 295.829C2585.84 294.706 2585.13 293.583 2584.77 292.437C2584.64 292.047 2584.57 291.633 2584.55 291.231C2584.52 290.841 2584.69 290.439 2584.64 290.072C2584.29 287.283 2583.65 284.517 2583.58 281.727C2583.51 278.854 2583.93 275.935 2584.2 273.05C2584.41 270.84 2584.71 268.641 2584.97 266.431C2585.2 264.575 2585.37 262.707 2585.68 260.851C2585.97 259.149 2586.29 257.435 2586.82 255.804C2586.99 255.272 2587.89 254.929 2588.5 254.574C2589 254.291 2589.58 254.113 2590.13 253.889C2589.74 253.369 2589.44 252.683 2588.91 252.352C2587.36 251.395 2588.47 250.106 2588.47 249.019C2588.47 248.227 2589 247.435 2589.31 246.631C2592.07 246.997 2591.94 246.974 2592.22 244.066C2592.37 242.505 2593.21 240.992 2593.71 239.444C2593.86 238.971 2593.92 238.475 2594.02 237.99V238.037L2594.08 238.096Z" fill="white"/>
</g>
</g>
</g>
<mask id="mask15_49_145" style="mask-type:luminance" maskUnits="userSpaceOnUse" x="2398" y="32" width="7" height="7">
<path d="M2398.21 32.5254H2404.26V38.5777H2398.21V32.5254Z" fill="white"/>
</mask>
<g mask="url(#mask15_49_145)">
<mask id="mask16_49_145" style="mask-type:luminance" maskUnits="userSpaceOnUse" x="2131" y="-151" width="604" height="591">
<path d="M2349.9 -150.369L2734.21 88.518L2516.09 439.408L2131.8 200.52L2349.9 -150.369Z" fill="white"/>
</mask>
<g mask="url(#mask16_49_145)">
<mask id="mask17_49_145" style="mask-type:luminance" maskUnits="userSpaceOnUse" x="2131" y="-151" width="604" height="591">
<path d="M2349.9 -150.369L2734.21 88.518L2516.09 439.408L2131.8 200.52L2349.9 -150.369Z" fill="white"/>
</mask>
<g mask="url(#mask17_49_145)">
<path d="M2399.9 32.541C2399.94 33.1912 2399.98 33.8295 2400.02 34.6097C2400.78 34.4205 2401.21 34.3023 2401.65 34.1841C2401.75 34.3023 2401.83 34.4205 2401.92 34.5269C2400.98 35.5908 2400.03 36.6547 2399.1 37.7304L2398.6 37.3876C2398.84 35.7799 2399.07 34.1723 2399.31 32.5647C2399.5 32.5528 2399.7 32.5528 2399.89 32.541H2399.9Z" fill="white"/>
</g>
</g>
</g>
<mask id="mask18_49_145" style="mask-type:luminance" maskUnits="userSpaceOnUse" x="2591" y="226" width="7" height="7">
<path d="M2591.84 226.193H2597.89V232.246H2591.84V226.193Z" fill="white"/>
</mask>
<g mask="url(#mask18_49_145)">
<mask id="mask19_49_145" style="mask-type:luminance" maskUnits="userSpaceOnUse" x="2131" y="-151" width="604" height="591">
<path d="M2349.9 -150.369L2734.21 88.518L2516.09 439.408L2131.8 200.52L2349.9 -150.369Z" fill="white"/>
</mask>
<g mask="url(#mask19_49_145)">
<mask id="mask20_49_145" style="mask-type:luminance" maskUnits="userSpaceOnUse" x="2131" y="-151" width="604" height="591">
<path d="M2349.9 -150.369L2734.21 88.518L2516.09 439.408L2131.8 200.52L2349.9 -150.369Z" fill="white"/>
</mask>
<g mask="url(#mask20_49_145)">
<path d="M2593.95 229.761C2594.15 228.816 2594.35 227.87 2594.55 226.924C2594.77 226.901 2595 226.889 2595.22 226.865C2595.51 227.504 2596.11 228.201 2596 228.78C2595.91 229.324 2595.08 229.738 2594.57 230.211C2594.36 230.069 2594.16 229.915 2593.96 229.773L2593.95 229.761Z" fill="white"/>
</g>
</g>
</g>
<mask id="mask21_49_145" style="mask-type:luminance" maskUnits="userSpaceOnUse" x="2588" y="235" width="7" height="7">
<path d="M2588.82 235.285H2594.87V241.337H2588.82V235.285Z" fill="white"/>
</mask>
<g mask="url(#mask21_49_145)">
<mask id="mask22_49_145" style="mask-type:luminance" maskUnits="userSpaceOnUse" x="2131" y="-151" width="604" height="591">
<path d="M2349.9 -150.369L2734.21 88.518L2516.09 439.408L2131.8 200.52L2349.9 -150.369Z" fill="white"/>
</mask>
<g mask="url(#mask22_49_145)">
<mask id="mask23_49_145" style="mask-type:luminance" maskUnits="userSpaceOnUse" x="2131" y="-151" width="604" height="591">
<path d="M2349.9 -150.369L2734.21 88.518L2516.09 439.408L2131.8 200.52L2349.9 -150.369Z" fill="white"/>
</mask>
<g mask="url(#mask23_49_145)">
<path d="M2594.06 238.034C2593.27 238.258 2592.47 238.483 2591.06 238.873C2591.54 237.75 2591.85 236.958 2592.17 236.166C2592.81 236.804 2593.44 237.431 2594.06 238.069V238.034Z" fill="white"/>
</g>
</g>
</g>
<mask id="mask24_49_145" style="mask-type:luminance" maskUnits="userSpaceOnUse" x="3139" y="77" width="923" height="1626">
<path d="M3139.59 77.9219H4061.47V1702.96H3139.59V77.9219Z" fill="white"/>
</mask>
<g mask="url(#mask24_49_145)">
<mask id="mask25_49_145" style="mask-type:luminance" maskUnits="userSpaceOnUse" x="3139" y="77" width="924" height="1626">
<path d="M4062.56 77.9219H3139.59V1702.96H4062.56V77.9219Z" fill="white"/>
</mask>
<g mask="url(#mask25_49_145)">
<path d="M3256.44 1322.57L3429.5 776.783L3181.78 300.64L3467.28 276.762L3593.9 612.994L3662.79 260.355L3904.84 240.07L3741.47 752.196L4001.25 1260.16L3717.31 1283.94L3586.53 935.514L3517.11 1300.73L3256.44 1322.57Z" fill="white"/>
</g>
</g>
<mask id="mask26_49_145" style="mask-type:luminance" maskUnits="userSpaceOnUse" x="636" y="83" width="1003" height="1657">
<path d="M1638.6 83.9727H636.945V1739.27H1638.6V83.9727Z" fill="white"/>
</mask>
<g mask="url(#mask26_49_145)">
<path d="M737.531 1264.82L869.073 248.746L1184.12 289.552L1291.08 954.97L1292.64 955.159L1352.45 311.349L1562.44 338.537L1430.89 1354.61L1176.13 1321.6L1026.76 534.479L1025.25 534.243L947.564 1292.01L737.531 1264.82Z" fill="white"/>
</g>
</g>
</g>
<defs>
<clipPath id="clip0_49_145">
<rect width="4024" height="1459.35" fill="white"/>
</clipPath>
</defs>
</svg>
