<svg xmlns="http://www.w3.org/2000/svg" xmlns:xlink="http://www.w3.org/1999/xlink" width="400" zoomAndPan="magnify" viewBox="0 0 300 120" height="150" preserveAspectRatio="xMidYMid meet" version="1.0"><defs><g/><clipPath id="a7c189766b"><path d="M 129 0.878906 L 159 0.878906 L 159 55.359375 L 129 55.359375 Z M 129 0.878906 " clip-rule="nonzero"/></clipPath><clipPath id="9259098dc6"><rect x="0" width="30" y="0" height="56"/></clipPath><clipPath id="3779b06d63"><rect x="0" width="285" y="0" height="56"/></clipPath></defs><g transform="matrix(1, 0, 0, 1, 8, 32)"><g clip-path="url(#3779b06d63)"><g clip-path="url(#a7c189766b)"><g transform="matrix(1, 0, 0, 1, 129, 0)"><g clip-path="url(#9259098dc6)"><g fill="#000000" fill-opacity="1"><g transform="translate(3.359052, 40.676021)"><g><path d="M 11.34375 -34.28125 C 9.707031 -34.28125 8.476562 -33.84375 7.65625 -32.96875 C 6.84375 -32.101562 6.4375 -30.742188 6.4375 -28.890625 L 6.4375 -26.984375 C 6.4375 -25.347656 6.828125 -24.09375 7.609375 -23.21875 C 8.390625 -22.34375 9.46875 -21.867188 10.84375 -21.796875 L 15.15625 -21.796875 L 15.15625 -26.046875 L 19.34375 -26.046875 L 19.34375 -21.796875 L 21.203125 -21.796875 L 21.203125 -17.984375 L 19.34375 -17.984375 L 19.34375 -4.84375 C 19.34375 -3.90625 19.378906 -3.046875 19.453125 -2.265625 C 19.523438 -1.484375 19.765625 -0.726562 20.171875 0 L 15.859375 0 C 15.640625 -0.46875 15.472656 -0.929688 15.359375 -1.390625 C 15.253906 -1.847656 15.1875 -2.492188 15.15625 -3.328125 C 14.601562 -2.085938 13.8125 -1.160156 12.78125 -0.546875 C 11.75 0.0664062 10.539062 0.375 9.15625 0.375 C 6.757812 0.375 5.003906 -0.40625 3.890625 -1.96875 C 2.785156 -3.53125 2.234375 -5.671875 2.234375 -8.390625 L 2.234375 -12.09375 C 2.234375 -13.988281 2.585938 -15.632812 3.296875 -17.03125 C 4.003906 -18.425781 5.160156 -19.4375 6.765625 -20.0625 C 5.203125 -20.601562 4.054688 -21.554688 3.328125 -22.921875 C 2.597656 -24.285156 2.234375 -25.925781 2.234375 -27.84375 L 2.234375 -28.71875 C 2.234375 -31.769531 2.96875 -34.101562 4.4375 -35.71875 C 5.914062 -37.34375 8.179688 -38.15625 11.234375 -38.15625 L 17.390625 -38.15625 L 17.390625 -34.28125 Z M 11.171875 -17.984375 C 8.015625 -17.878906 6.4375 -15.953125 6.4375 -12.203125 L 6.4375 -8.71875 C 6.4375 -7.007812 6.796875 -5.707031 7.515625 -4.8125 C 8.242188 -3.925781 9.351562 -3.484375 10.84375 -3.484375 C 12.082031 -3.484375 13.09375 -3.835938 13.875 -4.546875 C 14.65625 -5.253906 15.082031 -6.351562 15.15625 -7.84375 L 15.15625 -17.984375 Z M 11.171875 -17.984375 "/></g></g></g></g></g></g><g fill="#000000" fill-opacity="1"><g transform="translate(1.397337, 36.677855)"><g><path d="M 9.066406 0 C 12.246094 0 13.898438 0.253906 16.015625 0.679688 L 16.269531 -1.1875 C 15.042969 -1.566406 14.746094 -1.652344 13.683594 -1.820312 C 12.921875 -5.59375 12.921875 -7.964844 12.921875 -11.1875 L 17.203125 -10.847656 C 17.414062 -9.660156 17.457031 -9.320312 17.878906 -8.347656 L 19.574219 -8.769531 C 18.898438 -11.058594 18.515625 -13.132812 18.515625 -16.101562 C 18.515625 -17.246094 18.558594 -18.304688 18.644531 -20.167969 L 17.203125 -20.125 C 16.949219 -19.449219 16.90625 -19.277344 16.734375 -18.558594 L 12.753906 -18.429688 C 12.753906 -18.980469 12.753906 -19.449219 12.753906 -19.746094 C 12.753906 -20.421875 12.839844 -21.101562 13.09375 -22.457031 L 21.355469 -22.03125 C 21.523438 -21.3125 21.523438 -21.144531 21.777344 -20.550781 L 23.347656 -20.804688 C 22.457031 -24.617188 22.414062 -27.835938 22.414062 -32.03125 L 21.058594 -32.242188 C 20.847656 -31.480469 20.804688 -31.269531 20.632812 -30.292969 C 18.558594 -29.871094 16.949219 -29.660156 15 -29.660156 C 10.636719 -29.660156 2.964844 -30.082031 0.71875 -30.082031 L 0.59375 -28.558594 L 2.710938 -28.515625 C 3.347656 -23.726562 3.8125 -18.347656 3.8125 -11.355469 C 3.8125 -7.035156 3.472656 -3.941406 2.964844 -1.566406 C 1.863281 -1.355469 1.566406 -1.3125 0.679688 -0.933594 L 0.59375 0.847656 C 3.433594 0.253906 5.464844 0 9.066406 0 Z M 9.066406 0 "/></g></g></g><g fill="#000000" fill-opacity="1"><g transform="translate(25.499054, 36.677855)"><g><path d="M 0.933594 -14.53125 C 0.933594 -6.738281 6.609375 1.1875 16.101562 1.1875 C 20.082031 1.1875 24.617188 -0.761719 27.710938 -3.941406 C 30.507812 -6.777344 31.863281 -10.464844 31.863281 -14.789062 C 31.863281 -23.726562 25.378906 -30.886719 16.949219 -30.886719 C 7.542969 -30.886719 0.933594 -24.617188 0.933594 -14.53125 Z M 10.210938 -15 C 10.210938 -18.515625 13.007812 -21.226562 16.480469 -21.226562 C 20.125 -21.226562 22.414062 -18.429688 22.414062 -14.914062 C 22.414062 -11.566406 19.957031 -8.644531 16.480469 -8.644531 C 12.964844 -8.644531 10.210938 -11.609375 10.210938 -15 Z M 10.210938 -15 "/></g></g></g><g fill="#000000" fill-opacity="1"><g transform="translate(58.284174, 36.677855)"><g><path d="M 0.933594 -14.53125 C 0.933594 -6.738281 6.609375 1.1875 16.101562 1.1875 C 20.082031 1.1875 24.617188 -0.761719 27.710938 -3.941406 C 30.507812 -6.777344 31.863281 -10.464844 31.863281 -14.789062 C 31.863281 -23.726562 25.378906 -30.886719 16.949219 -30.886719 C 7.542969 -30.886719 0.933594 -24.617188 0.933594 -14.53125 Z M 10.210938 -15 C 10.210938 -18.515625 13.007812 -21.226562 16.480469 -21.226562 C 20.125 -21.226562 22.414062 -18.429688 22.414062 -14.914062 C 22.414062 -11.566406 19.957031 -8.644531 16.480469 -8.644531 C 12.964844 -8.644531 10.210938 -11.609375 10.210938 -15 Z M 10.210938 -15 "/></g></g></g><g fill="#000000" fill-opacity="1"><g transform="translate(91.069295, 36.677855)"><g><path d="M 8.175781 0 C 9.914062 0 15.71875 0.464844 16.949219 0.464844 C 25.210938 0.464844 31.101562 -6.949219 31.101562 -15.632812 C 31.101562 -24.871094 25.378906 -30.167969 16.777344 -30.167969 C 13.683594 -30.167969 10.042969 -29.703125 6.523438 -29.703125 C 4.492188 -29.703125 2.882812 -29.871094 0.679688 -30.125 L 0.679688 -28.515625 C 1.652344 -28.34375 1.949219 -28.304688 2.753906 -28.175781 C 3.472656 -22.625 3.8125 -18.347656 3.8125 -13.769531 C 3.8125 -9.535156 3.558594 -5.804688 3.007812 -1.398438 C 1.863281 -1.269531 1.609375 -1.269531 0.636719 -1.058594 L 0.71875 0.507812 C 7.035156 0 7.035156 0 8.175781 0 Z M 21.226562 -15.59375 C 21.226562 -11.949219 18.726562 -9.109375 14.703125 -9.109375 C 14.109375 -9.109375 13.683594 -9.152344 12.839844 -9.449219 C 12.753906 -10.464844 12.542969 -13.175781 12.542969 -16.609375 C 12.542969 -18.769531 12.542969 -19.40625 12.878906 -21.355469 C 13.8125 -21.566406 14.363281 -21.695312 15.253906 -21.695312 C 18.429688 -21.695312 21.226562 -19.703125 21.226562 -15.59375 Z M 21.226562 -15.59375 "/></g></g></g><g fill="#000000" fill-opacity="1"><g transform="translate(163.109402, 36.677855)"><g><path d="M 16.777344 -30.886719 C 6.820312 -30.886719 0.933594 -23.980469 0.933594 -15.125 C 0.933594 -6.566406 6.949219 1.1875 16.992188 1.1875 C 20.59375 1.1875 24.191406 -0.167969 26.652344 -2.035156 C 26.480469 -4.152344 26.4375 -6.3125 26.4375 -8.175781 C 26.4375 -10.464844 26.523438 -11.398438 26.777344 -13.09375 C 27.667969 -13.175781 27.878906 -13.175781 28.601562 -13.347656 L 28.558594 -14.957031 C 24.914062 -14.574219 22.921875 -14.449219 21.058594 -14.449219 C 19.195312 -14.449219 17.878906 -14.53125 15.847656 -14.789062 L 15.847656 -13.21875 C 16.566406 -13.09375 16.734375 -13.09375 17.246094 -13.007812 C 17.710938 -11.144531 17.878906 -10.167969 18.09375 -7.796875 C 17.285156 -7.667969 16.992188 -7.667969 16.523438 -7.667969 C 12.203125 -7.667969 9.320312 -11.144531 9.320312 -15.464844 C 9.320312 -20.59375 12.5 -23.089844 17.5 -23.089844 C 20.210938 -23.089844 21.949219 -22.582031 23.429688 -21.566406 C 23.429688 -20.886719 23.429688 -20.125 23.515625 -19.492188 L 25.167969 -19.40625 C 25.167969 -23.8125 25.632812 -28.007812 26.777344 -30.421875 L 25.378906 -31.058594 C 24.957031 -30.335938 24.914062 -30.167969 24.660156 -29.53125 C 21.566406 -30.421875 19.320312 -30.886719 16.777344 -30.886719 Z M 16.777344 -30.886719 "/></g></g></g><g fill="#000000" fill-opacity="1"><g transform="translate(191.362209, 36.677855)"><g><path d="M 2.667969 -28.132812 C 3.347656 -25.210938 3.8125 -20.632812 3.8125 -13.007812 C 3.8125 -8.601562 3.472656 -5.167969 2.882812 -1.441406 C 1.820312 -1.355469 1.609375 -1.3125 0.71875 -1.101562 L 0.933594 0.679688 C 3.644531 0.210938 5.804688 0 8.558594 0 C 10.464844 0 12.5 0.167969 15.550781 0.421875 L 15.550781 -1.269531 C 14.574219 -1.398438 14.492188 -1.441406 13.390625 -1.609375 C 12.667969 -4.066406 12.457031 -6.355469 12.457031 -10.890625 C 15.421875 -8.472656 17.710938 -5.636719 20.847656 0.296875 C 20.253906 0.933594 20.167969 1.144531 19.871094 1.820312 L 21.355469 2.921875 C 23.726562 -0.59375 27.414062 -4.066406 30.886719 -6.1875 L 29.996094 -7.710938 C 29.320312 -7.328125 29.191406 -7.289062 28.601562 -6.949219 C 26.566406 -8.175781 25.378906 -9.152344 23.261719 -11.609375 C 26.734375 -14.703125 28.261719 -17.203125 28.261719 -20.59375 C 28.261719 -26.480469 23.050781 -30.546875 15.421875 -30.546875 C 11.3125 -30.546875 9.363281 -29.703125 5.636719 -29.703125 C 4.109375 -29.703125 2.710938 -29.828125 0.382812 -30.167969 L 0.253906 -28.472656 C 1.355469 -28.304688 1.355469 -28.34375 2.667969 -28.132812 Z M 12.289062 -14.914062 C 12.457031 -18.769531 12.542969 -18.175781 12.667969 -22.03125 C 16.015625 -21.949219 17.753906 -21.355469 17.753906 -18.980469 C 17.753906 -16.269531 15.464844 -15 12.289062 -14.914062 Z M 12.289062 -14.914062 "/></g></g></g><g fill="#000000" fill-opacity="1"><g transform="translate(220.546888, 36.677855)"><g><path d="M 0.71875 -28.601562 C 1.652344 -28.472656 3.007812 -28.304688 3.007812 -28.304688 C 3.007812 -25.886719 3.09375 -17.835938 3.09375 -17.835938 C 3.179688 0.296875 13.855469 1.1875 18.050781 1.1875 C 27.5 1.1875 31.945312 -6.144531 31.988281 -16.777344 C 31.988281 -16.777344 31.988281 -25.550781 32.03125 -28.472656 C 32.03125 -28.472656 33.089844 -28.601562 33.980469 -28.855469 L 33.980469 -30.335938 C 31.355469 -29.914062 29.320312 -29.703125 25.804688 -29.703125 C 23.050781 -29.703125 21.4375 -29.828125 19.109375 -30.082031 L 19.195312 -28.601562 C 20.167969 -28.34375 20.464844 -28.34375 21.480469 -28.175781 C 21.777344 -24.617188 21.90625 -21.820312 21.90625 -19.320312 C 21.90625 -10.507812 21.695312 -8.390625 17.625 -8.390625 C 13.175781 -8.390625 12.542969 -11.695312 12.542969 -21.355469 C 12.542969 -22.964844 12.625 -24.488281 12.921875 -28.386719 C 13.898438 -28.558594 14.195312 -28.601562 15.125 -28.855469 L 15 -30.210938 C 12.667969 -29.871094 10.847656 -29.703125 8.007812 -29.703125 C 5.847656 -29.703125 3.8125 -29.828125 0.847656 -30.082031 Z M 0.71875 -28.601562 "/></g></g></g><g fill="#000000" fill-opacity="1"><g transform="translate(255.619344, 36.677855)"><g><path d="M 7.289062 0 C 11.3125 0 13.558594 0.847656 16.269531 0.847656 C 21.949219 0.847656 26.480469 -3.601562 26.480469 -8.855469 C 26.480469 -13.09375 24.066406 -15.339844 21.226562 -15.847656 C 23.515625 -17.582031 25.167969 -19.871094 25.167969 -22.796875 C 25.167969 -28.050781 20.59375 -30.421875 14.363281 -30.421875 C 10.847656 -30.421875 8.984375 -29.703125 4.832031 -29.703125 C 2.753906 -29.703125 2.5 -29.828125 0.972656 -30.125 L 0.933594 -28.640625 C 2.246094 -28.472656 1.820312 -28.472656 2.964844 -28.304688 C 3.601562 -22.835938 3.8125 -16.609375 3.8125 -10.71875 C 3.8125 -6.1875 3.644531 -3.558594 3.007812 -1.3125 C 1.738281 -1.144531 2.035156 -1.144531 0.636719 -0.890625 L 0.761719 0.636719 C 3.855469 0.210938 5.210938 0 7.289062 0 Z M 12.074219 -18.558594 L 12.160156 -23.9375 C 15.339844 -23.9375 16.949219 -23.515625 16.949219 -21.269531 C 16.949219 -18.898438 15.125 -18.644531 12.074219 -18.558594 Z M 13.855469 -6.566406 C 13.558594 -6.566406 13.175781 -6.566406 12.542969 -6.652344 L 12.414062 -11.566406 C 15.550781 -11.480469 16.992188 -10.890625 16.992188 -8.984375 C 16.992188 -7.667969 15.847656 -6.566406 13.855469 -6.566406 Z M 13.855469 -6.566406 "/></g></g></g></g></g></svg>