<svg width="231" height="300" viewBox="0 0 231 300" fill="none" xmlns="http://www.w3.org/2000/svg">
<g clip-path="url(#clip0_114_2)">
<path d="M228.244 255.793C228.242 255.658 228.235 255.523 228.223 255.388C228.21 255.2 228.189 255.015 228.164 254.83C228.152 254.759 228.15 254.688 228.139 254.617L210.799 149.999L228.139 45.3822C228.146 45.3456 228.146 45.309 228.152 45.27C228.77 41.228 226.527 37.3004 222.733 35.7852L222.646 35.7486C222.634 35.744 222.625 35.7394 222.614 35.7371L134.842 0.628942C133.034 -0.0943245 131.036 -0.197322 129.163 0.338262L6.11655 35.4945C1.92114 36.6938 -0.813995 40.8183 -0.154816 45.2426C-0.147949 45.2884 -0.147949 45.3364 -0.141083 45.3822L17.2013 149.999L-0.138794 254.617C-0.150238 254.688 -0.152527 254.759 -0.163971 254.83C-0.189148 255.015 -0.209747 255.2 -0.22348 255.388C-0.234924 255.523 -0.241791 255.658 -0.24408 255.793C-0.246368 255.882 -0.257812 255.967 -0.257812 256.054V291.21C-0.257812 296.065 3.67667 299.999 8.53125 299.999H219.469C224.323 299.999 228.258 296.065 228.258 291.21V256.054C228.258 255.967 228.246 255.882 228.244 255.793ZM34.7794 148.562L19.7533 57.8997L93.158 87.2607C94.9273 87.9702 96.9231 88.0984 98.8366 87.5514L208.526 56.2129L193.218 148.562C193.06 149.514 193.06 150.485 193.218 151.437L209.103 247.265H18.8973L34.7794 151.437C34.9373 150.485 34.9373 149.514 34.7794 148.562ZM88.3309 66.3981C91.082 58.6802 101.718 52.7339 114 52.7339C121.839 52.7339 129.218 55.2447 134.169 59.1746L96.8956 69.8245L88.3309 66.3981ZM131.104 18.0652L192.332 42.5578L152.878 53.8302C145.435 42.5303 130.637 35.1558 114 35.1558C102.721 35.1558 92.0182 38.5226 83.8677 44.636C78.3082 48.8063 74.2569 54.0912 72.0276 59.8773L35.6675 45.3318L131.104 18.0652ZM210.68 282.421H17.3203V264.843H210.68V282.421Z" fill="white"/>
<path d="M103.851 212.068C114.354 210.617 120.04 200.183 126.622 188.102C130.783 180.462 135.501 171.806 141.312 166.13C147.645 159.947 155.098 157.457 161.085 155.459C167.544 153.301 174.225 151.069 175.96 143.901C177.642 136.954 172.827 130.827 167.373 125.24C156.787 114.4 142.61 108.33 127.46 108.149C112.292 107.957 97.9916 113.7 87.1517 124.285C76.3096 134.873 70.2397 149.048 70.0588 164.2C69.878 179.352 75.6092 193.666 86.195 204.508C91.045 209.475 97.0028 213.016 103.851 212.068ZM99.4312 136.862C114.904 121.754 139.666 122.029 154.795 137.522C155.196 137.931 155.558 138.311 155.885 138.661C146.366 141.85 137.458 145.324 129.033 153.552C121.328 161.076 115.94 170.966 111.184 179.693C108.307 184.976 104.032 192.822 101.553 194.509C98.7904 193.037 87.4264 181.977 87.6347 164.408C87.7606 153.951 91.9491 144.168 99.4312 136.862Z" fill="white"/>
</g>
<defs>
<clipPath id="clip0_114_2">
<rect width="231" height="300" fill="white"/>
</clipPath>
</defs>
</svg>
