<svg xmlns="http://www.w3.org/2000/svg" height="300" version="1.1" viewBox="-61 0 512 512.00008" width="300" xmlns:xlink="http://www.w3.org/1999/xlink" xmlns:svgjs="http://svgjs.dev/svgjs"><g width="100%" height="100%" transform="matrix(1,0,0,1,0,0)"><g id="surface1">
<path d="M 389.976562 436.554688 C 389.972656 436.324219 389.960938 436.09375 389.941406 435.863281 C 389.917969 435.542969 389.882812 435.226562 389.839844 434.910156 C 389.820312 434.789062 389.816406 434.667969 389.796875 434.546875 L 360.203125 256 L 389.796875 77.453125 C 389.808594 77.390625 389.808594 77.328125 389.820312 77.261719 C 390.875 70.363281 387.046875 63.660156 380.570312 61.074219 L 380.421875 61.011719 C 380.402344 61.003906 380.386719 60.996094 380.367188 60.992188 L 230.570312 1.074219 C 227.484375 -0.160156 224.074219 -0.335938 220.878906 0.578125 L 10.878906 60.578125 C 3.71875 62.625 -0.949219 69.664062 0.175781 77.214844 C 0.1875 77.292969 0.1875 77.375 0.199219 77.453125 L 29.796875 256 L 0.203125 434.546875 C 0.183594 434.667969 0.179688 434.789062 0.160156 434.910156 C 0.117188 435.226562 0.0820312 435.542969 0.0585938 435.863281 C 0.0390625 436.09375 0.0273438 436.324219 0.0234375 436.554688 C 0.0195312 436.707031 0 436.851562 0 437 L 0 497 C 0 505.285156 6.714844 512 15 512 L 375 512 C 383.285156 512 390 505.285156 390 497 L 390 437 C 390 436.851562 389.980469 436.707031 389.976562 436.554688 Z M 59.796875 253.546875 L 34.152344 98.816406 L 159.429688 148.925781 C 162.449219 150.136719 165.855469 150.355469 169.121094 149.421875 L 356.324219 95.9375 L 330.199219 253.546875 C 329.929688 255.171875 329.929688 256.828125 330.199219 258.453125 L 357.308594 422 L 32.691406 422 L 59.796875 258.453125 C 60.066406 256.828125 60.066406 255.171875 59.796875 253.546875 Z M 151.191406 113.320312 C 155.886719 100.148438 174.039062 90 195 90 C 208.378906 90 220.972656 94.285156 229.421875 100.992188 L 165.808594 119.167969 Z M 224.191406 30.832031 L 328.6875 72.632812 L 261.351562 91.871094 C 248.648438 72.585938 223.394531 60 195 60 C 175.75 60 157.484375 65.746094 143.574219 76.179688 C 134.085938 83.296875 127.171875 92.316406 123.367188 102.191406 L 61.3125 77.367188 Z M 360 482 L 30 482 L 30 452 L 360 452 Z M 360 482 " style="fill-rule: nonzero;" fill="#ff0000" fill-opacity="1" data-original-color="#000000ff" stroke="none" stroke-opacity="1"/>
<path d="M 177.679688 361.929688 C 195.605469 359.453125 205.308594 341.644531 216.542969 321.027344 C 223.644531 307.988281 231.695312 293.214844 241.613281 283.527344 C 252.421875 272.976562 265.140625 268.726562 275.359375 265.316406 C 286.382812 261.632812 297.785156 257.824219 300.746094 245.589844 C 303.617188 233.734375 295.398438 223.277344 286.089844 213.742188 C 268.023438 195.242188 243.828125 184.882812 217.972656 184.574219 C 192.085938 184.246094 167.679688 194.046875 149.179688 212.113281 C 130.675781 230.183594 120.316406 254.375 120.007812 280.234375 C 119.699219 306.09375 129.480469 330.523438 147.546875 349.027344 C 155.824219 357.503906 165.992188 363.546875 177.679688 361.929688 Z M 170.136719 233.578125 C 196.542969 207.792969 238.804688 208.261719 264.625 234.703125 C 265.308594 235.402344 265.925781 236.050781 266.484375 236.648438 C 250.238281 242.089844 235.035156 248.019531 220.65625 262.0625 C 207.507812 274.902344 198.3125 291.78125 190.195312 306.675781 C 185.285156 315.691406 177.988281 329.082031 173.757812 331.960938 C 169.042969 329.449219 149.648438 310.574219 150.003906 280.589844 C 150.21875 262.742188 157.367188 246.046875 170.136719 233.578125 Z M 170.136719 233.578125 " style="fill-rule: nonzero;" fill="#ff0000" fill-opacity="1" data-original-color="#000000ff" stroke="none" stroke-opacity="1"/>
</g></g></svg>