<svg id="Layer_1" enable-background="new 0 0 512 512" height="300" viewBox="0 0 512 512" width="300" xmlns="http://www.w3.org/2000/svg" version="1.1" xmlns:xlink="http://www.w3.org/1999/xlink" xmlns:svgjs="http://svgjs.dev/svgjs"><g width="100%" height="100%" transform="matrix(1,0,0,1,0,0)"><path d="m479.489 246.229c0 50.204-40.845 91.049-91.049 91.049h-63.266c13.587 15.91 21.804 36.536 21.804 59.049v99.673c0 8.837-7.164 16-16 16s-16-7.163-16-16v-99.673c0-32.56-26.489-59.049-59.049-59.049h-135.628c-8.836 0-16-7.163-16-16s7.164-16 16-16h268.139c32.56 0 59.049-26.489 59.049-59.049 0-32.561-26.489-59.05-59.049-59.05h-268.139c-8.836 0-16-7.163-16-16s7.164-16 16-16h162.606c11.869 0 21.525-9.655 21.525-21.524 0-11.868-9.656-21.524-21.525-21.524h-162.606c-32.56 0-59.049 26.489-59.049 59.049 0 32.561 26.489 59.05 59.049 59.05h234.529c8.836 0 16 7.163 16 16s-7.164 16-16 16h-234.529c-32.56 0-59.049 26.489-59.049 59.049 0 30.33 23.627 56.167 53.79 58.819 30.619 2.693 63.055 1.828 94.422.992 15.261-.406 31.042-.826 46.457-.835h.009c4.242 0 8.31 1.685 11.311 4.684 3.002 3.001 4.689 7.071 4.689 11.316v99.745c0 8.837-7.164 16-16 16s-16-7.163-16-16v-83.604c-9.89.157-19.859.423-29.613.683-32.268.859-65.633 1.749-98.078-1.104-22.594-1.987-43.525-12.302-58.938-29.043-15.508-16.847-24.049-38.742-24.049-61.653 0-31.108 15.686-58.618 39.56-75.049-23.874-16.431-39.56-43.941-39.56-75.05 0-50.204 40.845-91.049 91.049-91.049h162.606c29.514 0 53.525 24.011 53.525 53.524 0 7.655-1.627 14.933-4.534 21.524h56.542c50.205.001 91.049 40.845 91.049 91.05zm-107.939-166.63h31.599v31.599c0 8.837 7.164 16 16 16s16-7.163 16-16v-31.599h31.599c8.836 0 16-7.163 16-16s-7.164-16-16-16h-31.599v-31.599c0-8.837-7.164-16-16-16s-16 7.163-16 16v31.599h-31.599c-8.836 0-16 7.163-16 16s7.164 16 16 16z" fill="#ffffff" fill-opacity="1" data-original-color="#000000ff" stroke="none" stroke-opacity="1"/></g></svg>