<svg width="152" height="31" viewBox="0 0 152 31" fill="none" xmlns="http://www.w3.org/2000/svg">
<path d="M16.3239 2.2061L19.6814 9.07577L27.0675 10.1605C27.6872 10.2638 28.2039 10.677 28.4105 11.2968C28.617 11.865 28.4621 12.5364 27.9972 12.9496L22.6255 18.2698L23.9168 25.8109C24.02 26.4307 23.7617 27.0505 23.2453 27.412C22.7287 27.8253 22.0573 27.8253 21.4891 27.5671L14.8777 24.0032L8.21465 27.5671C7.69813 27.8253 7.02665 27.8253 6.51013 27.412C5.99363 27.0505 5.73537 26.4307 5.83866 25.8109L7.0783 18.2698L1.70653 12.9496C1.29332 12.5364 1.13836 11.865 1.29332 11.2968C1.49992 10.677 2.01645 10.2638 2.63626 10.1605L10.0741 9.07577L13.3798 2.2061C13.6381 1.63793 14.2062 1.27637 14.8777 1.27637C15.4975 1.27637 16.0657 1.63793 16.3239 2.2061Z" fill="#FF0000"/>
<path d="M46.5427 2.2061L49.9001 9.07577L57.2862 10.1605C57.906 10.2638 58.4226 10.677 58.6293 11.2968C58.8357 11.865 58.6808 12.5364 58.216 12.9496L52.8443 18.2698L54.1356 25.8109C54.2387 26.4307 53.9805 27.0505 53.4641 27.412C52.9474 27.8253 52.2761 27.8253 51.7079 27.5671L45.0965 24.0032L38.4334 27.5671C37.9169 27.8253 37.2454 27.8253 36.7289 27.412C36.2124 27.0505 35.9541 26.4307 36.0574 25.8109L37.297 18.2698L31.9253 12.9496C31.5121 12.5364 31.3571 11.865 31.5121 11.2968C31.7187 10.677 32.2352 10.2638 32.855 10.1605L40.2928 9.07577L43.5986 2.2061C43.8568 1.63793 44.425 1.27637 45.0965 1.27637C45.7163 1.27637 46.2845 1.63793 46.5427 2.2061Z" fill="#FF0000"/>
<path d="M76.7771 2.20512L80.1345 9.07479L87.5206 10.1595C88.1404 10.2628 88.657 10.676 88.8636 11.2958C89.0701 11.864 88.9152 12.5355 88.4503 12.9487L83.0787 18.2688L84.37 25.81C84.4731 26.4297 84.2149 27.0495 83.6984 27.4111C83.1818 27.8244 82.5105 27.8244 81.9422 27.5661L75.3308 24.0022L68.6678 27.5661C68.1513 27.8244 67.4798 27.8244 66.9633 27.4111C66.4468 27.0495 66.1885 26.4297 66.2918 25.81L67.5314 18.2688L62.1597 12.9487C61.7464 12.5355 61.5915 11.864 61.7464 11.2958C61.953 10.676 62.4696 10.2628 63.0894 10.1595L70.5272 9.07479L73.8329 2.20512C74.0912 1.63695 74.6594 1.27539 75.3308 1.27539C75.9506 1.27539 76.5188 1.63695 76.7771 2.20512Z" fill="#FF0000"/>
<path d="M107.004 2.20512L110.361 9.07479L117.747 10.1595C118.367 10.2628 118.884 10.676 119.09 11.2958C119.297 11.864 119.142 12.5355 118.677 12.9487L113.305 18.2688L114.597 25.81C114.7 26.4297 114.441 27.0495 113.925 27.4111C113.408 27.8244 112.737 27.8244 112.169 27.5661L105.557 24.0022L98.8943 27.5661C98.3778 27.8244 97.7063 27.8244 97.1898 27.4111C96.6733 27.0495 96.4151 26.4297 96.5183 25.81L97.758 18.2688L92.3862 12.9487C91.973 12.5355 91.818 11.864 91.973 11.2958C92.1796 10.676 92.6961 10.2628 93.3159 10.1595L100.754 9.07479L104.059 2.20512C104.318 1.63695 104.886 1.27539 105.557 1.27539C106.177 1.27539 106.745 1.63695 107.004 2.20512Z" fill="#FF0000"/>
<path d="M137.222 2.20512L140.58 9.07479L147.966 10.1595C148.586 10.2628 149.102 10.676 149.309 11.2958C149.515 11.864 149.361 12.5355 148.896 12.9487L143.524 18.2688L144.815 25.81C144.918 26.4297 144.66 27.0495 144.144 27.4111C143.627 27.8244 142.956 27.8244 142.388 27.5661L135.776 24.0022L129.113 27.5661C128.597 27.8244 127.925 27.8244 127.409 27.4111C126.892 27.0495 126.634 26.4297 126.737 25.81L127.977 18.2688L122.605 12.9487C122.192 12.5355 122.037 11.864 122.192 11.2958C122.398 10.676 122.915 10.2628 123.535 10.1595L130.973 9.07479L134.278 2.20512C134.537 1.63695 135.105 1.27539 135.776 1.27539C136.396 1.27539 136.964 1.63695 137.222 2.20512Z" fill="#FF0000"/>
</svg>
