<svg width="32" height="32" viewBox="0 0 32 32" fill="none" xmlns="http://www.w3.org/2000/svg">
<g clip-path="url(#clip0_26_3920)">
<rect width="32" height="32" fill="#FF0000"/>
<mask id="mask0_26_3920" style="mask-type:luminance" maskUnits="userSpaceOnUse" x="8" y="2" width="18" height="32">
<path d="M8.61719 2.75H25.3672V33.7452H8.61719V2.75Z" fill="white"/>
</mask>
<g mask="url(#mask0_26_3920)">
<mask id="mask1_26_3920" style="mask-type:luminance" maskUnits="userSpaceOnUse" x="8" y="2" width="18" height="32">
<path d="M25.3648 2.75H8.57812V33.7452H25.3648V2.75Z" fill="white"/>
</mask>
<g mask="url(#mask1_26_3920)">
<path d="M17.7472 26.0462C16.1657 26.227 14.9171 26.0782 14.0018 25.5995C13.0862 25.1203 12.4076 24.3771 11.9661 23.3696C11.525 22.3616 11.2242 21.1546 11.0637 19.7485L14.9014 19.3107C15.0594 20.6972 15.3134 21.6226 15.6632 22.0867C16.0128 22.5511 16.5783 22.7384 17.3596 22.6489C17.9845 22.578 18.4182 22.3506 18.6612 21.9668C18.9041 21.5832 18.9909 21.0884 18.9217 20.4825C18.8638 19.9754 18.7564 19.5972 18.5995 19.3483C18.4424 19.0995 18.2369 18.9003 17.9827 18.7503C17.621 18.5344 16.7377 18.2497 15.3329 17.8963C14.6615 17.7352 14.0564 17.547 13.5175 17.3315C12.9785 17.1162 12.5363 16.8801 12.1908 16.6234C11.7192 16.3011 11.3023 15.8096 10.9402 15.149C10.5774 14.4883 10.3413 13.6795 10.2321 12.7221C10.034 10.9843 10.3975 9.53342 11.3224 8.36966C12.2481 7.20546 13.6383 6.51728 15.4931 6.30534C16.9384 6.14063 18.1038 6.25499 18.9889 6.6482C19.8745 7.04164 20.5528 7.74079 21.0237 8.74564C21.495 9.75005 21.8267 11.092 22.0182 12.7713L18.2387 13.2028C18.1228 12.1872 17.9757 11.4176 17.7974 10.8941C17.6188 10.3709 17.3816 10.0271 17.0857 9.86285C16.7903 9.69813 16.4181 9.64151 15.9694 9.69276C15.4609 9.75072 15.0746 9.96803 14.811 10.3445C14.5478 10.7211 14.4507 11.2119 14.5201 11.8171C14.5845 12.3835 14.6969 12.806 14.8576 13.0847C15.018 13.3628 15.206 13.5786 15.4215 13.7319C15.6565 13.8836 16.0101 14.036 16.4823 14.1893C16.955 14.3429 17.5073 14.5022 18.1393 14.6674C18.8519 14.8435 19.4454 15.0183 19.9199 15.1919C20.3943 15.3652 20.8361 15.5963 21.2457 15.8857C22.3593 16.6287 23.0175 17.8889 23.2205 19.6661C23.4167 21.3845 23.0562 22.8199 22.1391 23.9729C21.2224 25.1255 19.7583 25.8166 17.7472 26.0462Z" fill="white"/>
</g>
</g>
<mask id="mask2_26_3920" style="mask-type:luminance" maskUnits="userSpaceOnUse" x="5" y="8" width="5" height="5">
<path d="M5.11719 10.5215L7.15327 8.31811L9.25494 10.2602L7.21885 12.4636L5.11719 10.5215Z" fill="white"/>
</mask>
<g mask="url(#mask2_26_3920)">
<mask id="mask3_26_3920" style="mask-type:luminance" maskUnits="userSpaceOnUse" x="3" y="3" width="10" height="9">
<path d="M3.88268 5.29706L10.5367 3.46495L12.2095 9.54043L5.55557 11.3724L3.88268 5.29706Z" fill="white"/>
</mask>
<g mask="url(#mask3_26_3920)">
<mask id="mask4_26_3920" style="mask-type:luminance" maskUnits="userSpaceOnUse" x="3" y="3" width="10" height="9">
<path d="M3.88268 5.29706L10.5367 3.46495L12.2095 9.54043L5.55557 11.3724L3.88268 5.29706Z" fill="white"/>
</mask>
<g mask="url(#mask4_26_3920)">
<path d="M5.54901 10.6923C5.55075 10.6716 5.54928 10.657 5.52255 10.6554C5.4948 10.6538 5.48952 10.6396 5.50352 10.613C5.50957 10.6014 5.51459 10.5896 5.52116 10.5782C5.52738 10.5678 5.53491 10.558 5.54446 10.5445C5.52316 10.5221 5.49312 10.5111 5.4606 10.5048C5.45687 10.5041 5.45216 10.5076 5.4488 10.5065C5.41037 10.493 5.37064 10.4819 5.33397 10.4644C5.30211 10.4492 5.29967 10.4229 5.31914 10.3925C5.32551 10.3827 5.32746 10.3705 5.33307 10.3543C5.33647 10.3629 5.33784 10.3686 5.34108 10.373C5.34377 10.3765 5.34903 10.3804 5.3527 10.3799C5.35638 10.3793 5.36141 10.3742 5.36202 10.3703C5.3695 10.3335 5.36912 10.3334 5.3889 10.3109C5.38227 10.3112 5.37531 10.3126 5.36875 10.3112C5.35822 10.3093 5.34813 10.3059 5.33781 10.303C5.34468 10.2961 5.35036 10.2849 5.35856 10.2824C5.43458 10.2594 5.51077 10.2372 5.58739 10.2165C5.64269 10.2015 5.69844 10.1885 5.75422 10.1762C5.76509 10.1737 5.77772 10.1768 5.78871 10.1806C5.81123 10.1886 5.81722 10.2015 5.79133 10.2211C5.8025 10.226 5.81041 10.2294 5.82288 10.235C5.8231 10.2114 5.8233 10.1939 5.82346 10.1754C5.85224 10.1674 5.88776 10.1558 5.92435 10.1486C5.93688 10.1462 5.95168 10.1557 5.96548 10.1596C5.9665 10.1627 5.96764 10.1657 5.96878 10.1688C5.97866 10.1573 5.98828 10.1455 5.99881 10.1344C6.00199 10.131 6.00761 10.1278 6.0117 10.1282C6.03939 10.1314 6.06594 10.1284 6.09224 10.1191C6.10721 10.1138 6.12458 10.1078 6.13898 10.1108C6.18015 10.1193 6.21587 10.0966 6.25497 10.0949C6.31369 10.0925 6.37233 10.088 6.43101 10.0846C6.45099 10.0831 6.47094 10.0812 6.49096 10.0808C6.54974 10.0799 6.60867 10.0796 6.66758 10.0785C6.70149 10.078 6.73563 10.0766 6.76956 10.0763C6.77938 10.0763 6.78921 10.0797 6.79905 10.08C6.81732 10.0807 6.83567 10.0802 6.85377 10.0797C6.86193 10.0797 6.87001 10.0773 6.87794 10.078C6.93373 10.0819 6.98918 10.0873 7.04506 10.0903C7.07881 10.092 7.11279 10.0901 7.14665 10.0912C7.21743 10.0937 7.28789 10.0977 7.35854 10.1001C7.44849 10.1035 7.53852 10.1057 7.62861 10.1091C7.67346 10.1108 7.7183 10.1157 7.76326 10.117C7.79673 10.1179 7.83034 10.1129 7.86359 10.1149C7.90311 10.1173 7.9423 10.1243 7.9859 10.13C7.99484 10.127 8.00966 10.1176 8.02484 10.1176C8.08644 10.1171 8.14823 10.1212 8.20995 10.1205C8.28443 10.1196 8.35928 10.109 8.433 10.1148C8.52578 10.122 8.6178 10.1 8.70994 10.1134C8.72572 10.1157 8.74146 10.117 8.7553 10.1185C8.75938 10.1282 8.76207 10.1447 8.76696 10.1455C8.783 10.148 8.80951 10.1504 8.81455 10.1423C8.83804 10.1039 8.86425 10.1247 8.89111 10.1328C8.90467 10.137 8.91891 10.1391 8.93281 10.1421C8.96948 10.15 9.00629 10.158 9.0432 10.1653C9.07548 10.1719 9.11093 10.1651 9.13954 10.1883C9.15496 10.2009 9.17318 10.2101 9.18712 10.2237C9.194 10.2301 9.19856 10.2453 9.19544 10.2535C9.19266 10.2607 9.17777 10.2681 9.16881 10.2674C9.14295 10.2651 9.135 10.2737 9.13641 10.2998C9.13768 10.3224 9.11073 10.3409 9.08546 10.3377C9.05675 10.3342 9.03683 10.3468 9.01653 10.3658C9.02244 10.37 9.02378 10.3718 9.02571 10.3721C9.03587 10.3741 9.04602 10.3759 9.05604 10.3778C9.04828 10.3848 9.0418 10.3951 9.03262 10.3986C9.01416 10.4061 8.99441 10.4099 8.96867 10.4171C8.98686 10.3769 8.96514 10.3601 8.93855 10.3426C8.92739 10.3669 8.91103 10.3695 8.8858 10.3638C8.85762 10.3577 8.82705 10.3621 8.79747 10.3627C8.79339 10.3629 8.78923 10.3674 8.78125 10.372C8.81974 10.3806 8.85043 10.3694 8.87225 10.3955C8.87439 10.398 8.8887 10.3952 8.89211 10.391C8.91046 10.368 8.92911 10.3879 8.9473 10.3897C8.94781 10.3897 8.94994 10.4049 8.9465 10.4081C8.92743 10.4261 8.90655 10.4402 8.88954 10.4262C8.85961 10.4307 8.83787 10.4327 8.81674 10.4372C8.80143 10.4405 8.78709 10.4489 8.77164 10.4518C8.67019 10.4707 8.56846 10.4889 8.46674 10.5076C8.42672 10.515 8.38687 10.5236 8.34672 10.5312C8.27275 10.5448 8.19908 10.5595 8.1249 10.5712C8.07152 10.5796 8.0176 10.584 7.96387 10.59C7.93109 10.5936 7.89793 10.5971 7.86515 10.6007C7.79745 10.6084 7.73007 10.6175 7.6623 10.6236C7.59772 10.6295 7.53289 10.6322 7.46825 10.6365C7.42244 10.6396 7.37693 10.644 7.33109 10.6463C7.3125 10.6473 7.29364 10.6446 7.27485 10.6436C7.27101 10.6433 7.26619 10.6408 7.26318 10.6422C7.21423 10.6657 7.16178 10.6558 7.11048 10.6587C7.0495 10.6622 6.98845 10.6669 6.92718 10.6695C6.85509 10.6726 6.78294 10.6742 6.71091 10.6756C6.69816 10.6758 6.68502 10.6693 6.67283 10.6708C6.65302 10.6732 6.63387 10.6827 6.61427 10.6837C6.5837 10.6852 6.55264 10.6806 6.52182 10.6818C6.48601 10.6828 6.44995 10.6873 6.41409 10.6902C6.37302 10.6938 6.33176 10.6959 6.29088 10.7011C6.21067 10.7117 6.13066 10.7244 6.05047 10.7355C6.03676 10.7373 6.02277 10.7352 6.00904 10.7365C5.98946 10.7383 5.97009 10.742 5.95066 10.7444C5.92299 10.748 5.89521 10.7521 5.86737 10.7546C5.83114 10.7579 5.79465 10.7613 5.75808 10.7623C5.73093 10.763 5.70353 10.7605 5.67618 10.7593C5.67516 10.7593 5.67384 10.7584 5.67334 10.7586C5.63871 10.7863 5.59932 10.771 5.56136 10.7725C5.53015 10.7736 5.49952 10.7863 5.46823 10.7888C5.44927 10.7902 5.42849 10.784 5.41023 10.7772C5.3934 10.771 5.39918 10.7591 5.4095 10.749C5.4229 10.7361 5.43549 10.7222 5.4489 10.7096C5.45297 10.706 5.45924 10.7032 5.46469 10.7023C5.49223 10.6985 5.52006 10.6958 5.54901 10.6923ZM6.38395 10.6022C6.39725 10.603 6.40908 10.6053 6.42065 10.6045C6.45423 10.6019 6.4879 10.5981 6.52145 10.5948C6.52932 10.594 6.53748 10.5936 6.54505 10.5916C6.56954 10.585 6.59335 10.5709 6.61736 10.5941C6.6212 10.5976 6.63309 10.5948 6.64053 10.5926C6.65905 10.5867 6.668 10.5807 6.64969 10.5596C6.63137 10.5385 6.612 10.5422 6.59129 10.5444C6.53995 10.5495 6.48865 10.5559 6.43733 10.5615C6.43454 10.5618 6.43129 10.5603 6.42845 10.5597C6.38681 10.5519 6.3862 10.5525 6.3842 10.6022L6.38395 10.6022ZM6.67157 10.5808C6.698 10.5844 6.72021 10.588 6.7426 10.5895C6.74643 10.5896 6.75388 10.5813 6.75446 10.5764C6.75628 10.5611 6.72334 10.5346 6.70229 10.5316C6.67547 10.5277 6.68109 10.5471 6.67886 10.5618C6.67815 10.5665 6.67552 10.571 6.67171 10.5809L6.67157 10.5808ZM6.35265 10.6077C6.35584 10.6077 6.35916 10.6078 6.3621 10.6078C6.36474 10.5973 6.3713 10.5856 6.36866 10.5768C6.36689 10.5708 6.35121 10.5646 6.34284 10.566C6.32267 10.5689 6.30305 10.5761 6.27616 10.5834C6.28984 10.5938 6.3 10.6054 6.31252 10.6091C6.31846 10.611 6.32877 10.5974 6.33829 10.5898C6.34178 10.5942 6.34728 10.601 6.3524 10.6077L6.35265 10.6077ZM8.90423 10.3006C8.90436 10.3039 8.90476 10.3074 8.90489 10.3108C8.93317 10.3096 8.96145 10.3085 8.99316 10.3072C8.96902 10.2804 8.93465 10.2793 8.90423 10.3006ZM5.57215 10.7C5.59142 10.6969 5.60515 10.6956 5.61854 10.6923C5.62398 10.6909 5.62861 10.6854 5.63357 10.6819C5.629 10.6759 5.62397 10.6649 5.61977 10.6652C5.60068 10.6665 5.58184 10.6706 5.56068 10.6744C5.56585 10.6858 5.56977 10.6946 5.57215 10.7ZM8.73906 10.3731C8.71727 10.3834 8.70087 10.3913 8.68358 10.3994C8.71635 10.4247 8.73082 10.4197 8.73906 10.3731ZM6.03021 10.2157C6.03541 10.2117 6.04087 10.2076 6.04607 10.2036C6.03914 10.193 6.03209 10.1823 6.02515 10.1715C6.0177 10.1767 6.01024 10.1815 6.00265 10.1866C6.01184 10.1963 6.02115 10.2059 6.03021 10.2157ZM6.41853 10.4471C6.39734 10.4177 6.37842 10.417 6.34479 10.4472C6.37285 10.4472 6.39301 10.4471 6.41853 10.4471ZM6.66547 10.4163C6.65039 10.4125 6.63772 10.4084 6.62463 10.4063C6.62 10.4055 6.61401 10.4088 6.60965 10.4117C6.60829 10.4126 6.6092 10.4196 6.61122 10.4222C6.62157 10.4357 6.65498 10.4319 6.66559 10.4162L6.66547 10.4163ZM6.10975 10.4529C6.10965 10.457 6.10981 10.4611 6.10997 10.4652C6.12726 10.4765 6.14459 10.4888 6.16424 10.45C6.14183 10.4512 6.12579 10.4521 6.10975 10.4529ZM6.78618 10.5623C6.78463 10.5682 6.78294 10.574 6.78126 10.5798C6.79125 10.5809 6.80239 10.5851 6.81069 10.582C6.8171 10.5795 6.82288 10.5677 6.82258 10.5601C6.82267 10.5557 6.81012 10.5483 6.80337 10.5484C6.79763 10.5485 6.79186 10.5574 6.78618 10.5623ZM6.22144 10.5805C6.23768 10.591 6.25169 10.6003 6.2657 10.6093L6.27263 10.5973C6.25841 10.5893 6.24432 10.5815 6.23023 10.5736C6.22984 10.5735 6.22887 10.5748 6.22144 10.5805ZM6.52418 10.4473C6.51143 10.4154 6.49393 10.4083 6.4683 10.4217C6.48637 10.43 6.50351 10.4378 6.52418 10.4473ZM9.09182 10.295C9.06863 10.2991 9.04849 10.3028 9.02341 10.3074C9.05563 10.3285 9.07505 10.3195 9.09182 10.295Z" fill="white"/>
</g>
</g>
</g>
<mask id="mask5_26_3920" style="mask-type:luminance" maskUnits="userSpaceOnUse" x="6" y="5" width="4" height="5">
<path d="M6.16406 6.39844L6.91586 5.58489L9.79741 8.24724L9.04561 9.06079L6.16406 6.39844Z" fill="white"/>
</mask>
<g mask="url(#mask5_26_3920)">
<mask id="mask6_26_3920" style="mask-type:luminance" maskUnits="userSpaceOnUse" x="3" y="3" width="10" height="9">
<path d="M3.88268 5.29706L10.5367 3.46496L12.2095 9.54043L5.55557 11.3724L3.88268 5.29706Z" fill="white"/>
</mask>
<g mask="url(#mask6_26_3920)">
<mask id="mask7_26_3920" style="mask-type:luminance" maskUnits="userSpaceOnUse" x="3" y="3" width="10" height="9">
<path d="M3.88268 5.29706L10.5367 3.46496L12.2095 9.54043L5.55557 11.3724L3.88268 5.29706Z" fill="white"/>
</mask>
<g mask="url(#mask7_26_3920)">
<path d="M8.63311 7.93832C8.612 7.98214 8.5917 7.95922 8.56885 7.94596C8.50995 7.91167 8.44902 7.8809 8.39073 7.84595C8.34878 7.82069 8.30921 7.79125 8.26892 7.76286C8.21852 7.72734 8.1719 7.68721 8.11495 7.66037C8.08688 7.64744 8.06296 7.62338 8.04052 7.60118C8.02619 7.5872 8.0133 7.56768 8.03197 7.54295C8.03664 7.548 8.03975 7.5526 8.04383 7.55563C8.04895 7.55938 8.05469 7.56247 8.06064 7.56453C8.0618 7.56487 8.06765 7.558 8.06695 7.55637C8.0643 7.55048 8.06084 7.54386 8.05596 7.53984C8.03963 7.52696 8.02269 7.51474 8.00563 7.50266C8.00195 7.5 7.99482 7.49709 7.99259 7.49871C7.98862 7.50167 7.98516 7.5078 7.98485 7.51292C7.984 7.52367 7.98532 7.53446 7.98563 7.54555C8.01071 7.54737 8.0149 7.55639 7.99974 7.58288C7.97043 7.57103 7.96764 7.54562 7.96673 7.51925C7.96628 7.50778 7.96608 7.49631 7.96576 7.48497C7.95264 7.48561 7.9394 7.48639 7.92489 7.48722C7.93472 7.50661 7.94233 7.52174 7.95272 7.54238C7.92667 7.53869 7.90601 7.54219 7.89615 7.51859C7.89487 7.51545 7.89095 7.51306 7.8877 7.51153C7.86407 7.50123 7.84032 7.49107 7.81695 7.48077C7.78682 7.46741 7.75442 7.45785 7.7278 7.43963C7.7013 7.42129 7.66212 7.41454 7.65582 7.37141C7.65425 7.36063 7.63498 7.34455 7.62388 7.34461C7.58394 7.34453 7.55379 7.32722 7.52109 7.30708C7.49467 7.29051 7.46213 7.28402 7.44241 7.25647C7.37899 7.25311 7.33659 7.20362 7.28091 7.18286C7.25385 7.17283 7.2272 7.16048 7.20176 7.14631C7.1869 7.13822 7.16078 7.12955 7.18867 7.10549C7.19101 7.10348 7.18828 7.09581 7.18795 7.09059C7.18305 7.09244 7.17515 7.09275 7.17374 7.09587C7.16005 7.12716 7.14045 7.11887 7.12024 7.10462C7.07941 7.07548 7.03979 7.04477 6.998 7.0172C6.95857 6.99133 6.91662 6.96926 6.87659 6.9443C6.86339 6.93628 6.8526 6.92484 6.8406 6.91498C6.83612 6.91133 6.83255 6.90509 6.82765 6.90375C6.78022 6.89159 6.73842 6.8704 6.70703 6.83158C6.70435 6.82812 6.69834 6.82478 6.69441 6.82532C6.66939 6.82822 6.65742 6.81913 6.66442 6.78951C6.64764 6.788 6.63308 6.78756 6.61869 6.78506C6.61162 6.78368 6.60468 6.77924 6.59888 6.77462C6.59757 6.77365 6.60047 6.76307 6.60324 6.7622C6.61017 6.76001 6.61811 6.76072 6.62943 6.75989C6.63594 6.75019 6.64509 6.7363 6.65796 6.71653C6.63023 6.71865 6.61052 6.72032 6.58952 6.72179C6.58911 6.72754 6.58982 6.73262 6.5882 6.73676C6.58587 6.74247 6.58173 6.74748 6.57837 6.75272C6.57456 6.74674 6.5664 6.74043 6.56695 6.73505C6.57364 6.67495 6.53514 6.63692 6.50187 6.59588C6.49557 6.58809 6.48987 6.57964 6.4843 6.57106C6.4699 6.54892 6.45438 6.52746 6.44161 6.50436C6.42732 6.47864 6.42119 6.44622 6.40165 6.42646C6.37786 6.40226 6.37472 6.37113 6.35815 6.34576C6.3485 6.3307 6.32949 6.32125 6.32148 6.30574C6.31473 6.29312 6.31173 6.27219 6.31791 6.26046C6.32655 6.24341 6.33713 6.22054 6.36828 6.23411C6.3875 6.24253 6.40394 6.24839 6.41893 6.26617C6.43444 6.28418 6.46081 6.29284 6.48286 6.30511C6.48586 6.3069 6.49222 6.3064 6.49457 6.30439C6.5311 6.26991 6.56511 6.30084 6.60069 6.30671C6.62689 6.31103 6.65623 6.31408 6.68095 6.30673C6.72597 6.29334 6.78565 6.32811 6.78877 6.37493C6.78926 6.38078 6.79368 6.38609 6.79663 6.39299C6.82749 6.36014 6.83321 6.35953 6.86893 6.38197C6.87311 6.38462 6.87779 6.38992 6.88173 6.38963C6.93752 6.38399 6.94357 6.43695 6.97057 6.46484C6.97376 6.46803 6.97336 6.47405 6.98137 6.47973C6.98443 6.46685 6.98749 6.45397 6.99163 6.43594C6.99634 6.44864 6.9992 6.45644 7.00065 6.46072C7.02165 6.45951 7.04049 6.45825 7.05869 6.45715C7.05791 6.47951 7.05733 6.49369 7.05674 6.50788C7.06021 6.50863 7.06369 6.50939 7.06729 6.51027C7.07365 6.49994 7.07999 6.48935 7.0897 6.47353C7.10229 6.48222 7.11446 6.49297 7.12853 6.50032C7.15236 6.51252 7.17763 6.52237 7.20196 6.53429C7.22942 6.54788 7.25626 6.55869 7.26513 6.5961C7.27339 6.63073 7.28636 6.59092 7.29635 6.59818C7.32124 6.60817 7.34782 6.61554 7.37092 6.62879C7.38646 6.63775 7.39736 6.65518 7.41076 6.6683C7.4162 6.67357 7.42499 6.68292 7.42851 6.6815C7.46998 6.66558 7.4906 6.69985 7.51833 6.71687C7.52395 6.72035 7.53031 6.72303 7.53652 6.72534C7.57033 6.73816 7.60402 6.75112 7.63794 6.76356C7.65438 6.76967 7.67276 6.7729 7.68814 6.78123C7.73941 6.80969 7.79226 6.83618 7.83904 6.87057C7.87374 6.89624 7.91215 6.91259 7.94943 6.93255C7.95764 6.93695 7.96288 6.94695 7.97101 6.95249C8.00244 6.97294 8.03092 7.00588 8.06159 7.01679C8.09149 7.02747 8.1218 7.03903 8.14981 7.05362C8.19017 7.07423 8.2282 7.10003 8.26667 7.12428C8.30043 7.14565 8.33396 7.16755 8.36664 7.19063C8.3837 7.20271 8.39848 7.21833 8.41494 7.23133C8.42561 7.23971 8.43761 7.24638 8.44912 7.25358C8.45331 7.25622 8.46073 7.2567 8.46227 7.26008C8.47896 7.29514 8.51437 7.30969 8.54169 7.33273C8.5578 7.34638 8.57792 7.35515 8.59524 7.36723C8.6338 7.39377 8.67128 7.42202 8.71021 7.44817C8.78834 7.50096 8.86817 7.55165 8.94558 7.60549C9.01327 7.65257 9.07929 7.70227 9.1448 7.75225C9.16191 7.76535 9.17464 7.78399 9.18992 7.79959C9.19365 7.80352 9.19911 7.80611 9.20406 7.80847C9.21132 7.8115 9.21989 7.81205 9.22631 7.81627C9.26264 7.84124 9.29799 7.86727 9.33432 7.89225C9.34402 7.89876 9.3559 7.90237 9.3656 7.90887C9.38919 7.92478 9.41218 7.94161 9.43543 7.95842C9.43754 7.96013 9.43863 7.96506 9.44056 7.96537C9.49829 7.97355 9.53499 8.01752 9.57537 8.05139C9.6159 8.08564 9.64918 8.13038 9.68013 8.1742C9.70069 8.20375 9.68604 8.22704 9.64973 8.23472C9.59848 8.24555 9.58869 8.26252 9.60594 8.3116C9.60924 8.32103 9.61432 8.33015 9.61687 8.33961C9.61941 8.34908 9.62213 8.35969 9.62006 8.36883C9.61374 8.39932 9.55011 8.43577 9.52108 8.42441C9.43049 8.38882 9.34085 8.35166 9.25047 8.31505C9.2178 8.30179 9.18429 8.29023 9.15256 8.2749C9.1307 8.26428 9.11119 8.24846 9.08265 8.22994C9.04883 8.23626 8.96006 8.1886 8.95484 8.15653C8.94018 8.15379 8.92556 8.15501 8.9151 8.14879C8.87211 8.12305 8.83129 8.09417 8.78817 8.06857C8.75668 8.04979 8.7216 8.03701 8.69132 8.01665C8.67258 8.00425 8.65926 7.98359 8.64465 7.96567C8.63996 7.96012 8.63849 7.95188 8.63326 7.93895L8.63311 7.93832ZM8.24488 7.20577C8.21747 7.24206 8.21781 7.24728 8.25353 7.26654C8.26304 7.27165 8.27589 7.2705 8.28661 7.27404C8.29437 7.27654 8.30195 7.28108 8.30803 7.28646C8.33249 7.30807 8.35418 7.33401 8.38142 7.35156C8.40353 7.36561 8.42405 7.37794 8.43799 7.40138C8.45549 7.4308 8.4778 7.43693 8.5076 7.42249C8.5166 7.43719 8.52329 7.45466 8.53524 7.46669C8.55265 7.48424 8.57327 7.49912 8.59409 7.51246C8.59867 7.51547 8.61011 7.50787 8.61842 7.50499C8.61468 7.49761 8.61291 7.48837 8.60736 7.48349C8.58436 7.46322 8.56076 7.44412 8.53678 7.42491C8.52796 7.41798 8.51568 7.414 8.50909 7.40546C8.4919 7.38368 8.48023 7.35621 8.44388 7.36313C8.43907 7.36408 8.43105 7.3547 8.42596 7.34878C8.41712 7.33816 8.40914 7.32661 8.40079 7.31546C8.3842 7.29276 8.36558 7.27679 8.34337 7.29284C8.33093 7.27496 8.31969 7.25869 8.3078 7.24181C8.25836 7.27592 8.26612 7.22024 8.24513 7.20576L8.24488 7.20577ZM8.22192 7.35786C8.22252 7.38935 8.29693 7.45441 8.32344 7.44724C8.29718 7.40898 8.26603 7.37946 8.22192 7.35786ZM8.51385 7.57113C8.50754 7.56308 8.50586 7.55932 8.5027 7.5569C8.48336 7.54222 8.46416 7.52767 8.44422 7.51391C8.44121 7.51186 8.43243 7.51259 8.43099 7.51495C8.42823 7.51927 8.42619 7.52892 8.42869 7.53099C8.44866 7.5487 8.46925 7.566 8.49104 7.58147C8.49419 7.58364 8.50484 7.57557 8.51385 7.57113ZM6.8557 6.84179C6.84812 6.85663 6.83565 6.87039 6.83868 6.87614C6.84612 6.89014 6.85983 6.90108 6.87261 6.91142C6.87591 6.91422 6.8864 6.91164 6.89136 6.90812C6.8941 6.90623 6.89475 6.89702 6.89304 6.89249C6.88824 6.88069 6.8823 6.86932 6.8755 6.85861C6.87184 6.85302 6.86506 6.84946 6.8557 6.84179ZM7.47921 7.20922C7.48653 7.22998 7.49178 7.24661 7.49853 7.26242C7.50035 7.26656 7.50844 7.27109 7.51223 7.26992C7.51639 7.26886 7.52096 7.26179 7.52128 7.25693C7.52254 7.24042 7.52201 7.22373 7.52204 7.2051C7.5092 7.20625 7.49967 7.20726 7.47921 7.20922ZM7.89512 7.48942C7.88959 7.46884 7.88443 7.44812 7.87777 7.42797C7.87621 7.42408 7.86813 7.4198 7.86382 7.42048C7.85976 7.42115 7.85516 7.42746 7.85318 7.43226C7.83964 7.46737 7.86971 7.476 7.89512 7.48942ZM8.19679 7.36115C8.19111 7.31442 8.17523 7.30956 8.12861 7.29865C8.14519 7.32108 8.15979 7.34194 8.17601 7.36159C8.17867 7.36454 8.18826 7.36161 8.19692 7.36127L8.19679 7.36115ZM7.27208 7.1531C7.28448 7.13755 7.29308 7.12611 7.30596 7.10979C7.2869 7.10837 7.2773 7.1076 7.27039 7.10711C7.26542 7.09442 7.26144 7.08411 7.25759 7.07393C7.25357 7.07537 7.2498 7.07679 7.24577 7.07823C7.25313 7.09975 7.26074 7.12127 7.27195 7.15323L7.27208 7.1531ZM8.35777 7.4603C8.34666 7.49251 8.37995 7.49527 8.38941 7.51187C8.39189 7.51662 8.40635 7.51452 8.41532 7.51544C8.41549 7.51339 8.41554 7.51122 8.41558 7.50905C8.3971 7.49345 8.37875 7.47797 8.35777 7.4603ZM7.80564 7.42712C7.81051 7.42769 7.81526 7.4284 7.82013 7.42897C7.82114 7.41885 7.82366 7.40842 7.82251 7.39877C7.82182 7.3942 7.81402 7.39043 7.80952 7.38627C7.80828 7.4001 7.80689 7.41355 7.80565 7.42737L7.80564 7.42712ZM7.72765 7.37126C7.72484 7.36792 7.72216 7.36471 7.71935 7.36138C7.71002 7.35792 7.70082 7.35433 7.69129 7.35215C7.69053 7.35218 7.68444 7.36595 7.68589 7.36704C7.69329 7.37363 7.70208 7.37979 7.71149 7.3821C7.71562 7.38321 7.72206 7.37518 7.72765 7.37126ZM9.34719 7.96306C9.33463 7.96151 9.32553 7.96047 9.30835 7.95834C9.32222 7.9768 9.33152 7.98932 9.34417 8.00592C9.34541 7.9889 9.34624 7.97764 9.34719 7.96306Z" fill="white"/>
</g>
</g>
</g>
<mask id="mask8_26_3920" style="mask-type:luminance" maskUnits="userSpaceOnUse" x="8" y="3" width="5" height="5">
<path d="M8.54688 4.76758L9.61193 3.61506L12.5273 6.30879L11.4623 7.4613L8.54688 4.76758Z" fill="white"/>
</mask>
<g mask="url(#mask8_26_3920)">
<mask id="mask9_26_3920" style="mask-type:luminance" maskUnits="userSpaceOnUse" x="3" y="3" width="10" height="9">
<path d="M3.88268 5.29706L10.5367 3.46496L12.2095 9.54043L5.55557 11.3724L3.88268 5.29706Z" fill="white"/>
</mask>
<g mask="url(#mask9_26_3920)">
<mask id="mask10_26_3920" style="mask-type:luminance" maskUnits="userSpaceOnUse" x="3" y="3" width="10" height="9">
<path d="M3.88268 5.29706L10.5367 3.46496L12.2095 9.54043L5.55557 11.3724L3.88268 5.29706Z" fill="white"/>
</mask>
<g mask="url(#mask10_26_3920)">
<path d="M10.765 6.58307C10.7454 6.54684 10.7271 6.51005 10.7058 6.47492C10.6844 6.4394 10.6601 6.40591 10.6357 6.36962C10.624 6.37799 10.6172 6.38298 10.6078 6.38974C10.595 6.372 10.5781 6.35787 10.5935 6.33187C10.6018 6.31789 10.5779 6.26614 10.559 6.25209C10.5575 6.25559 10.5561 6.25897 10.5543 6.26197C10.5507 6.26773 10.547 6.27387 10.5423 6.2789C10.5414 6.27983 10.5325 6.27623 10.5324 6.27495C10.5327 6.26754 10.5334 6.25961 10.536 6.25274C10.5395 6.24342 10.5514 6.23134 10.5487 6.2266C10.5405 6.21174 10.5292 6.19662 10.5152 6.18786C10.487 6.17009 10.4618 6.15195 10.4524 6.11749C10.4498 6.10777 10.4422 6.09876 10.4352 6.09086C10.4205 6.07409 10.4018 6.05978 10.3905 6.04121C10.3858 6.03337 10.3952 6.01679 10.398 6.00443C10.3948 5.99486 10.3893 5.98385 10.3878 5.97243C10.3838 5.94222 10.3639 5.92183 10.3334 5.91997C10.3135 5.91872 10.2837 5.88557 10.28 5.85739C10.2903 5.86247 10.2985 5.86828 10.3075 5.87022C10.3128 5.87141 10.3193 5.86669 10.3255 5.86453C10.3226 5.85916 10.3201 5.84944 10.3169 5.84918C10.3035 5.84792 10.2934 5.82676 10.2763 5.84287C10.2747 5.84434 10.2536 5.83024 10.2473 5.81978C10.2201 5.77479 10.1956 5.7283 10.1689 5.68304C10.1557 5.66047 10.1568 5.64461 10.1766 5.62188C10.1667 5.59382 10.1569 5.56614 10.147 5.53859C10.1355 5.50664 10.1269 5.50009 10.0833 5.49301C10.1083 5.4697 10.0983 5.44674 10.0836 5.42232C10.0598 5.43053 10.0544 5.41671 10.0533 5.39481C10.0511 5.34144 10.0289 5.29473 10.0013 5.25002C9.98506 5.22399 9.97183 5.19606 9.95501 5.1707C9.94442 5.15453 9.92959 5.14083 9.91356 5.12258C9.93247 5.04899 9.89799 4.99013 9.83291 4.94128C9.88288 4.91431 9.8381 4.88545 9.83271 4.85887C9.82704 4.83154 9.81071 4.80565 9.79547 4.7815C9.79193 4.77603 9.77407 4.77941 9.76001 4.77869C9.76012 4.7783 9.76153 4.76881 9.76682 4.76362C9.78168 4.74913 9.77762 4.74316 9.75976 4.73673C9.74811 4.73259 9.7383 4.72328 9.72375 4.71352C9.73682 4.70841 9.7455 4.70514 9.74989 4.70331C9.72891 4.67607 9.70744 4.64936 9.68722 4.62183C9.68303 4.616 9.67944 4.60581 9.6815 4.59986C9.68904 4.58081 9.68152 4.56796 9.66986 4.55401C9.64655 4.52584 9.64379 4.48818 9.62955 4.45711C9.61363 4.42227 9.61534 4.37525 9.57365 4.35342C9.56701 4.34998 9.55931 4.34238 9.55815 4.33566C9.55161 4.29918 9.5291 4.272 9.50918 4.24255C9.49509 4.22167 9.48794 4.19592 9.47909 4.17203C9.47239 4.15431 9.47436 4.13305 9.44528 4.12999C9.43631 4.12907 9.42984 4.10419 9.4224 4.0902C9.41015 4.06759 9.39716 4.04552 9.38566 4.02263C9.37488 4.00162 9.35936 3.98016 9.38864 3.95591C9.37229 3.9489 9.36022 3.94364 9.34802 3.93851C9.34756 3.93661 9.34749 3.93483 9.34703 3.93293C9.3548 3.9325 9.3626 3.93283 9.37006 3.93113C9.38712 3.92701 9.41614 3.93492 9.40439 3.89903C9.40365 3.89638 9.41208 3.88698 9.41452 3.88753C9.45079 3.89796 9.45563 3.86536 9.47164 3.84751C9.4764 3.84209 9.48577 3.837 9.49255 3.83762C9.51841 3.83966 9.54489 3.84155 9.56968 3.84874C9.58361 3.85278 9.59439 3.86716 9.60663 3.87675C9.62873 3.8385 9.62349 3.82531 9.58453 3.80159C9.55485 3.78349 9.56708 3.75724 9.57787 3.72989C9.58554 3.73674 9.59175 3.74223 9.59784 3.7476C9.59822 3.74453 9.5985 3.74184 9.59889 3.73876C9.62638 3.74035 9.65386 3.74144 9.68163 3.74353C9.68624 3.74386 9.69389 3.747 9.69452 3.75004C9.70199 3.78738 9.74391 3.79249 9.76077 3.82206C9.77668 3.85001 9.80268 3.87182 9.81946 3.89935C9.84771 3.94608 9.87123 3.99554 9.89824 4.04309C9.91894 4.0794 9.94299 4.1134 9.96357 4.14984C9.98551 4.18853 10.0049 4.22833 10.0254 4.26784C10.0305 4.27746 10.0356 4.28683 10.0408 4.29632C10.053 4.31791 10.0661 4.33883 10.0772 4.3611C10.0977 4.40163 10.1183 4.44228 10.1363 4.48392C10.1524 4.52169 10.1634 4.56157 10.1798 4.59907C10.1899 4.62189 10.2067 4.64202 10.2194 4.66385C10.2252 4.67383 10.2312 4.68532 10.2318 4.6964C10.2333 4.72607 10.2373 4.75232 10.2603 4.77552C10.2732 4.78866 10.2759 4.81178 10.2858 4.83716C10.2898 4.843 10.3014 4.85453 10.3049 4.8683C10.3153 4.90935 10.3323 4.94542 10.356 4.98149C10.3829 5.02304 10.3961 5.07329 10.4159 5.11933C10.4236 5.13753 10.4324 5.15517 10.4418 5.17253C10.4622 5.20873 10.4809 5.24614 10.5044 5.27991C10.5297 5.31629 10.5463 5.35468 10.5598 5.39688C10.5687 5.42498 10.5986 5.44574 10.616 5.47185C10.6317 5.49547 10.6436 5.52192 10.6568 5.54717C10.6623 5.55767 10.6665 5.56886 10.6728 5.57907C10.7007 5.62403 10.7291 5.66871 10.7574 5.71326C10.7585 5.71501 10.7605 5.71684 10.7604 5.71825C10.7506 5.78727 10.8199 5.81962 10.8348 5.87849C10.8417 5.90577 10.8661 5.92828 10.8816 5.9537C10.8928 5.97214 10.9029 5.99126 10.9132 6.01037C10.9147 6.01299 10.9147 6.01669 10.9163 6.01867C10.9595 6.06762 10.9694 6.1342 11.0055 6.187C11.0082 6.19097 11.0111 6.1966 11.015 6.19798C11.042 6.20699 11.0412 6.23152 11.0485 6.25292C11.0578 6.28049 11.0711 6.30701 11.0861 6.33194C11.1143 6.37829 11.1461 6.42245 11.1734 6.46922C11.1836 6.48705 11.1848 6.50729 11.2029 6.52495C11.2221 6.54346 11.2271 6.5763 11.2411 6.60127C11.2515 6.61923 11.2665 6.63433 11.2789 6.65144C11.295 6.67365 11.3122 6.69568 11.3259 6.71963C11.3521 6.76593 11.3755 6.81387 11.4017 6.86017C11.4097 6.87439 11.4227 6.88588 11.4342 6.89779C11.4789 6.94426 11.495 7.0055 11.5205 7.06216C11.5261 7.07495 11.5336 7.08678 11.5398 7.09941C11.5431 7.10643 11.5495 7.11549 11.5476 7.12131C11.5328 7.16514 11.5462 7.20301 11.5642 7.24325C11.5756 7.2682 11.5735 7.29915 11.5761 7.32763C11.5765 7.33118 11.5679 7.33969 11.5652 7.3389C11.5563 7.33683 11.5425 7.33291 11.5407 7.32685C11.5351 7.30717 11.5247 7.29661 11.5051 7.29126C11.4984 7.28948 11.4939 7.27818 11.4893 7.27071C11.4821 7.25913 11.4753 7.24727 11.4677 7.23431C11.4588 7.24155 11.4512 7.25129 11.4478 7.25002C11.4181 7.23907 11.4016 7.25618 11.3825 7.27441C11.3655 7.29065 11.3469 7.29113 11.3265 7.2728C11.3138 7.26131 11.2939 7.25763 11.2774 7.24973C11.2717 7.24715 11.2663 7.24366 11.2616 7.23977C11.257 7.23599 11.2542 7.22998 11.2496 7.22672C11.2147 7.20181 11.1771 7.18033 11.1451 7.15225C11.1122 7.12332 11.0839 7.08833 11.0544 7.05543C11.0317 7.0303 11.0102 7.0041 10.9882 6.9783C10.9697 6.95658 10.9506 6.93526 10.933 6.91261C10.9169 6.89181 10.901 6.8705 10.8882 6.84765C10.8841 6.84016 10.8895 6.82655 10.8918 6.81612C10.8939 6.80749 10.8979 6.79917 10.901 6.79076C10.8911 6.78974 10.8804 6.78596 10.8712 6.78849C10.8444 6.79592 10.8415 6.77014 10.8293 6.75888C10.8205 6.75069 10.8171 6.73653 10.8113 6.72477C10.8439 6.69771 10.8423 6.69892 10.8126 6.66564C10.7967 6.64777 10.7885 6.62271 10.7763 6.60112C10.7726 6.5945 10.7676 6.5887 10.7632 6.58263L10.7637 6.58312L10.765 6.58307Z" fill="white"/>
</g>
</g>
</g>
</g>
<defs>
<clipPath id="clip0_26_3920">
<rect width="32" height="32" fill="white"/>
</clipPath>
</defs>
</svg>
