<svg id="a" height="300" viewBox="0 0 170 170" width="300" xmlns="http://www.w3.org/2000/svg" data-name="svg" version="1.1" xmlns:xlink="http://www.w3.org/1999/xlink" xmlns:svgjs="http://svgjs.dev/svgjs"><g width="100%" height="100%" transform="matrix(1,0,0,1,0,0)"><path d="m151.167 101.446c2.819-11.004 2.774-22.769-.184-33.644 16.508-13.565 1.264-38.949-18.639-31.21-8.091-7.767-17.956-13.339-28.89-16.316-3.866-20.259-32.594-20.252-36.463-.011-10.943 2.975-20.864 8.594-29.052 16.453-20.182-8.203-35.704 17.863-18.59 31.33-2.847 10.744-2.904 22.382-.18 33.15-16.586 13.319-1.788 38.819 18.167 31.438 8.301 8.115 18.427 13.92 29.64 16.995 3.792 20.387 32.713 20.37 36.494-.003 11.145-3.047 21.219-8.815 29.489-16.886 19.688 6.96 34.171-17.924 18.209-31.297zm-3.192-47.955c0 4.584-3.817 8.313-8.509 8.313-11.29-.459-11.286-16.169 0-16.627 4.692 0 8.509 3.73 8.509 8.313zm-62.753-38.491c5.027-.026 9.05 4.351 8.451 9.251-1.531 10.299-16.593 9.535-16.96-.938 0-4.584 3.817-8.313 8.509-8.313zm-54.688 30.178c4.692 0 8.509 3.729 8.509 8.313-.465 11.028-16.555 11.025-17.018 0 0-4.584 3.817-8.313 8.509-8.313zm-3.37 39.778c0-4.487.528-8.922 1.565-13.242 15.47 1.648 26.019-16.047 17.02-28.626 6.424-5.91 14.036-10.246 22.384-12.755 6.327 14.981 27.847 14.978 34.176.01 8.283 2.491 15.8 6.746 22.115 12.52-9.37 12.774 1.444 30.776 17.239 28.801 2.053 8.366 2.105 17.339.179 25.812-16.154-2.179-27.062 16.499-17.058 29.25-6.451 5.949-14.101 10.318-22.505 12.849-6.367-14.864-27.753-14.854-34.112.002-8.523-2.574-16.27-7.019-22.781-13.071 9.629-12.661-.962-30.865-16.841-29.088-.912-4.067-1.379-8.24-1.379-12.462zm-5.139 30.665c0-3.413 2.117-6.349 5.134-7.628.034-.016.07-.028.104-.044 5.351-2.33 11.918 1.842 11.78 7.673-.464 11.027-16.555 11.025-17.018 0zm63.197 39.379c-4.692 0-8.509-3.729-8.509-8.313.369-10.488 15.454-11.228 16.962-.919 0 .042.012.084.014.125.502 4.856-3.495 9.13-8.468 9.107zm54.244-31.065c-4.692 0-8.509-3.729-8.509-8.313.465-11.028 16.555-11.025 17.018 0 0 4.584-3.817 8.313-8.509 8.313z" fill="#ffffff" fill-opacity="1" data-original-color="#000000ff" stroke="none" stroke-opacity="1"/><path d="m85.222 114.35c16.414 0 29.767-13.192 29.767-29.408-1.63-39.012-57.909-39.001-59.533 0 0 16.216 13.353 29.408 29.766 29.408zm0-48.817c10.899 0 19.767 8.706 19.767 19.408-1.081 25.746-38.456 25.739-39.533 0 0-10.702 8.867-19.408 19.766-19.408z" fill="#ffffff" fill-opacity="1" data-original-color="#000000ff" stroke="none" stroke-opacity="1"/></g></svg>