<svg xmlns="http://www.w3.org/2000/svg" xmlns:xlink="http://www.w3.org/1999/xlink" width="400" zoomAndPan="magnify" viewBox="0 0 300 299.999988" height="400" preserveAspectRatio="xMidYMid meet" version="1.0"><defs><clipPath id="af82778de4"><path d="M 16.175781 26.152344 L 240 26.152344 L 240 273.652344 L 16.175781 273.652344 Z M 16.175781 26.152344 " clip-rule="nonzero"/></clipPath></defs><g clip-path="url(#af82778de4)"><path fill="#ff0000" d="M 136.84375 273.773438 C 179.582031 273.773438 213.183594 256.800781 233.835938 228.515625 C 249.238281 207.453125 233.835938 177.804688 207.730469 177.804688 L 207.59375 177.804688 C 198.121094 177.804688 189.328125 182.167969 182.988281 189.257812 C 172.152344 201.457031 156.40625 209.089844 138.820312 209.089844 C 103.925781 209.089844 76.046875 178.828125 80.070312 143.113281 C 83.066406 116.257812 104.605469 94.515625 131.394531 91.246094 C 152.042969 88.722656 170.855469 96.832031 183.191406 110.804688 C 189.394531 117.828125 198.1875 122.121094 207.59375 122.121094 L 207.730469 122.121094 C 233.835938 122.121094 249.238281 92.402344 233.835938 71.410156 C 213.183594 43.191406 179.511719 26.152344 136.84375 26.152344 C 62.210938 26.152344 16.476562 77.410156 16.476562 149.996094 C 16.476562 222.585938 62.210938 273.839844 136.84375 273.839844 Z M 136.84375 273.773438 " fill-opacity="1" fill-rule="nonzero"/></g><path fill="#ff0000" d="M 282.160156 147.679688 C 281.136719 138.957031 274.117188 131.730469 265.390625 130.640625 C 261.4375 130.09375 257.691406 130.777344 254.488281 132.34375 C 242.832031 137.863281 230.425781 141.546875 217.542969 141.546875 L 201.597656 141.546875 C 184.898438 141.546875 169.152344 135.207031 155.863281 125.050781 C 150.476562 120.960938 143.796875 118.507812 136.503906 118.574219 C 119.875 118.710938 105.902344 132.480469 105.425781 149.109375 C 104.945312 166.902344 119.191406 181.417969 136.84375 181.417969 C 154.5 181.417969 150.679688 178.964844 155.996094 174.875 C 169.085938 164.789062 184.691406 158.449219 201.253906 158.449219 L 220.75 158.449219 C 232.402344 158.449219 243.511719 161.992188 253.875 167.378906 C 256.53125 168.742188 259.597656 169.558594 262.800781 169.558594 C 274.320312 169.558594 283.523438 159.539062 282.226562 147.746094 Z M 282.160156 147.679688 " fill-opacity="1" fill-rule="nonzero"/></svg>