<svg xmlns="http://www.w3.org/2000/svg" xmlns:xlink="http://www.w3.org/1999/xlink" width="400" zoomAndPan="magnify" viewBox="0 0 300 299.999988" height="400" preserveAspectRatio="xMidYMid meet" version="1.0"><defs><clipPath id="3ddfd754d4"><path d="M 87 40 L 283.464844 40 L 283.464844 268.484375 L 87 268.484375 Z M 87 40 " clip-rule="nonzero"/></clipPath><clipPath id="4f4d08554d"><path d="M 73 31.484375 L 113 31.484375 L 113 119 L 73 119 Z M 73 31.484375 " clip-rule="nonzero"/></clipPath><clipPath id="7bb60f3813"><path d="M 16.464844 151 L 113 151 L 113 216 L 16.464844 216 Z M 16.464844 151 " clip-rule="nonzero"/></clipPath></defs><g clip-path="url(#3ddfd754d4)"><path fill="#ff0000" d="M 283.535156 268.449219 L 205.84375 268.449219 L 126.65625 179.125 L 87.8125 135.308594 L 88.035156 135.046875 L 126.65625 91.484375 L 171.578125 40.8125 L 249.269531 40.8125 L 165.503906 135.308594 Z M 283.535156 268.449219 " fill-opacity="1" fill-rule="nonzero"/></g><path fill="#ff0000" d="M 73.621094 123.335938 L 73.914062 123.15625 L 73.6875 123.414062 Z M 73.621094 123.335938 " fill-opacity="1" fill-rule="nonzero"/><g clip-path="url(#4f4d08554d)"><path fill="#ff0000" d="M 112.535156 75.121094 L 73.914062 118.683594 L 73.914062 31.554688 Z M 112.535156 75.121094 " fill-opacity="1" fill-rule="nonzero"/></g><g clip-path="url(#7bb60f3813)"><path fill="#ff0000" d="M 112.535156 195.046875 L 94.148438 215.789062 L 16.464844 215.789062 L 73.6875 151.234375 Z M 112.535156 195.046875 " fill-opacity="1" fill-rule="nonzero"/></g></svg>