<svg xmlns="http://www.w3.org/2000/svg" xmlns:xlink="http://www.w3.org/1999/xlink" width="2836" zoomAndPan="magnify" viewBox="0 0 2127 257.99999" height="344" preserveAspectRatio="xMidYMid meet" version="1.0"><path fill="#ffffff" d="M 2123.878906 149.683594 C 2126.265625 202.617188 2064.558594 233.050781 2024.085938 198.890625 C 2017.820312 193.601562 2011.964844 188.402344 2006.414062 183.488281 C 1974.820312 155.445312 1953.996094 136.882812 1907.089844 136.515625 C 1860.074219 136.148438 1838.996094 154.375 1807.117188 181.914062 C 1769.996094 213.910156 1719.195312 257.859375 1626.085938 257.125 C 1532.976562 256.390625 1482.796875 211.644531 1446.128906 179.070312 C 1414.640625 151.027344 1393.8125 132.46875 1346.800781 132.097656 C 1299.886719 131.730469 1278.808594 149.957031 1246.929688 177.496094 C 1209.808594 209.492188 1159.011719 253.441406 1065.898438 252.707031 C 972.789062 251.96875 922.609375 207.226562 885.941406 174.648438 C 854.347656 146.609375 833.523438 128.050781 786.609375 127.679688 C 739.699219 127.308594 718.617188 145.535156 686.738281 173.078125 C 649.617188 205.074219 598.816406 249.023438 505.707031 248.285156 C 412.597656 247.550781 362.417969 202.808594 325.75 170.230469 C 294.261719 142.1875 273.433594 123.632812 226.523438 123.257812 C 179.507812 122.886719 158.429688 141.113281 126.546875 168.65625 C 118.09375 175.945312 108.925781 183.863281 98.703125 191.726562 C 58.378906 222.757812 -0.0117188 193.03125 1.160156 142.136719 C 1.1875 140.996094 1.214844 139.855469 1.246094 138.714844 C 1.730469 119.917969 10.898438 102.402344 26.058594 91.292969 C 68.015625 60.546875 155.089844 0.0742188 227.378906 0.644531 C 320.390625 1.382812 370.671875 46.023438 407.238281 78.703125 C 438.832031 106.742188 459.65625 125.300781 506.566406 125.671875 C 553.480469 126.046875 574.558594 107.816406 606.4375 80.273438 C 643.558594 48.175781 694.355469 4.328125 787.464844 5.066406 C 880.574219 5.800781 930.757812 50.441406 967.425781 83.121094 C 998.914062 111.164062 1019.742188 129.71875 1066.753906 130.09375 C 1113.667969 130.460938 1134.746094 112.234375 1166.621094 84.695312 C 1203.746094 52.597656 1254.542969 8.75 1347.652344 9.484375 C 1440.761719 10.222656 1490.941406 54.863281 1527.613281 87.542969 C 1559.207031 115.585938 1580.03125 134.140625 1626.941406 134.511719 C 1673.855469 134.878906 1694.933594 116.652344 1726.910156 89.113281 C 1764.035156 57.015625 1814.832031 13.167969 1907.941406 13.90625 C 1979.699219 14.46875 2061.4375 72.714844 2100.320312 102.851562 C 2114.410156 113.769531 2122.988281 130.324219 2123.800781 148.132812 C 2123.835938 148.644531 2123.859375 149.160156 2123.878906 149.683594 Z M 2123.878906 149.683594 " fill-opacity="1" fill-rule="nonzero"/><path fill="#ffffff" d="M 2123.878906 149.683594 C 2126.265625 202.617188 2064.558594 233.050781 2024.085938 198.890625 C 2017.820312 193.601562 2011.964844 188.402344 2006.414062 183.488281 C 1974.820312 155.445312 1953.996094 136.882812 1907.089844 136.515625 C 1860.074219 136.148438 1838.996094 154.375 1807.117188 181.914062 C 1769.996094 213.910156 1719.195312 257.859375 1626.085938 257.125 C 1532.976562 256.390625 1482.796875 211.644531 1446.128906 179.070312 C 1414.640625 151.027344 1393.8125 132.46875 1346.800781 132.097656 C 1299.886719 131.730469 1278.808594 149.957031 1246.929688 177.496094 C 1209.808594 209.492188 1159.011719 253.441406 1065.898438 252.707031 C 972.789062 251.96875 922.609375 207.226562 885.941406 174.648438 C 854.347656 146.609375 833.523438 128.050781 786.609375 127.679688 C 739.699219 127.308594 718.617188 145.535156 686.738281 173.078125 C 649.617188 205.074219 598.816406 249.023438 505.707031 248.285156 C 412.597656 247.550781 362.417969 202.808594 325.75 170.230469 C 294.261719 142.1875 273.433594 123.632812 226.523438 123.257812 C 179.507812 122.886719 158.429688 141.113281 126.546875 168.65625 C 118.09375 175.945312 108.925781 183.863281 98.703125 191.726562 C 58.378906 222.757812 -0.0117188 193.03125 1.160156 142.136719 C 1.1875 140.996094 1.214844 139.855469 1.246094 138.714844 C 1.730469 119.917969 10.898438 102.402344 26.058594 91.292969 C 68.015625 60.546875 155.089844 0.0742188 227.378906 0.644531 C 320.390625 1.382812 370.671875 46.023438 407.238281 78.703125 C 438.832031 106.742188 459.65625 125.300781 506.566406 125.671875 C 553.480469 126.046875 574.558594 107.816406 606.4375 80.273438 C 643.558594 48.175781 694.355469 4.328125 787.464844 5.066406 C 880.574219 5.800781 930.757812 50.441406 967.425781 83.121094 C 998.914062 111.164062 1019.742188 129.71875 1066.753906 130.09375 C 1113.667969 130.460938 1134.746094 112.234375 1166.621094 84.695312 C 1203.746094 52.597656 1254.542969 8.75 1347.652344 9.484375 C 1440.761719 10.222656 1490.941406 54.863281 1527.613281 87.542969 C 1559.207031 115.585938 1580.03125 134.140625 1626.941406 134.511719 C 1673.855469 134.878906 1694.933594 116.652344 1726.910156 89.113281 C 1764.035156 57.015625 1814.832031 13.167969 1907.941406 13.90625 C 1979.699219 14.46875 2061.4375 72.714844 2100.320312 102.851562 C 2114.410156 113.769531 2122.988281 130.324219 2123.800781 148.132812 C 2123.835938 148.644531 2123.859375 149.160156 2123.878906 149.683594 Z M 2123.878906 149.683594 " fill-opacity="1" fill-rule="nonzero"/></svg>