<svg xmlns="http://www.w3.org/2000/svg" xmlns:xlink="http://www.w3.org/1999/xlink" width="400" zoomAndPan="magnify" viewBox="0 0 300 120" height="150" preserveAspectRatio="xMidYMid meet" version="1.0"><defs><g/><clipPath id="c6a19754d2"><rect x="0" width="190" y="0" height="83"/></clipPath><clipPath id="dfdbc09f21"><rect x="0" width="68" y="0" height="28"/></clipPath></defs><g transform="matrix(1, 0, 0, 1, 51, 0)"><g clip-path="url(#c6a19754d2)"><g fill="#000000" fill-opacity="1"><g transform="translate(1.286428, 75.050443)"><g><path d="M 30.046875 -47.34375 L 17.8125 -47.34375 L 17.8125 -35.578125 L 38.0625 -35.578125 C 38.0625 -32.984375 37.492188 -30.675781 36.359375 -28.65625 C 35.222656 -26.644531 33.585938 -25.054688 31.453125 -23.890625 C 29.328125 -22.734375 26.800781 -22.15625 23.875 -22.15625 L 17.8125 -22.15625 L 17.8125 -12.890625 C 17.8125 -10.390625 17.128906 -8.109375 15.765625 -6.046875 C 14.410156 -3.984375 12.648438 -2.347656 10.484375 -1.140625 C 8.316406 0.0546875 5.984375 0.65625 3.484375 0.65625 L 3.28125 0.65625 L 3.28125 -48.0625 C 3.28125 -50.519531 3.882812 -52.765625 5.09375 -54.796875 C 6.300781 -56.835938 7.898438 -58.472656 9.890625 -59.703125 C 11.890625 -60.929688 14.113281 -61.566406 16.5625 -61.609375 L 16.5625 -61.671875 L 44.046875 -61.671875 C 44.046875 -58.953125 43.453125 -56.507812 42.265625 -54.34375 C 41.085938 -52.175781 39.457031 -50.46875 37.375 -49.21875 C 35.289062 -47.96875 32.847656 -47.34375 30.046875 -47.34375 Z M 30.046875 -47.34375 "/></g></g></g><g fill="#000000" fill-opacity="1"><g transform="translate(42.37606, 75.050443)"><g><path d="M 47.40625 -56.40625 C 48.019531 -55.445312 48.5 -54.382812 48.84375 -53.21875 C 49.195312 -52.0625 49.375 -50.847656 49.375 -49.578125 L 49.375 -12.625 C 49.375 -10.164062 48.757812 -7.984375 47.53125 -6.078125 C 46.3125 -4.171875 44.660156 -2.625 42.578125 -1.4375 C 40.492188 -0.257812 38.203125 0.4375 35.703125 0.65625 C 34.910156 0.738281 33.769531 0.800781 32.28125 0.84375 C 30.789062 0.894531 29.273438 0.929688 27.734375 0.953125 C 26.203125 0.972656 25 0.984375 24.125 0.984375 C 22.851562 0.984375 21.625 0.945312 20.4375 0.875 C 19.257812 0.8125 18.125 0.738281 17.03125 0.65625 C 15.144531 0.519531 13.359375 0.132812 11.671875 -0.5 C 9.984375 -1.132812 8.523438 -2.0625 7.296875 -3.28125 C 6.335938 -4.070312 5.679688 -4.90625 5.328125 -5.78125 C 4.671875 -6.789062 4.164062 -7.875 3.8125 -9.03125 C 3.457031 -10.195312 3.28125 -11.394531 3.28125 -12.625 L 3.28125 -49.578125 C 3.28125 -52.023438 3.90625 -54.203125 5.15625 -56.109375 C 6.40625 -58.023438 8.0625 -59.570312 10.125 -60.75 C 12.1875 -61.9375 14.488281 -62.640625 17.03125 -62.859375 C 19.4375 -63.117188 21.910156 -63.25 24.453125 -63.25 C 25.285156 -63.25 26.445312 -63.226562 27.9375 -63.1875 C 29.425781 -63.144531 30.90625 -63.097656 32.375 -63.046875 C 33.84375 -63.003906 34.953125 -62.941406 35.703125 -62.859375 C 37.585938 -62.722656 39.375 -62.335938 41.0625 -61.703125 C 42.75 -61.066406 44.207031 -60.132812 45.4375 -58.90625 C 46.394531 -58.125 47.050781 -57.289062 47.40625 -56.40625 Z M 35.703125 -16.828125 L 35.703125 -45.703125 C 35.523438 -46.753906 35.117188 -47.597656 34.484375 -48.234375 C 33.847656 -48.867188 32.984375 -49.1875 31.890625 -49.1875 L 20.78125 -49.25 C 19.726562 -49.25 18.867188 -48.921875 18.203125 -48.265625 C 17.546875 -47.609375 17.15625 -46.773438 17.03125 -45.765625 L 17.03125 -16.828125 C 17.15625 -15.816406 17.546875 -14.984375 18.203125 -14.328125 C 18.867188 -13.671875 19.75 -13.34375 20.84375 -13.34375 L 31.890625 -13.34375 C 32.984375 -13.34375 33.847656 -13.671875 34.484375 -14.328125 C 35.117188 -14.984375 35.523438 -15.816406 35.703125 -16.828125 Z M 35.703125 -16.828125 "/></g></g></g><g fill="#000000" fill-opacity="1"><g transform="translate(89.514145, 75.050443)"><g><path d="M 47.40625 -56.40625 C 48.019531 -55.445312 48.5 -54.382812 48.84375 -53.21875 C 49.195312 -52.0625 49.375 -50.847656 49.375 -49.578125 L 49.375 -12.625 C 49.375 -10.164062 48.757812 -7.984375 47.53125 -6.078125 C 46.3125 -4.171875 44.660156 -2.625 42.578125 -1.4375 C 40.492188 -0.257812 38.203125 0.4375 35.703125 0.65625 C 34.910156 0.738281 33.769531 0.800781 32.28125 0.84375 C 30.789062 0.894531 29.273438 0.929688 27.734375 0.953125 C 26.203125 0.972656 25 0.984375 24.125 0.984375 C 22.851562 0.984375 21.625 0.945312 20.4375 0.875 C 19.257812 0.8125 18.125 0.738281 17.03125 0.65625 C 15.144531 0.519531 13.359375 0.132812 11.671875 -0.5 C 9.984375 -1.132812 8.523438 -2.0625 7.296875 -3.28125 C 6.335938 -4.070312 5.679688 -4.90625 5.328125 -5.78125 C 4.671875 -6.789062 4.164062 -7.875 3.8125 -9.03125 C 3.457031 -10.195312 3.28125 -11.394531 3.28125 -12.625 L 3.28125 -49.578125 C 3.28125 -52.023438 3.90625 -54.203125 5.15625 -56.109375 C 6.40625 -58.023438 8.0625 -59.570312 10.125 -60.75 C 12.1875 -61.9375 14.488281 -62.640625 17.03125 -62.859375 C 19.4375 -63.117188 21.910156 -63.25 24.453125 -63.25 C 25.285156 -63.25 26.445312 -63.226562 27.9375 -63.1875 C 29.425781 -63.144531 30.90625 -63.097656 32.375 -63.046875 C 33.84375 -63.003906 34.953125 -62.941406 35.703125 -62.859375 C 37.585938 -62.722656 39.375 -62.335938 41.0625 -61.703125 C 42.75 -61.066406 44.207031 -60.132812 45.4375 -58.90625 C 46.394531 -58.125 47.050781 -57.289062 47.40625 -56.40625 Z M 35.703125 -16.828125 L 35.703125 -45.703125 C 35.523438 -46.753906 35.117188 -47.597656 34.484375 -48.234375 C 33.847656 -48.867188 32.984375 -49.1875 31.890625 -49.1875 L 20.78125 -49.25 C 19.726562 -49.25 18.867188 -48.921875 18.203125 -48.265625 C 17.546875 -47.609375 17.15625 -46.773438 17.03125 -45.765625 L 17.03125 -16.828125 C 17.15625 -15.816406 17.546875 -14.984375 18.203125 -14.328125 C 18.867188 -13.671875 19.75 -13.34375 20.84375 -13.34375 L 31.890625 -13.34375 C 32.984375 -13.34375 33.847656 -13.671875 34.484375 -14.328125 C 35.117188 -14.984375 35.523438 -15.816406 35.703125 -16.828125 Z M 35.703125 -16.828125 "/></g></g></g><g fill="#000000" fill-opacity="1"><g transform="translate(138.558834, 75.050443)"><g><path d="M 25.4375 -62.71875 C 29.738281 -62.71875 33.609375 -61.816406 37.046875 -60.015625 C 40.492188 -58.222656 43.210938 -55.628906 45.203125 -52.234375 C 47.191406 -48.835938 48.1875 -44.726562 48.1875 -39.90625 L 48.1875 -20.71875 C 48.1875 -17.863281 47.617188 -15.175781 46.484375 -12.65625 C 45.347656 -10.132812 43.75 -7.910156 41.6875 -5.984375 C 39.625 -4.054688 37.210938 -2.53125 34.453125 -1.40625 C 31.691406 -0.289062 28.6875 0.265625 25.4375 0.265625 L 3.421875 0.265625 C 3.378906 0.265625 3.359375 0.265625 3.359375 0.265625 C 3.359375 0.265625 3.332031 0.265625 3.28125 0.265625 L 3.28125 -49.109375 C 3.28125 -51.484375 3.796875 -53.644531 4.828125 -55.59375 C 5.859375 -57.539062 7.28125 -59.140625 9.09375 -60.390625 C 10.914062 -61.640625 13.035156 -62.375 15.453125 -62.59375 L 15.453125 -62.71875 L 16.96875 -62.71875 C 16.96875 -62.71875 16.976562 -62.71875 17 -62.71875 C 17.019531 -62.71875 17.03125 -62.71875 17.03125 -62.71875 Z M 34.90625 -22.875 L 34.90625 -39.578125 C 34.90625 -41.335938 34.476562 -42.945312 33.625 -44.40625 C 32.769531 -45.875 31.628906 -47.066406 30.203125 -47.984375 C 28.785156 -48.910156 27.195312 -49.375 25.4375 -49.375 L 17.03125 -49.375 L 17.03125 -13.34375 C 17.03125 -13.300781 17.03125 -13.257812 17.03125 -13.21875 C 17.03125 -13.175781 17.03125 -13.128906 17.03125 -13.078125 L 25.4375 -13.078125 C 27.195312 -13.078125 28.785156 -13.523438 30.203125 -14.421875 C 31.628906 -15.328125 32.769531 -16.523438 33.625 -18.015625 C 34.476562 -19.503906 34.90625 -21.125 34.90625 -22.875 Z M 34.90625 -22.875 "/></g></g></g></g></g><g transform="matrix(1, 0, 0, 1, 172, 82)"><g clip-path="url(#dfdbc09f21)"><g fill="#000000" fill-opacity="1"><g transform="translate(0.990833, 19.713059)"><g><path d="M 0.25 -1.484375 C 1.300781 -0.25 2.601562 0.273438 4.21875 0.273438 C 6.933594 0.273438 9.054688 -1.277344 9.054688 -4.585938 L 9.054688 -15.214844 L 7.160156 -15.214844 L 7.160156 -4.605469 C 7.160156 -2.714844 5.976562 -1.414062 4.105469 -1.414062 C 2.78125 -1.414062 1.894531 -2.121094 1.230469 -2.917969 Z M 0.25 -1.484375 "/></g></g></g><g fill="#000000" fill-opacity="1"><g transform="translate(10.523083, 19.713059)"><g><path d="M 6.523438 0.273438 C 9.875 0.273438 11.972656 -2.328125 11.972656 -5.519531 C 11.972656 -8.710938 9.875 -11.289062 6.523438 -11.289062 C 3.171875 -11.289062 1.070312 -8.710938 1.070312 -5.519531 C 1.070312 -2.328125 3.171875 0.273438 6.523438 0.273438 Z M 6.523438 -1.253906 C 4.175781 -1.253906 2.851562 -3.261719 2.851562 -5.519531 C 2.851562 -7.753906 4.175781 -9.761719 6.523438 -9.761719 C 8.871094 -9.761719 10.171875 -7.753906 10.171875 -5.519531 C 10.171875 -3.261719 8.871094 -1.253906 6.523438 -1.253906 Z M 6.523438 -1.253906 "/></g></g></g><g fill="#000000" fill-opacity="1"><g transform="translate(22.267447, 19.713059)"><g><path d="M 10.855469 0 L 10.855469 -11.015625 L 9.144531 -11.015625 L 9.144531 -2.917969 C 8.507812 -2.03125 7.230469 -1.253906 5.882812 -1.253906 C 4.402344 -1.253906 3.421875 -1.824219 3.421875 -3.761719 L 3.421875 -11.015625 L 1.710938 -11.015625 L 1.710938 -3.238281 C 1.710938 -0.84375 2.917969 0.273438 5.222656 0.273438 C 6.867188 0.273438 8.300781 -0.59375 9.144531 -1.550781 L 9.144531 0 Z M 10.855469 0 "/></g></g></g><g fill="#000000" fill-opacity="1"><g transform="translate(33.532903, 19.713059)"><g><path d="M 3.421875 0 L 3.421875 -7.800781 C 3.921875 -8.691406 5.359375 -9.554688 6.410156 -9.554688 C 6.683594 -9.554688 6.886719 -9.535156 7.09375 -9.488281 L 7.09375 -11.246094 C 5.589844 -11.246094 4.3125 -10.402344 3.421875 -9.238281 L 3.421875 -11.015625 L 1.710938 -11.015625 L 1.710938 0 Z M 3.421875 0 "/></g></g></g><g fill="#000000" fill-opacity="1"><g transform="translate(39.758394, 19.713059)"><g><path d="M 10.855469 0 L 10.855469 -7.730469 C 10.855469 -10.125 9.648438 -11.289062 7.34375 -11.289062 C 5.703125 -11.289062 4.195312 -10.332031 3.421875 -9.417969 L 3.421875 -11.015625 L 1.710938 -11.015625 L 1.710938 0 L 3.421875 0 L 3.421875 -8.050781 C 4.058594 -8.941406 5.335938 -9.761719 6.683594 -9.761719 C 8.164062 -9.761719 9.144531 -9.144531 9.144531 -7.207031 L 9.144531 0 Z M 10.855469 0 "/></g></g></g><g fill="#000000" fill-opacity="1"><g transform="translate(51.02385, 19.713059)"><g><path d="M 10.308594 0 L 10.308594 -7.574219 C 10.308594 -10.242188 8.371094 -11.289062 6.042969 -11.289062 C 4.242188 -11.289062 2.828125 -10.695312 1.640625 -9.464844 L 2.441406 -8.28125 C 3.421875 -9.328125 4.492188 -9.808594 5.816406 -9.808594 C 7.414062 -9.808594 8.597656 -8.964844 8.597656 -7.480469 L 8.597656 -5.496094 C 7.710938 -6.523438 6.453125 -7.003906 4.949219 -7.003906 C 3.078125 -7.003906 1.09375 -5.839844 1.09375 -3.375 C 1.09375 -0.980469 3.078125 0.273438 4.949219 0.273438 C 6.433594 0.273438 7.6875 -0.25 8.597656 -1.253906 L 8.597656 0 Z M 8.597656 -2.328125 C 7.9375 -1.414062 6.773438 -0.957031 5.566406 -0.957031 C 3.96875 -0.957031 2.851562 -1.960938 2.851562 -3.351562 C 2.851562 -4.765625 3.96875 -5.769531 5.566406 -5.769531 C 6.773438 -5.769531 7.9375 -5.3125 8.597656 -4.402344 Z M 8.597656 -2.328125 "/></g></g></g><g fill="#000000" fill-opacity="1"><g transform="translate(61.741974, 19.713059)"><g><path d="M 3.421875 0 L 3.421875 -15.214844 L 1.710938 -15.214844 L 1.710938 0 Z M 3.421875 0 "/></g></g></g></g></g></svg>