<svg xmlns="http://www.w3.org/2000/svg" xmlns:xlink="http://www.w3.org/1999/xlink" width="400" zoomAndPan="magnify" viewBox="0 0 300 120" height="150" preserveAspectRatio="xMidYMid meet" version="1.0"><defs><g/><clipPath id="dbb439776a"><path d="M 223 6 L 236 6 L 236 69 L 223 69 Z M 223 6 " clip-rule="nonzero"/></clipPath><clipPath id="897dbb7415"><path d="M 193.527344 36.636719 L 223.445312 6.722656 L 256.507812 39.789062 L 226.59375 69.703125 Z M 193.527344 36.636719 " clip-rule="nonzero"/></clipPath><clipPath id="46836e9bef"><path d="M 193.527344 36.636719 L 223.445312 6.722656 L 256.507812 39.789062 L 226.59375 69.703125 Z M 193.527344 36.636719 " clip-rule="nonzero"/></clipPath><clipPath id="d9ee158b61"><path d="M 193.527344 36.636719 L 223.445312 6.722656 L 256.507812 39.789062 L 226.59375 69.703125 Z M 193.527344 36.636719 " clip-rule="nonzero"/></clipPath><clipPath id="86374c023c"><rect x="0" width="266" y="0" height="83"/></clipPath><clipPath id="75748dfb6e"><rect x="0" width="118" y="0" height="33"/></clipPath></defs><g transform="matrix(1, 0, 0, 1, 16, 7)"><g clip-path="url(#86374c023c)"><g clip-path="url(#dbb439776a)"><g clip-path="url(#897dbb7415)"><g clip-path="url(#46836e9bef)"><g clip-path="url(#d9ee158b61)"><path fill="#000000" d="M 223.648438 65.136719 L 223.527344 6.753906 C 230.675781 13.902344 234.964844 23.917969 235.019531 34.777344 L 235.097656 51.140625 L 229.335938 51.109375 L 229.40625 65.164062 C 229.414062 66.757812 228.132812 68.039062 226.542969 68.03125 C 224.949219 68.023438 223.652344 66.726562 223.648438 65.136719 Z M 223.648438 65.136719 " fill-opacity="1" fill-rule="nonzero"/></g></g></g></g><g fill="#000000" fill-opacity="1"><g transform="translate(0.985892, 65.365689)"><g><path d="M 6.859375 -43.96875 C 6.859375 -46.800781 7.28125 -49.238281 8.125 -51.28125 C 8.976562 -53.332031 10.113281 -55.023438 11.53125 -56.359375 C 12.945312 -57.691406 14.578125 -58.671875 16.421875 -59.296875 C 18.273438 -59.921875 20.238281 -60.234375 22.3125 -60.234375 C 23.5625 -60.234375 24.8125 -60.125 26.0625 -59.90625 C 27.320312 -59.6875 28.578125 -59.363281 29.828125 -58.9375 L 28.9375 -50.671875 L 26.234375 -51.078125 C 25.796875 -51.140625 25.398438 -51.179688 25.046875 -51.203125 C 24.691406 -51.234375 24.351562 -51.25 24.03125 -51.25 C 21.957031 -51.25 20.441406 -50.742188 19.484375 -49.734375 C 18.535156 -48.722656 18.0625 -47.265625 18.0625 -45.359375 L 18.0625 -40.546875 L 28.9375 -40.546875 L 28.9375 -30.484375 L 18.0625 -30.484375 L 18.0625 0 L 6.859375 0 L 6.859375 -30.484375 L 1.546875 -30.484375 L 1.546875 -36.453125 L 6.859375 -40.546875 Z M 6.859375 -43.96875 "/></g></g></g><g fill="#000000" fill-opacity="1"><g transform="translate(27.300132, 65.365689)"><g><path d="M 23.625 -41.6875 C 26.507812 -41.6875 29.234375 -41.125 31.796875 -40 C 34.359375 -38.882812 36.59375 -37.359375 38.5 -35.421875 C 40.40625 -33.492188 41.914062 -31.234375 43.03125 -28.640625 C 44.144531 -26.054688 44.703125 -23.296875 44.703125 -20.359375 C 44.703125 -17.410156 44.144531 -14.640625 43.03125 -12.046875 C 41.914062 -9.460938 40.40625 -7.203125 38.5 -5.265625 C 36.59375 -3.335938 34.359375 -1.8125 31.796875 -0.6875 C 29.234375 0.425781 26.507812 0.984375 23.625 0.984375 C 20.675781 0.984375 17.921875 0.425781 15.359375 -0.6875 C 12.804688 -1.8125 10.570312 -3.335938 8.65625 -5.265625 C 6.75 -7.203125 5.238281 -9.460938 4.125 -12.046875 C 3.007812 -14.640625 2.453125 -17.410156 2.453125 -20.359375 C 2.453125 -23.296875 3.007812 -26.054688 4.125 -28.640625 C 5.238281 -31.234375 6.75 -33.492188 8.65625 -35.421875 C 10.570312 -37.359375 12.804688 -38.882812 15.359375 -40 C 17.921875 -41.125 20.675781 -41.6875 23.625 -41.6875 Z M 23.625 -8.90625 C 24.988281 -8.90625 26.253906 -9.175781 27.421875 -9.71875 C 28.585938 -10.269531 29.617188 -11.019531 30.515625 -11.96875 C 31.421875 -12.925781 32.128906 -14.070312 32.640625 -15.40625 C 33.160156 -16.738281 33.421875 -18.222656 33.421875 -19.859375 C 33.421875 -21.492188 33.160156 -23.019531 32.640625 -24.4375 C 32.128906 -25.851562 31.421875 -27.09375 30.515625 -28.15625 C 29.617188 -29.21875 28.585938 -30.0625 27.421875 -30.6875 C 26.253906 -31.3125 24.988281 -31.625 23.625 -31.625 C 22.257812 -31.625 20.976562 -31.3125 19.78125 -30.6875 C 18.582031 -30.0625 17.53125 -29.21875 16.625 -28.15625 C 15.726562 -27.09375 15.019531 -25.851562 14.5 -24.4375 C 13.988281 -23.019531 13.734375 -21.492188 13.734375 -19.859375 C 13.734375 -18.222656 13.988281 -16.738281 14.5 -15.40625 C 15.019531 -14.070312 15.726562 -12.925781 16.625 -11.96875 C 17.53125 -11.019531 18.582031 -10.269531 19.78125 -9.71875 C 20.976562 -9.175781 22.257812 -8.90625 23.625 -8.90625 Z M 23.625 -8.90625 "/></g></g></g><g fill="#000000" fill-opacity="1"><g transform="translate(69.55066, 65.365689)"><g><path d="M 23.625 -41.6875 C 26.507812 -41.6875 29.234375 -41.125 31.796875 -40 C 34.359375 -38.882812 36.59375 -37.359375 38.5 -35.421875 C 40.40625 -33.492188 41.914062 -31.234375 43.03125 -28.640625 C 44.144531 -26.054688 44.703125 -23.296875 44.703125 -20.359375 C 44.703125 -17.410156 44.144531 -14.640625 43.03125 -12.046875 C 41.914062 -9.460938 40.40625 -7.203125 38.5 -5.265625 C 36.59375 -3.335938 34.359375 -1.8125 31.796875 -0.6875 C 29.234375 0.425781 26.507812 0.984375 23.625 0.984375 C 20.675781 0.984375 17.921875 0.425781 15.359375 -0.6875 C 12.804688 -1.8125 10.570312 -3.335938 8.65625 -5.265625 C 6.75 -7.203125 5.238281 -9.460938 4.125 -12.046875 C 3.007812 -14.640625 2.453125 -17.410156 2.453125 -20.359375 C 2.453125 -23.296875 3.007812 -26.054688 4.125 -28.640625 C 5.238281 -31.234375 6.75 -33.492188 8.65625 -35.421875 C 10.570312 -37.359375 12.804688 -38.882812 15.359375 -40 C 17.921875 -41.125 20.675781 -41.6875 23.625 -41.6875 Z M 23.625 -8.90625 C 24.988281 -8.90625 26.253906 -9.175781 27.421875 -9.71875 C 28.585938 -10.269531 29.617188 -11.019531 30.515625 -11.96875 C 31.421875 -12.925781 32.128906 -14.070312 32.640625 -15.40625 C 33.160156 -16.738281 33.421875 -18.222656 33.421875 -19.859375 C 33.421875 -21.492188 33.160156 -23.019531 32.640625 -24.4375 C 32.128906 -25.851562 31.421875 -27.09375 30.515625 -28.15625 C 29.617188 -29.21875 28.585938 -30.0625 27.421875 -30.6875 C 26.253906 -31.3125 24.988281 -31.625 23.625 -31.625 C 22.257812 -31.625 20.976562 -31.3125 19.78125 -30.6875 C 18.582031 -30.0625 17.53125 -29.21875 16.625 -28.15625 C 15.726562 -27.09375 15.019531 -25.851562 14.5 -24.4375 C 13.988281 -23.019531 13.734375 -21.492188 13.734375 -19.859375 C 13.734375 -18.222656 13.988281 -16.738281 14.5 -15.40625 C 15.019531 -14.070312 15.726562 -12.925781 16.625 -11.96875 C 17.53125 -11.019531 18.582031 -10.269531 19.78125 -9.71875 C 20.976562 -9.175781 22.257812 -8.90625 23.625 -8.90625 Z M 23.625 -8.90625 "/></g></g></g><g fill="#000000" fill-opacity="1"><g transform="translate(111.801188, 65.365689)"><g><path d="M 44.546875 -59.671875 L 44.546875 0 L 34.90625 0 L 33.265625 -3.515625 C 32.015625 -2.203125 30.285156 -1.125 28.078125 -0.28125 C 25.867188 0.5625 23.566406 0.984375 21.171875 0.984375 C 18.285156 0.984375 15.613281 0.425781 13.15625 -0.6875 C 10.707031 -1.8125 8.597656 -3.335938 6.828125 -5.265625 C 5.054688 -7.203125 3.664062 -9.460938 2.65625 -12.046875 C 1.644531 -14.640625 1.140625 -17.410156 1.140625 -20.359375 C 1.140625 -23.296875 1.644531 -26.054688 2.65625 -28.640625 C 3.664062 -31.234375 5.054688 -33.492188 6.828125 -35.421875 C 8.597656 -37.359375 10.707031 -38.882812 13.15625 -40 C 15.613281 -41.125 18.285156 -41.6875 21.171875 -41.6875 C 23.734375 -41.6875 26.007812 -41.382812 28 -40.78125 C 29.988281 -40.1875 31.742188 -39.179688 33.265625 -37.765625 L 33.265625 -59.671875 Z M 33.265625 -20.1875 C 33.265625 -22.3125 32.988281 -24.09375 32.4375 -25.53125 C 31.894531 -26.976562 31.132812 -28.148438 30.15625 -29.046875 C 29.175781 -29.953125 28.046875 -30.609375 26.765625 -31.015625 C 25.484375 -31.421875 24.109375 -31.625 22.640625 -31.625 C 21.171875 -31.625 19.796875 -31.320312 18.515625 -30.71875 C 17.234375 -30.125 16.113281 -29.320312 15.15625 -28.3125 C 14.207031 -27.3125 13.457031 -26.113281 12.90625 -24.71875 C 12.363281 -23.332031 12.09375 -21.878906 12.09375 -20.359375 C 12.09375 -18.773438 12.363281 -17.300781 12.90625 -15.9375 C 13.457031 -14.570312 14.207031 -13.382812 15.15625 -12.375 C 16.113281 -11.375 17.234375 -10.570312 18.515625 -9.96875 C 19.796875 -9.375 21.171875 -9.078125 22.640625 -9.078125 C 25.578125 -9.078125 28.066406 -9.988281 30.109375 -11.8125 C 32.160156 -13.632812 33.210938 -16.425781 33.265625 -20.1875 Z M 33.265625 -20.1875 "/></g></g></g><g fill="#000000" fill-opacity="1"><g transform="translate(155.359308, 65.365689)"><g/></g></g><g fill="#000000" fill-opacity="1"><g transform="translate(173.174201, 65.365689)"><g><path d="M 44.546875 -59.671875 L 44.546875 0 L 34.90625 0 L 33.265625 -3.515625 C 32.015625 -2.203125 30.285156 -1.125 28.078125 -0.28125 C 25.867188 0.5625 23.566406 0.984375 21.171875 0.984375 C 18.285156 0.984375 15.613281 0.425781 13.15625 -0.6875 C 10.707031 -1.8125 8.597656 -3.335938 6.828125 -5.265625 C 5.054688 -7.203125 3.664062 -9.460938 2.65625 -12.046875 C 1.644531 -14.640625 1.140625 -17.410156 1.140625 -20.359375 C 1.140625 -23.296875 1.644531 -26.054688 2.65625 -28.640625 C 3.664062 -31.234375 5.054688 -33.492188 6.828125 -35.421875 C 8.597656 -37.359375 10.707031 -38.882812 13.15625 -40 C 15.613281 -41.125 18.285156 -41.6875 21.171875 -41.6875 C 23.734375 -41.6875 26.007812 -41.382812 28 -40.78125 C 29.988281 -40.1875 31.742188 -39.179688 33.265625 -37.765625 L 33.265625 -59.671875 Z M 33.265625 -20.1875 C 33.265625 -22.3125 32.988281 -24.09375 32.4375 -25.53125 C 31.894531 -26.976562 31.132812 -28.148438 30.15625 -29.046875 C 29.175781 -29.953125 28.046875 -30.609375 26.765625 -31.015625 C 25.484375 -31.421875 24.109375 -31.625 22.640625 -31.625 C 21.171875 -31.625 19.796875 -31.320312 18.515625 -30.71875 C 17.234375 -30.125 16.113281 -29.320312 15.15625 -28.3125 C 14.207031 -27.3125 13.457031 -26.113281 12.90625 -24.71875 C 12.363281 -23.332031 12.09375 -21.878906 12.09375 -20.359375 C 12.09375 -18.773438 12.363281 -17.300781 12.90625 -15.9375 C 13.457031 -14.570312 14.207031 -13.382812 15.15625 -12.375 C 16.113281 -11.375 17.234375 -10.570312 18.515625 -9.96875 C 19.796875 -9.375 21.171875 -9.078125 22.640625 -9.078125 C 25.578125 -9.078125 28.066406 -9.988281 30.109375 -11.8125 C 32.160156 -13.632812 33.210938 -16.425781 33.265625 -20.1875 Z M 33.265625 -20.1875 "/></g></g></g><g fill="#000000" fill-opacity="1"><g transform="translate(216.73232, 65.365689)"><g/></g></g><g fill="#000000" fill-opacity="1"><g transform="translate(234.547214, 65.365689)"><g><path d="M 4 -59.75 L 15.28125 -59.75 L 15.28125 0 L 4 0 Z M 4 -59.75 "/></g></g></g><g fill="#000000" fill-opacity="1"><g transform="translate(248.439332, 65.365689)"><g><path d="M 4 -59.75 L 15.28125 -59.75 L 15.28125 0 L 4 0 Z M 4 -59.75 "/></g></g></g></g></g><g transform="matrix(1, 0, 0, 1, 105, 75)"><g clip-path="url(#75748dfb6e)"><g fill="#000000" fill-opacity="1"><g transform="translate(1.078239, 25.325258)"><g><path d="M 6.5 -18.578125 L 11.625 -4.03125 L 11.6875 -4.03125 L 16.671875 -18.578125 L 21.203125 -18.578125 L 21.203125 0 L 18.109375 0 L 18.109375 -14.328125 L 18.0625 -14.328125 L 12.90625 0 L 10.21875 0 L 5.078125 -14.328125 L 5.015625 -14.328125 L 5.015625 0 L 1.921875 0 L 1.921875 -18.578125 Z M 6.5 -18.578125 "/></g></g></g><g fill="#000000" fill-opacity="1"><g transform="translate(24.197872, 25.325258)"><g><path d="M 5.4375 0.359375 C 4.738281 0.359375 4.101562 0.265625 3.53125 0.078125 C 2.957031 -0.109375 2.472656 -0.375 2.078125 -0.71875 C 1.679688 -1.070312 1.375 -1.488281 1.15625 -1.96875 C 0.9375 -2.457031 0.828125 -2.988281 0.828125 -3.5625 C 0.828125 -4.1875 0.90625 -4.734375 1.0625 -5.203125 C 1.21875 -5.671875 1.488281 -6.070312 1.875 -6.40625 C 2.269531 -6.75 2.789062 -7.03125 3.4375 -7.25 C 4.09375 -7.46875 4.914062 -7.632812 5.90625 -7.75 L 7.125 -7.90625 C 8.082031 -8.007812 8.722656 -8.125 9.046875 -8.25 C 9.710938 -8.46875 10.046875 -8.9375 10.046875 -9.65625 C 10.046875 -10.863281 9.117188 -11.46875 7.265625 -11.46875 C 5.441406 -11.46875 4.453125 -10.757812 4.296875 -9.34375 L 1.328125 -9.34375 C 1.429688 -10.8125 2.003906 -11.925781 3.046875 -12.6875 C 4.085938 -13.457031 5.550781 -13.832031 7.4375 -13.8125 C 9.125 -13.8125 10.441406 -13.460938 11.390625 -12.765625 C 12.347656 -12.078125 12.828125 -11.148438 12.828125 -9.984375 L 12.828125 -2.90625 C 12.828125 -2.5625 12.878906 -2.320312 12.984375 -2.1875 C 13.085938 -2.050781 13.300781 -1.984375 13.625 -1.984375 C 13.875 -1.984375 14.082031 -2 14.25 -2.03125 L 14.25 0.03125 C 13.457031 0.25 12.835938 0.359375 12.390625 0.359375 C 11.066406 0.359375 10.300781 -0.1875 10.09375 -1.28125 C 9.832031 -1.019531 9.523438 -0.785156 9.171875 -0.578125 C 8.828125 -0.378906 8.453125 -0.210938 8.046875 -0.078125 C 7.640625 0.0546875 7.210938 0.160156 6.765625 0.234375 C 6.328125 0.316406 5.882812 0.359375 5.4375 0.359375 Z M 6.34375 -1.984375 C 7.382812 -1.984375 8.226562 -2.210938 8.875 -2.671875 C 9.53125 -3.128906 9.859375 -3.722656 9.859375 -4.453125 L 9.859375 -6.734375 C 9.421875 -6.441406 8.753906 -6.242188 7.859375 -6.140625 L 6.578125 -5.984375 C 4.722656 -5.742188 3.796875 -5.023438 3.796875 -3.828125 C 3.796875 -3.253906 4.023438 -2.800781 4.484375 -2.46875 C 4.941406 -2.144531 5.5625 -1.984375 6.34375 -1.984375 Z M 6.34375 -1.984375 "/></g></g></g><g fill="#000000" fill-opacity="1"><g transform="translate(38.657402, 25.325258)"><g><path d="M 7.421875 5.328125 C 5.628906 5.328125 4.195312 4.953125 3.125 4.203125 C 2.0625 3.460938 1.476562 2.441406 1.375 1.140625 L 4.34375 1.140625 C 4.476562 1.804688 4.789062 2.300781 5.28125 2.625 C 5.769531 2.957031 6.535156 3.125 7.578125 3.125 C 9.878906 3.125 11.03125 2.003906 11.03125 -0.234375 L 11.03125 -2.375 L 10.984375 -2.375 C 10.046875 -0.789062 8.703125 0 6.953125 0 C 5.023438 0 3.535156 -0.613281 2.484375 -1.84375 C 1.429688 -3.070312 0.90625 -4.804688 0.90625 -7.046875 C 0.90625 -8.035156 1.050781 -8.941406 1.34375 -9.765625 C 1.644531 -10.585938 2.0625 -11.296875 2.59375 -11.890625 C 3.132812 -12.492188 3.773438 -12.960938 4.515625 -13.296875 C 5.265625 -13.640625 6.09375 -13.8125 7 -13.8125 C 8.957031 -13.8125 10.285156 -13.078125 10.984375 -11.609375 L 11.03125 -11.609375 L 11.03125 -13.453125 L 14 -13.453125 L 14 -0.578125 C 14 1.316406 13.457031 2.773438 12.375 3.796875 C 11.300781 4.816406 9.648438 5.328125 7.421875 5.328125 Z M 7.421875 -2.34375 C 8.554688 -2.34375 9.441406 -2.765625 10.078125 -3.609375 C 10.710938 -4.460938 11.03125 -5.601562 11.03125 -7.03125 C 11.03125 -8.375 10.710938 -9.445312 10.078125 -10.25 C 9.441406 -11.0625 8.554688 -11.46875 7.421875 -11.46875 C 6.273438 -11.46875 5.394531 -11.035156 4.78125 -10.171875 C 4.175781 -9.316406 3.875 -8.191406 3.875 -6.796875 C 3.875 -6.148438 3.957031 -5.550781 4.125 -5 C 4.289062 -4.457031 4.53125 -3.984375 4.84375 -3.578125 C 5.15625 -3.179688 5.523438 -2.875 5.953125 -2.65625 C 6.390625 -2.445312 6.878906 -2.34375 7.421875 -2.34375 Z M 7.421875 -2.34375 "/></g></g></g><g fill="#000000" fill-opacity="1"><g transform="translate(54.079161, 25.325258)"><g><path d="M 5.4375 0.359375 C 4.738281 0.359375 4.101562 0.265625 3.53125 0.078125 C 2.957031 -0.109375 2.472656 -0.375 2.078125 -0.71875 C 1.679688 -1.070312 1.375 -1.488281 1.15625 -1.96875 C 0.9375 -2.457031 0.828125 -2.988281 0.828125 -3.5625 C 0.828125 -4.1875 0.90625 -4.734375 1.0625 -5.203125 C 1.21875 -5.671875 1.488281 -6.070312 1.875 -6.40625 C 2.269531 -6.75 2.789062 -7.03125 3.4375 -7.25 C 4.09375 -7.46875 4.914062 -7.632812 5.90625 -7.75 L 7.125 -7.90625 C 8.082031 -8.007812 8.722656 -8.125 9.046875 -8.25 C 9.710938 -8.46875 10.046875 -8.9375 10.046875 -9.65625 C 10.046875 -10.863281 9.117188 -11.46875 7.265625 -11.46875 C 5.441406 -11.46875 4.453125 -10.757812 4.296875 -9.34375 L 1.328125 -9.34375 C 1.429688 -10.8125 2.003906 -11.925781 3.046875 -12.6875 C 4.085938 -13.457031 5.550781 -13.832031 7.4375 -13.8125 C 9.125 -13.8125 10.441406 -13.460938 11.390625 -12.765625 C 12.347656 -12.078125 12.828125 -11.148438 12.828125 -9.984375 L 12.828125 -2.90625 C 12.828125 -2.5625 12.878906 -2.320312 12.984375 -2.1875 C 13.085938 -2.050781 13.300781 -1.984375 13.625 -1.984375 C 13.875 -1.984375 14.082031 -2 14.25 -2.03125 L 14.25 0.03125 C 13.457031 0.25 12.835938 0.359375 12.390625 0.359375 C 11.066406 0.359375 10.300781 -0.1875 10.09375 -1.28125 C 9.832031 -1.019531 9.523438 -0.785156 9.171875 -0.578125 C 8.828125 -0.378906 8.453125 -0.210938 8.046875 -0.078125 C 7.640625 0.0546875 7.210938 0.160156 6.765625 0.234375 C 6.328125 0.316406 5.882812 0.359375 5.4375 0.359375 Z M 6.34375 -1.984375 C 7.382812 -1.984375 8.226562 -2.210938 8.875 -2.671875 C 9.53125 -3.128906 9.859375 -3.722656 9.859375 -4.453125 L 9.859375 -6.734375 C 9.421875 -6.441406 8.753906 -6.242188 7.859375 -6.140625 L 6.578125 -5.984375 C 4.722656 -5.742188 3.796875 -5.023438 3.796875 -3.828125 C 3.796875 -3.253906 4.023438 -2.800781 4.484375 -2.46875 C 4.941406 -2.144531 5.5625 -1.984375 6.34375 -1.984375 Z M 6.34375 -1.984375 "/></g></g></g><g fill="#000000" fill-opacity="1"><g transform="translate(68.538691, 25.325258)"><g><path d="M 8.015625 -11.109375 L 1.09375 -11.109375 L 1.09375 -13.453125 L 12.015625 -13.453125 L 12.015625 -11.375 L 4.3125 -2.34375 L 12.40625 -2.34375 L 12.40625 0 L 0.578125 0 L 0.578125 -2.078125 Z M 8.015625 -11.109375 "/></g></g></g><g fill="#000000" fill-opacity="1"><g transform="translate(81.541867, 25.325258)"><g><path d="M 4.609375 -18.578125 L 4.609375 -15.765625 L 1.640625 -15.765625 L 1.640625 -18.578125 Z M 4.609375 -13.453125 L 4.609375 0 L 1.640625 0 L 1.640625 -13.453125 Z M 4.609375 -13.453125 "/></g></g></g><g fill="#000000" fill-opacity="1"><g transform="translate(87.809396, 25.325258)"><g><path d="M 4.375 -13.453125 L 4.375 -11.46875 L 4.421875 -11.421875 C 5.410156 -13.015625 6.816406 -13.8125 8.640625 -13.8125 C 10.210938 -13.8125 11.394531 -13.40625 12.1875 -12.59375 C 12.976562 -11.78125 13.375 -10.695312 13.375 -9.34375 L 13.375 0 L 10.40625 0 L 10.40625 -8.40625 C 10.40625 -10.445312 9.53125 -11.46875 7.78125 -11.46875 C 7.289062 -11.46875 6.847656 -11.375 6.453125 -11.1875 C 6.054688 -11.007812 5.710938 -10.765625 5.421875 -10.453125 C 5.140625 -10.140625 4.921875 -9.769531 4.765625 -9.34375 C 4.609375 -8.925781 4.53125 -8.484375 4.53125 -8.015625 L 4.53125 0 L 1.5625 0 L 1.5625 -13.453125 Z M 4.375 -13.453125 "/></g></g></g><g fill="#000000" fill-opacity="1"><g transform="translate(102.737027, 25.325258)"><g><path d="M 7.5 0.359375 C 6.507812 0.359375 5.609375 0.203125 4.796875 -0.109375 C 3.992188 -0.429688 3.304688 -0.898438 2.734375 -1.515625 C 2.160156 -2.140625 1.710938 -2.882812 1.390625 -3.75 C 1.066406 -4.613281 0.90625 -5.59375 0.90625 -6.6875 C 0.90625 -7.394531 0.988281 -8.066406 1.15625 -8.703125 C 1.320312 -9.347656 1.546875 -9.941406 1.828125 -10.484375 C 2.117188 -11.023438 2.46875 -11.503906 2.875 -11.921875 C 3.28125 -12.347656 3.71875 -12.703125 4.1875 -12.984375 C 5.144531 -13.535156 6.222656 -13.8125 7.421875 -13.8125 C 8.710938 -13.8125 9.820312 -13.507812 10.75 -12.90625 C 11.6875 -12.3125 12.429688 -11.503906 12.984375 -10.484375 C 13.503906 -9.492188 13.78125 -8.320312 13.8125 -6.96875 C 13.8125 -6.832031 13.804688 -6.679688 13.796875 -6.515625 C 13.785156 -6.347656 13.773438 -6.160156 13.765625 -5.953125 L 3.875 -5.953125 C 3.875 -4.753906 4.203125 -3.789062 4.859375 -3.0625 C 5.523438 -2.34375 6.40625 -1.984375 7.5 -1.984375 C 8.375 -1.984375 9.078125 -2.171875 9.609375 -2.546875 C 10.140625 -2.929688 10.523438 -3.488281 10.765625 -4.21875 L 13.578125 -4.21875 C 13.421875 -3.519531 13.164062 -2.882812 12.8125 -2.3125 C 12.457031 -1.738281 12.007812 -1.253906 11.46875 -0.859375 C 10.9375 -0.472656 10.332031 -0.175781 9.65625 0.03125 C 8.988281 0.25 8.269531 0.359375 7.5 0.359375 Z M 10.796875 -7.90625 C 10.742188 -8.425781 10.625 -8.898438 10.4375 -9.328125 C 10.257812 -9.765625 10.019531 -10.144531 9.71875 -10.46875 C 9.425781 -10.789062 9.082031 -11.035156 8.6875 -11.203125 C 8.289062 -11.378906 7.859375 -11.46875 7.390625 -11.46875 C 6.398438 -11.488281 5.585938 -11.171875 4.953125 -10.515625 C 4.316406 -9.867188 3.957031 -9 3.875 -7.90625 Z M 10.796875 -7.90625 "/></g></g></g></g></g></svg>